<svg xmlns="http://www.w3.org/2000/svg" viewBox="0 0 61.95 61.833"
  style="color: #02c39a; stroke: #02c39a; fill: #02c39a;">
  <path
    d="M30.397 61.282h-.18c.22-.386.459-.835.71-1.335a64.192 64.192 0 001.335-2.86c.445-1 1.486-3.353 1.748-3.89a8.389 8.389 0 00.638-2.594 19.864 19.864 0 01.449-2.446 7.172 7.172 0 012.605-4.086 11.688 11.688 0 012.12-1.333c.249-.12.5-.227.811-.348l.465-.173.052-.025.166-.062a2.979 2.979 0 001.618-1.17 6.95 6.95 0 00.648-1.177 4.483 4.483 0 00.434-2.7 4.365 4.365 0 01-.043-.731 2.057 2.057 0 01.438-1.162 7.055 7.055 0 011.428-1.344 4.411 4.411 0 001.428-1.6 1.663 1.663 0 00.147-.734 1.61 1.61 0 00-.2-.7 2.917 2.917 0 00-.776-.894 9.663 9.663 0 00-1.386-.889 2.519 2.519 0 00-1.024-.251c-.119-.011-.2-.015-.423-.028h-.048c-.911-.047-1.217-.131-1.232-.533-.016-.45.573-1.271 1.91-2.664a30.858 30.858 0 012.6-2.466c.262-.215.517-.413.829-.643l.657-.469c.1-.075.222-.164.335-.254a9.454 9.454 0 001.629-1.746l.4-.53.369-.493c.281-.374.483-.636.684-.875 1.342-1.612 2.722-2.2 5.682-2.423l-.036-.061.036.061.06.1.027.047a10.969 10.969 0 00-3.5.7 5.53 5.53 0 00-2.15 1.678c-.234.284-.462.576-.678.868l-.367.493-.4.53a9.478 9.478 0 01-1.657 1.775 8.327 8.327 0 01-.34.259l-.656.469c-.278.2-.555.416-.823.637a30.807 30.807 0 00-2.592 2.455c-1.286 1.339-1.88 2.148-1.867 2.546.006.136.077.218.238.273a3.485 3.485 0 00.845.107h.033c.23.013.316.018.443.03a2.653 2.653 0 011.086.268 9.8 9.8 0 011.422.914 3.061 3.061 0 01.8.934 1.717 1.717 0 01.068 1.543 4.507 4.507 0 01-1.486 1.691 6.963 6.963 0 00-1.385 1.3 1.926 1.926 0 00-.419 1.092 4.145 4.145 0 00.041.707 5.224 5.224 0 010 1.372 5.281 5.281 0 01-.447 1.408 7.075 7.075 0 01-.663 1.2 2.972 2.972 0 01-.707.735 4.216 4.216 0 01-.984.493l-.033.012-.07.026c-.149.055-.458.169-.574.214-.278.105-.532.214-.8.342a11.388 11.388 0 00-2.09 1.315 6.679 6.679 0 00-1.615 1.761 7.935 7.935 0 00-.934 2.239 20 20 0 00-.447 2.428c-.109.742-.194 1.221-.287 1.6a4.914 4.914 0 01-.364 1.04c-.253.517-1.237 2.737-1.71 3.8l-.031.07-.326.733a62.286 62.286 0 01-1.016 2.141c-.237.472-.463.9-.672 1.268zm1.929-.024a16.163 16.163 0 012.812-5.686 7.669 7.669 0 001.656-3.038 5.789 5.789 0 00.118-2.064 5.706 5.706 0 01-.038-.594 7.6 7.6 0 01.258-2.251 3.22 3.22 0 012.355-2.457 8.354 8.354 0 001.763-.7 16.568 16.568 0 001.906-1.171 21.293 21.293 0 003.47-3.051 13.462 13.462 0 018.355-3.7 5.288 5.288 0 002.435-.65c.3-.148.611-.321 1.048-.577l.086-.051.064-.038c.251-.149.774-.458.964-.567a18.1 18.1 0 011.719-.882l-.013.127v.055a17.953 17.953 0 00-1.621.838c-.243.138-1.109.651-1.114.655-.461.27-.768.439-1.058.584a5.46 5.46 0 01-2.506.666 8.935 8.935 0 00-2.211.315 14.51 14.51 0 00-2.322.829 11.587 11.587 0 00-3.7 2.5 21.4 21.4 0 01-3.5 3.082 11.978 11.978 0 01-3.716 1.892 2.86 2.86 0 00-1.432.826 3.693 3.693 0 00-.808 1.519 7.478 7.478 0 00-.252 2.206 5.507 5.507 0 00.038.58 5.88 5.88 0 01-.123 2.116 7.788 7.788 0 01-1.689 3.1 12.585 12.585 0 00-1.583 2.5 19.561 19.561 0 00-1.182 3.073H32.336zm-3.517-.046l-.114-.008h-.054a18.039 18.039 0 001.094-3.466 17.5 17.5 0 00.437-3.548 7.54 7.54 0 01.163-1.32c.063-.374.094-.586.118-.809a2.943 2.943 0 00-.268-1.978 2.256 2.256 0 00-1.2-.842 6.227 6.227 0 00-2.029-.292 12.706 12.706 0 00-2.906.371 16.081 16.081 0 00-3.022 1.006c-.8.366-2.627 1.5-2.636 1.5a4.14 4.14 0 01-.918.373 3.931 3.931 0 01-1.016.126 8.724 8.724 0 01-2.019-.292 26.251 26.251 0 01-2.841-.79c-.663-.25-1-.5-1.107-.811a1.28 1.28 0 01.266-1.042 14.84 14.84 0 011.247-1.637 40.793 40.793 0 014.986-4.938c1.862-1.546 3.323-2.433 4.008-2.433a11.918 11.918 0 002.039-.314 57 57 0 003.087-.762 36.729 36.729 0 005.368-1.79 6.785 6.785 0 001.274-.888 19.291 19.291 0 001.481-1.418 42.615 42.615 0 003.119-3.736c.032-.043.227-.352.5-.778l.019-.03c.71-1.125 1.9-3.007 2.546-3.914a14.875 14.875 0 014.3-4.394 7.447 7.447 0 001.6-1.239 11.578 11.578 0 001.4-1.751c.11-.165.355-.572.64-1.044l.019-.032c.511-.847 1.147-1.9 1.371-2.181a2.014 2.014 0 01.721-.621 13.944 13.944 0 015.951-1.44l-.015-.022-.005-.008v.006l.016.024.073.111.031.047a12.9 12.9 0 00-3.029.363 17.592 17.592 0 00-2.961 1.067 1.885 1.885 0 00-.66.575c-.218.27-.845 1.311-1.35 2.146-.3.495-.556.922-.672 1.1a9.174 9.174 0 01-3.052 3.039 14.769 14.769 0 00-4.248 4.348c-.631.886-1.8 2.741-2.5 3.85l-.015.023c-.3.469-.511.808-.547.855a42.741 42.741 0 01-3.141 3.762 11.551 11.551 0 01-2.79 2.328 36.853 36.853 0 01-5.4 1.8 59.363 59.363 0 01-3.1.765 12.013 12.013 0 01-2.058.315c-.655 0-2.088.882-3.933 2.42a40.881 40.881 0 00-4.94 4.894 16.7 16.7 0 00-1.209 1.561c-.268.425-.351.724-.27.968.2.59 1.381.9 3.831 1.493a8.542 8.542 0 001.977.288 3.687 3.687 0 001.861-.478c0-.006.462-.291 1.016-.617.412-.243 1.173-.682 1.629-.892a16.227 16.227 0 013.049-1.017 12.852 12.852 0 012.942-.375 6.35 6.35 0 012.105.309 2.389 2.389 0 011.261.9 3.092 3.092 0 01.294 2.082c-.032.27-.072.545-.12.819a7.536 7.536 0 00-.161 1.293 19.9 19.9 0 01-1.533 7.017zm5.248-.079c.178-.483.377-.952.591-1.394a12.169 12.169 0 011.663-2.65 9.472 9.472 0 01.694-.728c.049-.045.474-.442.585-.551a3.247 3.247 0 00.941-1.607 12.378 12.378 0 00.257-3.051c0-2.989.448-3.789 2.524-4.508.176-.06.309-.108.442-.156a8.175 8.175 0 00.973-.431 8.539 8.539 0 002.3-1.823c4.113-4.458 5.962-5.612 8.993-5.612a6.272 6.272 0 001.8-.242 7.577 7.577 0 001.706-.763c.1-.059.4-.251.821-.515l.023-.014c.683-.432 1.617-1.024 2.053-1.27.215-.121.436-.239.657-.352l-.008.054v.006l-.009.058-.009.057v.02a13.37 13.37 0 00-.548.3c-.442.25-1.42.87-2.068 1.28l-.085.053c-.36.228-.644.408-.742.465a6.631 6.631 0 01-3.59 1.026 7.763 7.763 0 00-2.088.253 7.205 7.205 0 00-1.962.885 25.857 25.857 0 00-4.821 4.418 8.743 8.743 0 01-2.345 1.855 8.33 8.33 0 01-.994.439c-.14.052-.267.1-.857.3a2.33 2.33 0 00-1.481 1.017 6.587 6.587 0 00-.525 3.2c0 2.786-.267 3.812-1.244 4.771-.069.067-.252.238-.4.379l-.185.173a9.347 9.347 0 00-.683.717 12 12 0 00-1.64 2.615c-.206.425-.394.865-.559 1.307l-.176.018zm-6.887-.081l-.13-.016h-.038a7.035 7.035 0 00.618-2.7 7.573 7.573 0 01.536-2.37c.082-.261.133-.426.183-.6a5.474 5.474 0 00.314-2.355 2.09 2.09 0 00-1-1.476 3.707 3.707 0 00-1.592-.6 4.229 4.229 0 00-.537-.034 5.212 5.212 0 00-1.531.248 11.306 11.306 0 00-1.747.725c-.135.068-.441.227-.711.367l-.115.06h-.008l-.376.195a10.04 10.04 0 00-.66.367l-.7.424a6.774 6.774 0 01-3.608 1.188 6.66 6.66 0 01-1.626-.218c-.515-.131-.952-.216-2.09-.421a42.232 42.232 0 01-1.709-.334l.073.065-.073-.065-.02-.018-.014-.013-.153-.139-.056-.051c.483.115 1.087.236 2.022.4.684.113 1.378.252 2.061.415a6.506 6.506 0 001.589.213 5.266 5.266 0 001.727-.3 9.543 9.543 0 001.8-.869l.7-.423c.272-.164.478-.279.67-.375l.418-.216c.285-.148.641-.332.79-.407a7.536 7.536 0 013.348-.991 4.354 4.354 0 01.56.036 3.864 3.864 0 011.659.627c1.182.788 1.385 1.875.75 4.011-.049.165-.1.321-.185.6a7.593 7.593 0 00-.528 2.322 7.149 7.149 0 01-.613 2.716zm9.224-.246a11.294 11.294 0 01.832-.977 18.39 18.39 0 011.887-1.722 5.292 5.292 0 001.2-1.2.945.945 0 00.152-.488 12.367 12.367 0 00-.118-1.451v-.022c-.052-.531-.09-.978-.108-1.43a6.471 6.471 0 01.229-2.332 1.682 1.682 0 011.065-1.142 11.012 11.012 0 003.167-1.551 7.767 7.767 0 002.169-2.526 14.049 14.049 0 011.3-1.921 13.168 13.168 0 011.517-1.6 4.988 4.988 0 012.9-1.506 8.855 8.855 0 002.522-.293 6.927 6.927 0 002.169-1.112 6.764 6.764 0 011.989-1.191 4.1 4.1 0 011.263-.118c-.03.118-.056.223-.082.32a3.705 3.705 0 00-1.092.1 6.577 6.577 0 00-1.891 1.142 7.227 7.227 0 01-2.264 1.16 9.153 9.153 0 01-2.616.307 2.752 2.752 0 00-1.266.395 7.876 7.876 0 00-1.46 1.064 13.073 13.073 0 00-1.458 1.551 13.76 13.76 0 00-1.261 1.857c-1.187 2.112-2.732 3.3-5.512 4.224-.811.271-1.154 1.274-1.077 3.158.016.4.046.795.109 1.411l.007.076a12.108 12.108 0 01.112 1.429 1.244 1.244 0 01-.2.653 5.468 5.468 0 01-1.267 1.277 18.467 18.467 0 00-1.861 1.7c-.2.213-.4.438-.589.67l.035-.007-.035.007-.184.035-.29.054zm3.941-.985a6.67 6.67 0 002.123-4.677 6.121 6.121 0 00-.157-1.3 3.929 3.929 0 01-.155-1.209 1.532 1.532 0 01.568-1.073 6.952 6.952 0 012.189-1.119 5.722 5.722 0 001.995-1.189A13.529 13.529 0 0048.78 47l.284-.4a12.564 12.564 0 011.664-2.04 5.569 5.569 0 011.085-.812 4.914 4.914 0 011.234-.492 26.972 26.972 0 004.043-1.219 7.867 7.867 0 00.842-.431c.176-.1.28-.166.676-.415a2.311 2.311 0 011.135-.328v.009l-.048.136V41.029a2.1 2.1 0 00-.994.3c-.226.144-.454.284-.678.417a8.122 8.122 0 01-.86.439 27.011 27.011 0 01-4.068 1.229 4.6 4.6 0 00-1.982 1.014 12.446 12.446 0 00-1.91 2.268l-.282.4a13.649 13.649 0 01-1.913 2.286 5.871 5.871 0 01-2.04 1.215 6.845 6.845 0 00-2.138 1.089 1.359 1.359 0 00-.514.964 3.829 3.829 0 00.152 1.165 6.241 6.241 0 01.16 1.336 6.626 6.626 0 01-1.982 4.579l-.2.065-.1.034zm-19.8-.367l-.3-.11-.172-.065a1.493 1.493 0 00-.435-.49 6.786 6.786 0 00-2.515-.825l.05.025-.05-.025-.35-.182c-.168-.089-.337-.18-.5-.272a8.632 8.632 0 013.546 1.014 2.269 2.269 0 01.727.931zm23.234-.979a8.66 8.66 0 001.122-3.23 4.761 4.761 0 01.443-1.416 2.338 2.338 0 01.585-.663c.109-.092.471-.354.821-.607l.011-.008c.4-.29.855-.62 1.05-.778a8.163 8.163 0 00.734-.674 14 14 0 001.633-2.316c.31-.5.64-.994.981-1.469a3.873 3.873 0 011.4-1.341 17.668 17.668 0 011.787-.646c.252-.077.5-.15.825-.243.255-.07.513-.143.769-.217a7.7 7.7 0 002.032-.8 3.079 3.079 0 01.577-.276l-.01.021-.09.19a2.77 2.77 0 00-.393.2 7.721 7.721 0 01-2.071.822l-.38.107c-.4.11-.811.228-1.212.351a17.685 17.685 0 00-1.771.642 3.79 3.79 0 00-1.335 1.288 25.03 25.03 0 00-.973 1.461 14.217 14.217 0 01-1.653 2.342 8.686 8.686 0 01-.75.686c-.2.162-.659.495-1.065.789l-.024.017-.043.031c-.336.243-.653.473-.751.555a2.236 2.236 0 00-.548.616 4.673 4.673 0 00-.427 1.373 16.342 16.342 0 01-.427 1.744 6.734 6.734 0 01-.6 1.334l.221-.106-.221.106-.013.006-.088.041-.155.072zm3.182-1.713a16.146 16.146 0 012.508-2.43c1.764-1.511 2.466-2.2 2.893-3.054.1-.2.2-.421.308-.7.084-.223.164-.44.238-.646a3.722 3.722 0 011.153-1.784 6.59 6.59 0 012.499-1.066l.162-.042.054-.014-.029.046v.005l-.018.028-.054.085-.021.032-.048.012a6.2 6.2 0 00-2.624 1.2 2.581 2.581 0 00-.514.629 5.6 5.6 0 00-.407.919l-.239.65a8.85 8.85 0 01-.313.713c-.44.882-1.151 1.58-2.932 3.1a21.488 21.488 0 00-2.2 2.046l-.026.017-.32.2zM8.007 50.844l-.12-.139a3.878 3.878 0 01.278-.551 14.873 14.873 0 012.3-2.924c.425-.421.872-.832 1.327-1.223l.147-.128.128-.11c.39-.336.81-.7.972-.843a13.725 13.725 0 001.037-1.01 28.522 28.522 0 011.625-1.677 15.23 15.23 0 011.578-1.288 15.534 15.534 0 015.612-2.487c3.211-.75 5.077-1.223 6.439-1.635a11.069 11.069 0 002.946-1.227 11.062 11.062 0 002.524-2.919 61.594 61.594 0 003.354-5.83 13 13 0 013.371-4.1 23.8 23.8 0 012.8-1.952 7.9 7.9 0 001.825-1.309 3.361 3.361 0 00.471-.778c.1-.2.443-1 .479-1.081a11.96 11.96 0 01.63-1.234 6.816 6.816 0 015.007-3.317 23.039 23.039 0 012.774-.361l.112.153a22.214 22.214 0 00-2.859.367 7.573 7.573 0 00-2.968 1.142 6.457 6.457 0 00-1.931 2.1 11.655 11.655 0 00-.622 1.218c-.024.056-.382.874-.48 1.084a3.516 3.516 0 01-.495.814 7.969 7.969 0 01-1.851 1.333 23.887 23.887 0 00-2.782 1.939 12.872 12.872 0 00-3.333 4.055 61.468 61.468 0 01-3.372 5.856 11.172 11.172 0 01-2.557 2.948c-1.233.822-3.262 1.442-9.439 2.884a15.349 15.349 0 00-5.555 2.468 14.974 14.974 0 00-1.563 1.276c-.466.434-.949.932-1.615 1.666a13.687 13.687 0 01-1.051 1.019c-.105.093-.4.35-1.21 1.046l-.037.032c-.546.474-.94.838-1.318 1.216a14.72 14.72 0 00-2.276 2.894 3.6 3.6 0 00-.3.606zm9.264-1.06a4.119 4.119 0 01-2.542-.959c-.4-.285-.442-.694-.133-1.216a6.913 6.913 0 011.289-1.432l.284-.262.056-.052c.576-.529.664-.61.885-.831a4.548 4.548 0 00.874-1.218 2.887 2.887 0 011-1.127 6.815 6.815 0 011.506-.707c.568-.2 1.336-.418 2.568-.726.2-.049.831-.2 1.411-.347h.009l.209-.051c.658-.161 1.339-.328 1.651-.406 1.643-.414 2.857-.761 3.821-1.094a10.2 10.2 0 002.277-1.037 24.018 24.018 0 003.973-3.577 20.159 20.159 0 003.019-4.053c.345-.691.709-1 1.179-1h.046a1.952 1.952 0 01.689.192c.191.083.381.174.565.271l.2.1a4.326 4.326 0 002.018.549 1.521 1.521 0 011.277.436.878.878 0 01.056.827 4.217 4.217 0 01-1.771 1.919 3.506 3.506 0 00-1.434 2 10.887 10.887 0 00-.441 3.355 1.611 1.611 0 01-.635 1.335 4.585 4.585 0 01-1.351.664l-.163.059a3.473 3.473 0 00-1.385.712 4.553 4.553 0 01-3.246 1.141c-.212 0-.385.134-.636.5-.047.067-.212.314-.234.348a2.6 2.6 0 01-.626.691 1.228 1.228 0 01-.737.222c-1.253 0-1.707.145-3.471 1.108a4.418 4.418 0 01-2.339.588h-.147a5.152 5.152 0 00-1.677.214 11.713 11.713 0 00-1.418.568c-.143.066-.533.25-1.582.753l-.025.012-.024.012a18.929 18.929 0 01-3.014 1.208 6.711 6.711 0 01-1.827.309zm7.085-8.684c-.529.129-1.076.263-1.259.309-1.2.3-1.982.521-2.553.721a6.607 6.607 0 00-1.471.69 2.75 2.75 0 00-.95 1.074 4.683 4.683 0 01-.9 1.25c-.223.225-.313.308-.9.849l-.007.007-.036.033-.282.26a6.85 6.85 0 00-1.26 1.4 1.015 1.015 0 00-.18.58.571.571 0 00.268.426 3.978 3.978 0 002.451.929 6.565 6.565 0 001.788-.3 19 19 0 002.99-1.2c.047-.025 1.333-.641 1.634-.779a11.885 11.885 0 011.437-.574 5.265 5.265 0 011.723-.224h.145a5.208 5.208 0 001.174-.127 4.4 4.4 0 001.091-.443c1.777-.969 2.275-1.127 3.548-1.127.484 0 .806-.221 1.23-.843l.236-.351c.286-.41.494-.562.767-.562a5.527 5.527 0 001.729-.256 3.528 3.528 0 001.406-.837 3.529 3.529 0 011.442-.75l.163-.059a4.22 4.22 0 001.455-.758 1.381 1.381 0 00.426-1.091c0-2.868.657-4.717 1.953-5.5a4.98 4.98 0 001.071-.868 2.872 2.872 0 00.63-.965.734.734 0 00-.038-.688c-.172-.241-.556-.364-1.143-.364a4.47 4.47 0 01-2.089-.565l-.123-.06c-.977-.477-.977-.477-1.2-.485H40.619c-.4 0-.725.281-1.04.911a26.348 26.348 0 01-7.047 7.692c-1.032.688-2.814 1.312-6.15 2.152-.355.09-1.19.294-1.927.474l-.092.023zm-18.1 7.544l-.19-.265c.3-.324.7-.73.982-1.027.267-.276.5-.513.585-.611a15.468 15.468 0 012.821-2.34c.191-.13.653-.43 1.141-.748l.043-.028a97.091 97.091 0 001.607-1.058 8.087 8.087 0 001.011-.867c.239-.235 1.107-1.134 1.136-1.165a8.992 8.992 0 013.149-2.3c.517-.206 1.245-.431 2.784-.859l1.879-.523c.681-.191 1.361-.39 2.021-.591a35.974 35.974 0 004.068-1.465 8.88 8.88 0 002.439-1.479 8.168 8.168 0 002.51-4.154 10.9 10.9 0 01.809-2.03 21.879 21.879 0 013.156-4.324 12.054 12.054 0 013.784-2.931 7.554 7.554 0 002.393-1.412 2.021 2.021 0 00.7-1.474 4.741 4.741 0 011.09-2.192 7.533 7.533 0 012.672-2.264 20.612 20.612 0 015.373-1.443l.193.23.049.059a23.8 23.8 0 00-2.919.565 15.753 15.753 0 00-2.561.877 7.213 7.213 0 00-2.553 2.168 4.668 4.668 0 00-1.024 2 2.294 2.294 0 01-.758 1.66 7.7 7.7 0 01-2.531 1.52 7.857 7.857 0 00-1.81 1.118 17 17 0 00-1.875 1.752 21.558 21.558 0 00-3.1 4.241 10.64 10.64 0 00-.787 1.98 8.431 8.431 0 01-2.6 4.287c-1.081 1.015-3.127 1.945-6.632 3.015a94.77 94.77 0 01-2.026.592c-.618.175-1.251.351-1.882.524-1.559.435-2.253.65-2.75.849a6.561 6.561 0 00-1.5.846 13.216 13.216 0 00-1.536 1.376l-.081.084c-.231.239-.846.875-1.048 1.073a8.379 8.379 0 01-1.053.9 90.66 90.66 0 01-1.622 1.068l-.014.009c-.473.308-.963.627-1.155.758a15.165 15.165 0 00-2.765 2.291c-.1.108-.346.366-.634.664l-.009.01c-.337.35-.69.716-.973 1.018zm11.07-.123a1.042 1.042 0 01-.873-.29.659.659 0 01-.045-.607 5.463 5.463 0 011.244-1.777c.2-.218.423-.449.662-.686.293-.29.883-.847 1.754-1.656l.042-.039.04-.034a2.325 2.325 0 01.223-.2 2.41 2.41 0 011.822-.472h.44c.255 0 .412.007.6.007a7.277 7.277 0 001.157-.11 7.86 7.86 0 011.026-.115 1.416 1.416 0 01.324.035c.407.09.6.387.6.908a1.925 1.925 0 01-1.056 1.614 11.008 11.008 0 01-2.257 1.022l-.043.016-.364.137a6.1 6.1 0 00-1.488.867l-.128.091a5.422 5.422 0 01-3.675 1.285zm4.866-5.6a2.273 2.273 0 00-1.728.437 2.529 2.529 0 00-.21.188l-.227.213-.014.013c-.392.366-1.209 1.127-1.585 1.5-.222.22-.443.449-.657.68a5.463 5.463 0 00-1.209 1.716.509.509 0 00.026.469c.109.148.351.221.74.221a5.35 5.35 0 001.878-.28 6.907 6.907 0 001.706-.971l.127-.091a6.388 6.388 0 011.525-.887l.367-.137.04-.016A10.909 10.909 0 0025.2 44.97a1.758 1.758 0 00.983-1.48.947.947 0 00-.118-.522.541.541 0 00-.361-.229 1.282 1.282 0 00-.3-.032 7.687 7.687 0 00-1 .112 7.473 7.473 0 01-1.181.112c-.179 0-.332 0-.6-.006-.148-.004-.29-.006-.426-.006zM4.918 46.626l-.025-.041-.007-.011-.007-.011-.045-.074a32.666 32.666 0 013.79-2.985c.322-.219 1-.657 1.662-1.08l.012-.007c.591-.38 1.2-.772 1.4-.908a15.65 15.65 0 001.242-1.007c.005-.009 1.189-1.05 1.511-1.325a22.021 22.021 0 012.082-1.62 7.094 7.094 0 012.053-1.009c2.071-.553 2.493-.668 3.473-.953a28.112 28.112 0 004.489-1.6 7.291 7.291 0 011.192-.445 6.734 6.734 0 002.707-1.293 8.253 8.253 0 001.573-1.736 17.375 17.375 0 001.511-2.713c2.542-5.537 3.021-6.271 5.129-7.852a9.142 9.142 0 011.824-1.022l.372-.166a9.641 9.641 0 002.144-1.2 4.426 4.426 0 001.222-1.573 5.538 5.538 0 00.538-1.959 3.136 3.136 0 01.563-1.636 4.938 4.938 0 012.291-1.438c.542-.2 1.189-.4 1.923-.6a27.8 27.8 0 013.4-.711l.135.141a27.067 27.067 0 00-3.489.721c-.641.164-1.282.363-1.906.591a4.839 4.839 0 00-2.222 1.385 2.968 2.968 0 00-.532 1.564 5.693 5.693 0 01-.553 2 4.9 4.9 0 01-1.541 1.827 9.527 9.527 0 01-1.9 1.022l-.379.18a8.96 8.96 0 00-1.795 1 8.616 8.616 0 00-2.36 2.4 45.766 45.766 0 00-2.721 5.388 12.224 12.224 0 01-3.124 4.512 6.883 6.883 0 01-2.76 1.32 7.128 7.128 0 00-1.169.436 28.518 28.518 0 01-4.515 1.606c-1.153.332-2.324.653-3.478.953a6.977 6.977 0 00-2 .988 22.081 22.081 0 00-2.066 1.607c-.295.253-1.139 1-1.488 1.3l-.024.021a15.735 15.735 0 01-1.251 1.017c-.195.136-.8.522-1.431.93l-.012.008c-.579.372-1.3.834-1.625 1.054a32.494 32.494 0 00-3.8 2.992zm-1.454-2.685l-.009-.018v-.006l-.054-.115c.2-.133.4-.268.6-.4l.794-.511.01-.006.18-.116.982-.633a40.704 40.704 0 002.061-1.416 36.55 36.55 0 002.99-2.525l.271-.246c1.558-1.412 2.528-2.234 3.348-2.839a10.807 10.807 0 012.5-1.423 22.6 22.6 0 012.513-.792l.085-.022h.007l.165-.043.02-.005a285.47 285.47 0 002.784-.744 23.55 23.55 0 003.919-1.408 7.7 7.7 0 002.439-1.75 10.513 10.513 0 001.281-1.819c.4-.691.833-1.562 1.459-2.913l.334-.718a32.907 32.907 0 011.848-3.561 9.62 9.62 0 011.784-2.169 10.45 10.45 0 012.454-1.66l.645-.314a4.15 4.15 0 002.067-1.879 10.848 10.848 0 00.715-1.544 7.6 7.6 0 013.194-4.004 5.967 5.967 0 012.951-.849c1.059 0 1.853-.019 2.74-.064l.088.074.09.076c-1.124.061-1.98.073-2.92.073a5.237 5.237 0 00-1.394.2 6.2 6.2 0 00-1.478.627 7.441 7.441 0 00-3.116 3.911 10.965 10.965 0 01-.727 1.564 4.543 4.543 0 01-.9 1.152 5.277 5.277 0 01-1.239.792l-.643.313a10.269 10.269 0 00-2.418 1.636 9.493 9.493 0 00-1.761 2.145 32.867 32.867 0 00-1.835 3.538l-.332.717a18.2 18.2 0 01-2.768 4.768c-1.171 1.318-3.034 2.246-6.43 3.205-.708.2-3.047.813-3.069.819a22.779 22.779 0 00-2.494.785 10.684 10.684 0 00-2.476 1.412c-.815.6-1.779 1.418-3.328 2.822l-.272.246a37.137 37.137 0 01-3 2.535c-.607.447-1.246.885-2.069 1.422l-.759.489a96.16 96.16 0 00-1.821 1.187zm-.838-1.921l-.052-.132-.008-.019a65.89 65.89 0 003.682-3.088 17.571 17.571 0 002.4-2.514 22.855 22.855 0 018.482-7.687 13.016 13.016 0 002.548-1.783 6.7 6.7 0 001.472-1.898 4.874 4.874 0 00.459-1.34 8.926 8.926 0 00.11-1.618 12.628 12.628 0 00-.59-4.379 7.667 7.667 0 00-1.009-2 6.5 6.5 0 00-1.557-1.541 16.963 16.963 0 00-2.613-1.575 4.987 4.987 0 00-2.111-.508 7.332 7.332 0 00-3.017.817c-.013.006-2.7 1.2-3.38 1.517l-.112.053a51.585 51.585 0 00-2.884 1.447v-.014l.106-.185.037-.064c.906-.485 1.84-.949 2.778-1.381.375-.174 1.457-.66 3.215-1.447h.008l.07-.031.085-.038a7.493 7.493 0 013.086-.831c1.322 0 2.581.554 4.811 2.116a7.076 7.076 0 012.624 3.617 12.719 12.719 0 01.6 4.43 5.966 5.966 0 01-.587 3.028 9.343 9.343 0 01-4.081 3.746 24.209 24.209 0 00-4.839 3.411 24.488 24.488 0 00-3.589 4.225 17.76 17.76 0 01-2.43 2.549 62.409 62.409 0 01-3.709 3.116zM39.3 40.412a3.707 3.707 0 01-.605-.046 1.906 1.906 0 01-1.222-.639 2.335 2.335 0 01-.438-1.506 8.375 8.375 0 01.29-2.536 4.387 4.387 0 011.007-1.667 3.488 3.488 0 00.4-.6c.07-.122.277-.509.377-.694l.009-.016.048-.089a6.033 6.033 0 01.855-1.273 1.147 1.147 0 01.837-.42 1.082 1.082 0 01.262.034 2.084 2.084 0 01.571.254l.222.134a3.209 3.209 0 00.494.255 1.366 1.366 0 00.464.045h.588a1.6 1.6 0 01.751.107.267.267 0 01.152.2c.021.147-.091.344-.334.587-.2.2-.408.4-.616.6-.861.821-1.357 1.3-1.676 1.667a2.491 2.491 0 00-.56.895 3.077 3.077 0 00-.156 2.037 3.422 3.422 0 01-.456 2.416.556.556 0 01-.42.231c-.081 0-.162 0-.241.011l-.1.006c-.199.001-.359.007-.503.007zm1.57-9.323c-.495 0-.933.451-1.563 1.608-.012.023-.346.643-.435.8a3.636 3.636 0 01-.423.626 4.27 4.27 0 00-.975 1.618 8.243 8.243 0 00-.28 2.48 2.157 2.157 0 00.4 1.4 1.727 1.727 0 001.128.586 3.512 3.512 0 00.577.044c.138 0 .3-.006.493-.018h.188c.058 0 .109-.006.158-.006a.406.406 0 00.3-.172 3.356 3.356 0 00.417-2.289 3.227 3.227 0 01.164-2.113c.215-.628.569-1 2.277-2.628.225-.213.414-.4.614-.6s.3-.349.285-.441a.122.122 0 00-.07-.09 1.548 1.548 0 00-.673-.086h-.597a1.358 1.358 0 01-.514-.058 3.275 3.275 0 01-.518-.267l-.22-.132a1.924 1.924 0 00-.528-.235.889.889 0 00-.205-.027zM2.001 40.273l-.028-.086-.008-.023-.016-.049.323-.23a31.657 31.657 0 002.941-2.332 11.057 11.057 0 001.84-2.09c.585-.9 1.674-2.859 2.2-3.8.2-.364.328-.589.357-.636a4.106 4.106 0 011.624-1.655 25.075 25.075 0 003.993-2.605 16.231 16.231 0 002.315-2.205 7.149 7.149 0 001.308-2.17 3.307 3.307 0 00-.187-2.367 9.025 9.025 0 00-1.813-2.659 13.243 13.243 0 00-2.224-1.907 3.86 3.86 0 00-1.766-.781 8.351 8.351 0 00-2.871.606 10.378 10.378 0 00-2.821 1.611 4.932 4.932 0 01-2.154.972c-.221.051-.362.077-.815.163-.434.082-.745.15-1.011.22l.013-.03.049-.108.022-.049c.237-.059.522-.119.9-.19.439-.083.589-.112.807-.162a4.755 4.755 0 002.09-.941 10.147 10.147 0 015.793-2.252 3.97 3.97 0 011.835.8 13.4 13.4 0 012.271 1.943 9.151 9.151 0 011.85 2.727 3.448 3.448 0 01.18 2.461 10.826 10.826 0 01-3.674 4.447 25.243 25.243 0 01-4.023 2.623 2.98 2.98 0 00-.812.6 5.791 5.791 0 00-.747.992c-.026.042-.141.248-.315.561l-.017.031v.006c-.53.953-1.632 2.937-2.222 3.845a18.358 18.358 0 01-4.823 4.463l-.344.244-.02.014zm37.257-.839c-.418 0-.71-.5-.71-1.214 0-.638.093-.908.33-.961a.372.372 0 01.082-.01c.148 0 .282.1.588.374.093.083.4.3.407.308.318.255.318.54 0 1.016a.911.911 0 01-.696.488zm-.308-1.862c-.028.005-.08.2-.08.648 0 .547.148.887.387.887.138 0 .294-.119.438-.336.243-.367.232-.455.064-.59 0 0-.306-.219-.421-.319a1.325 1.325 0 00-.388-.29zm-37.574.52l-.072-.3a15.8 15.8 0 002.229-1.01 14.843 14.843 0 004.844-5.315 3.811 3.811 0 00.5-1.569c0-.883.485-1.482 1.621-2 .106-.048.372-.162.567-.245l.311-.134a2.872 2.872 0 00.287-.148 4.665 4.665 0 01.518-.259 5.312 5.312 0 002.628-2.094c.037-.05.123-.159.231-.3l.063-.08c.352-.448.94-1.2 1.057-1.4a3.814 3.814 0 00.371-2.121 6 6 0 00-1.673-3.563 3.823 3.823 0 00-2.618-1.472 1.764 1.764 0 00-.6.1 13.8 13.8 0 00-3.957 1.875c-.176.115-.538.373-.889.623-.36.256-.731.521-.866.605a3.278 3.278 0 01-1.839.552 3.4 3.4 0 00-1.108.124 1.46 1.46 0 00-.7.536l.022-.061.044-.122v-.015l.006-.015c.057-.156.115-.309.172-.456a1.765 1.765 0 01.647-.245 5.007 5.007 0 01.912-.065 2.934 2.934 0 001.67-.5c.121-.075.454-.312.806-.562l.025-.018c.325-.232.73-.52.923-.646a14.063 14.063 0 014.02-1.908 2.1 2.1 0 01.708-.121 4.126 4.126 0 012.854 1.577 6.335 6.335 0 011.76 3.777 4.071 4.071 0 01-.415 2.283c-.131.22-.745 1-1.111 1.469l-.053.067a3.67 3.67 0 00-.2.262 5.638 5.638 0 01-2.753 2.2 3.85 3.85 0 00-.483.24 3.154 3.154 0 01-.319.163c-.048.022-.178.078-.33.143l-.045.019c-.194.083-.412.176-.5.218-1.019.468-1.434.964-1.434 1.713a4.058 4.058 0 01-.511 1.662 13.32 13.32 0 01-1.311 2.052 13.5 13.5 0 01-3.683 3.448 16.386 16.386 0 01-2.311 1.034zm-.381-1.785l-.021-.114-.008-.046c.34-.137.765-.313 1.337-.554a6.747 6.747 0 001.806-1.145 9.652 9.652 0 001.546-1.752A18.608 18.608 0 008 27.66a2.616 2.616 0 011.272-1.6 6.443 6.443 0 011.894-.6c.258-.054.34-.072.434-.094h.011l.053-.012a6.244 6.244 0 001.759-.618 3.2 3.2 0 001.127-1.084 4.331 4.331 0 00.749-3.433A4.07 4.07 0 0013.15 17.7a3.281 3.281 0 00-1.374-.528.843.843 0 00-.261.042 1.63 1.63 0 00-.365.168c-.076.044-.346.214-.434.27h-.007l-.026.016a10.538 10.538 0 01-1.621.825 7.844 7.844 0 00-.78.372 4.782 4.782 0 00-1.048.772c-.209.219-.414.444-.609.67a1.675 1.675 0 01-1.422.586 2.5 2.5 0 00-1.075.186 2.214 2.214 0 00-.771.639l-.031.038-.025.031c-.187.23-.309.378-.362.441a5.114 5.114 0 01-.554.56 2.438 2.438 0 01-.313.228 1.949 1.949 0 01-.642.255l.016-.063v-.012l.015-.058v-.013l.007-.028a1.766 1.766 0 00.514-.218 2.127 2.127 0 00.29-.212 4.847 4.847 0 00.538-.543c.055-.064.173-.208.279-.338l.013-.016.127-.155a2.181 2.181 0 011.967-.883 1.519 1.519 0 001.3-.535s.438-.5.615-.675a4.931 4.931 0 011.083-.8 7.679 7.679 0 01.8-.38 10.4 10.4 0 001.6-.814c.027-.018.383-.241.471-.294a1.866 1.866 0 01.388-.187 1 1 0 01.311-.05 3.35 3.35 0 011.45.548 4.222 4.222 0 012.234 2.62 4.483 4.483 0 01-.77 3.559 3.36 3.36 0 01-1.176 1.134 6.354 6.354 0 01-1.811.639c-.115.027-.174.04-.362.079l-.137.029a6.23 6.23 0 00-1.851.583A2.463 2.463 0 008.15 27.71c-1.35 4.28-3.3 6.982-5.788 8.031-.578.244-1.013.424-1.368.567zm-.14-.836l-.016-.1v-.025l-.005-.036a7.294 7.294 0 001.138-.663 14.224 14.224 0 002.278-1.951 8.509 8.509 0 001.36-2.012 13.561 13.561 0 001.174-3.245 2.765 2.765 0 00-.206-2.254 2.949 2.949 0 00-1.228-.853 5 5 0 00-1.782-.281 11.571 11.571 0 00-2.019.2 8.327 8.327 0 01-.36.058l.007-.031.019-.089v-.007l.008-.037c.088-.013.185-.028.3-.048a11.736 11.736 0 012.05-.205 3.865 3.865 0 013.13 1.19 2.863 2.863 0 01.253 2.346 13.605 13.605 0 01-1.2 3.328 10.279 10.279 0 01-3.695 4.021 7.522 7.522 0 01-1.206.7zm55.841-.642a3.832 3.832 0 01-1.73-.446c-.568-.283-2.738-1.751-2.744-1.758a15.372 15.372 0 00-.829-.49 20.994 20.994 0 01-1.934-1.216 19.846 19.846 0 01-1.764-1.394c-1.148-1.027-1.79-1.906-1.809-2.474-.017-.529.283-1.019 1-1.638.15-.131.326-.272.587-.471l.091-.069.008-.006.089-.068h.006l.434-.331a8.152 8.152 0 001.487-1.349 33.116 33.116 0 012.939-3.188 11.494 11.494 0 012.543-1.965 6.034 6.034 0 012.465-.674 2.855 2.855 0 01.814.114l.2.412a2.526 2.526 0 00-1.018-.206 5.723 5.723 0 00-2.324.645 11.209 11.209 0 00-2.475 1.922 33.482 33.482 0 00-2.892 3.141 8.4 8.4 0 01-1.543 1.4l-.629.476c-.2.148-.388.3-.573.46a3.625 3.625 0 00-.682.732 1.12 1.12 0 00-.208.655 1.965 1.965 0 00.5 1.01 10.146 10.146 0 001.261 1.289 21.215 21.215 0 003.576 2.513c.281.155.557.318.846.5l.01.006c.365.246 2.208 1.488 2.707 1.737a3.476 3.476 0 001.589.412 4.832 4.832 0 002.559-.92 9.894 9.894 0 011.287-.688c.315-.141.555-.244.847-.349l-.022.348c-.23.087-.445.179-.7.291a9.631 9.631 0 00-1.246.667 5.118 5.118 0 01-2.721.97zM.688 34.208L.67 34.04a2.917 2.917 0 00.343-.195 15.2 15.2 0 002.508-2.305 8.526 8.526 0 001.767-2.6 6.534 6.534 0 00.436-2.484 1.276 1.276 0 00-.454-.928 1.863 1.863 0 00-1.181-.317c-.314 0-.549-.006-1.182-.024l-.619-.016c-.209 0-.4-.007-.6-.007-.248 0-.468 0-.674.013l.009-.046v-.019l.017-.09c.2-.008.408-.011.642-.011.194 0 .391 0 .6.007l.62.016c.588.017.856.024 1.178.024 1.094 0 1.7.467 1.795 1.389a3.6 3.6 0 01-.056 1.046 13.991 13.991 0 01-.386 1.5 8.668 8.668 0 01-1.783 2.645 15.314 15.314 0 01-2.545 2.34 3.1 3.1 0 01-.414.23zm55.99-1.2a6.554 6.554 0 01-3.129-1.08c-.582-.336-1.218-.757-2.064-1.363-.182-.131-.584-.427-.939-.689l-.059-.044-.042-.031h-.005c-.307-.226-.572-.422-.656-.482a12.985 12.985 0 00-1.377-.91.943.943 0 01-.539-.627 1.713 1.713 0 01.566-1.309 19.688 19.688 0 012.888-2.607c.477-.395.954-.811 1.418-1.235.261-.241.515-.492.753-.744a2.183 2.183 0 011.562-.839 1.833 1.833 0 01.826.213 5.151 5.151 0 011.186.881c.135.125.461.442.812.783h.005c.226.22.392.381.456.441a9.6 9.6 0 002.265 1.692l.333.165a30.032 30.032 0 00.035.2 31.41 31.41 0 01-.442-.217 9.7 9.7 0 01-2.3-1.718l-.36-.349c-.319-.31-.756-.735-.912-.878a5.158 5.158 0 00-1.148-.857 1.679 1.679 0 00-.754-.2 1.472 1.472 0 00-.713.192 2.958 2.958 0 00-.734.6c-.244.259-.5.512-.76.752-.379.352-.791.711-1.423 1.24a19.331 19.331 0 00-2.868 2.588c-.413.491-.587.874-.53 1.172a.78.78 0 00.456.522 12.913 12.913 0 011.394.921l.562.413.019.014c.4.3.907.668 1.12.822.658.484 1.348.939 2.05 1.355a6.413 6.413 0 003.051 1.057 2.474 2.474 0 00.825-.135l.687-.233h.009l.026-.009h.01c.837-.283 2.1-.71 2.632-.9.208-.075.393-.143.564-.208v.172a68.33 68.33 0 01-.507.186c-.521.187-1.763.607-2.585.884h-.019c-.416.14-.689.232-.762.258a2.636 2.636 0 01-.882.145zM.51 31.57v-.036-.069-.061a6.875 6.875 0 002.4-1.342 3.252 3.252 0 00.7-.89 2.19 2.19 0 00.251-1.007c0-.691-.431-1.183-1.281-1.46a4.467 4.467 0 00-1.308-.215.81.81 0 00-.105.013 3.174 3.174 0 00-.367.08v-.026l.02-.139a3.314 3.314 0 01.439-.082 5 5 0 011.367.224c.923.3 1.391.846 1.391 1.612a2.726 2.726 0 01-.995 2.014 7.067 7.067 0 01-2.505 1.392zm55.542-.163a3.612 3.612 0 01-1.753-.44 4.3 4.3 0 01-1.019-.787 7.894 7.894 0 01-.92-1.176 1.289 1.289 0 01.026-1.766 3.375 3.375 0 011.947-.75 3.639 3.639 0 01.433-.027 3.009 3.009 0 01.907.138 8.435 8.435 0 011.378.6 19.316 19.316 0 002.1.888c.895.317 1.406.66 1.52 1.019a.6.6 0 01-.111.539 6.246 6.246 0 01-2.846 1.465 5.3 5.3 0 01-1.664.297zm-1.3-4.789a2.934 2.934 0 00-.4.028 3.218 3.218 0 00-1.854.705c-.416.411-.417.938 0 1.564a7.674 7.674 0 00.895 1.148 4.143 4.143 0 00.987.763 3.465 3.465 0 001.679.421 5.127 5.127 0 001.611-.287 6.174 6.174 0 002.766-1.408.448.448 0 00.082-.406c-.1-.309-.561-.606-1.414-.91a19.636 19.636 0 01-2.118-.894 8.287 8.287 0 00-1.356-.592 2.94 2.94 0 00-.88-.131zm-32.391 4.029a.831.831 0 01-.671-.239.883.883 0 01-.112-.743 9.674 9.674 0 012.072-3.469 7.1 7.1 0 00.769-1.111 5.36 5.36 0 00.664-1.949 23.909 23.909 0 00.144-3.274 7.217 7.217 0 00-.435-2.373 10.726 10.726 0 00-1.225-2.407 13.219 13.219 0 00-1.9-2.238 13.505 13.505 0 00-2.457-1.843 7.2 7.2 0 00-1.726-.734 6.691 6.691 0 00-1.765-.235 10.16 10.16 0 00-4.4 1.161c-.384.185-.767.384-1.139.592l-.311.171c-.563.3-1.146.575-1.731.828l-.56.248-.015.007-.3.134-.023.01h-.005l-1.6.708-.019.009-.019.009.025-.038.143-.212.264-.117.622-.275.217-.1c.548-.242 1.065-.471 1.2-.533.815-.363 1.329-.609 1.72-.822l.311-.171.348-.188c.264-.141.517-.27.8-.407a10.326 10.326 0 014.472-1.179 6.88 6.88 0 013.557.988c3.539 2.063 6.107 5.852 6.107 9.009 0 2.99-.1 3.987-.827 5.3a7.247 7.247 0 01-.788 1.137 9.526 9.526 0 00-2.036 3.395.716.716 0 00.089.6.694.694 0 00.56.2 7.275 7.275 0 002.569-.808 9.369 9.369 0 004.547-4.2 12.886 12.886 0 00.973-2.415c.105-.349.332-1.2.44-1.608v-.01l.1-.374a4.652 4.652 0 01.279-.771 13.143 13.143 0 015.783-5.944 4.778 4.778 0 001.62-1.195 11.905 11.905 0 001.475-2.124l.316-.565.005-.01.019-.035c.187-.335.4-.716.479-.854a5.793 5.793 0 011.495-1.912 12.2 12.2 0 016.154-1.711l.068.049.136.1a18.776 18.776 0 00-3.645.546A7.911 7.911 0 0042.575 7.8a5.806 5.806 0 00-1.452 1.864 99.19 99.19 0 00-.434.774v.006c-.156.279-.317.568-.383.683-1.1 1.909-1.984 2.858-3.168 3.384a10.641 10.641 0 00-3.3 2.449 14.51 14.51 0 00-2.4 3.42 4.5 4.5 0 00-.27.745l-.078.292-.026.1v.012c-.125.471-.335 1.26-.435 1.6a13.046 13.046 0 01-.988 2.442 9.525 9.525 0 01-4.62 4.271 7.336 7.336 0 01-2.659.806zm2.96-2.92a.509.509 0 01-.489-.246c-.158-.3 0-.838.41-1.437a9.673 9.673 0 001.734-4.262 11.3 11.3 0 00.055-2.551 18.892 18.892 0 00-.525-3.019 8.345 8.345 0 00-1.91-3.6 12.383 12.383 0 00-3.557-2.656c-.6-.314-1.257-.617-2.073-.953a52.37 52.37 0 00-.957-.38l-.866-.332a3.427 3.427 0 00-1.241-.209 7.748 7.748 0 00-2.043.324 20.966 20.966 0 00-2.606.943c-.519.221-1.09.481-1.852.841l-1.537.736.007-.009.162-.187.1-.109.111-.053c.444-.213.9-.433 1.092-.522.718-.342 1.309-.61 1.859-.844a12.786 12.786 0 014.714-1.282 3.52 3.52 0 011.3.22l.866.335c.358.137.654.254.96.38.707.285 1.408.607 2.085.958 3.109 1.633 4.872 3.656 5.55 6.364 1.056 4.226.682 7.112-1.289 9.96-.383.555-.53 1.012-.4 1.255a.376.376 0 00.36.179h.052a4.028 4.028 0 002.41-2 6.628 6.628 0 00.651-1.343c.187-.506.382-1.152.633-2.094l.27-1.014c.1-.375.193-.7.292-1.037.833-2.8 1.83-4.408 3.44-5.549.749-.531 2.163-1.442 3.1-2.044h.008c.481-.31.861-.555.958-.624a6.231 6.231 0 002.288-2.873 5.961 5.961 0 012.612-2.987 6.9 6.9 0 011.974-.683 12.917 12.917 0 012.508-.215c.276 0 .551-.006.82-.019l.023.015.029.018.177.115c-.355.021-.7.031-1.049.031a12.819 12.819 0 00-2.465.21 6.769 6.769 0 00-1.934.664 5.175 5.175 0 00-1.47 1.172 6.74 6.74 0 00-1.076 1.731 6.388 6.388 0 01-2.345 2.953c-.092.066-.427.281-.89.58l-.065.042c-.938.6-2.355 1.516-3.108 2.05a7.184 7.184 0 00-2.034 2.183 13.933 13.933 0 00-1.364 3.273c-.087.3-.177.614-.29 1.033l-.27 1.014a11.606 11.606 0 01-1.3 3.481 6.31 6.31 0 01-1.3 1.486 2.36 2.36 0 01-1.236.586zm-13.1-3.717a5.2 5.2 0 01-2.426-.726 2.89 2.89 0 01-1.591-2.328 1.464 1.464 0 01.793-1.323c.242-.133.483-.278.715-.431l.324-.207c.2-.131.412-.254.625-.367a2.622 2.622 0 011.221-.331 2.7 2.7 0 011.013.216 2.152 2.152 0 011.35 1.548 5.424 5.424 0 01-.186 2.7 1.722 1.722 0 01-1.838 1.25zm-1.487-5.24c-.21.111-.416.232-.612.359l-.324.207-.052.033a11.579 11.579 0 01-.672.404 1.368 1.368 0 00-.537.514 1.337 1.337 0 00-.171.673 2.149 2.149 0 00.4 1.185 3.21 3.21 0 001.106 1 5.028 5.028 0 002.339.7 1.581 1.581 0 001.693-1.134 5.282 5.282 0 00.191-2.59 2.01 2.01 0 00-1.259-1.464 2.564 2.564 0 00-.953-.2 2.452 2.452 0 00-1.148.315zm1.361 3.575a3.112 3.112 0 01-1.34-.334l-.3-.15c-.1-.049-.179-.094-.26-.14a.844.844 0 01-.473-.531c-.057-.282.1-.645.527-1.214a2.208 2.208 0 011.74-.909 1.611 1.611 0 011.113.415 1.633 1.633 0 01.481 1.229 1.421 1.421 0 01-1.059 1.59 1.92 1.92 0 01-.429.044zm-.071-3.113a2.106 2.106 0 00-1.649.839c-.4.535-.545.848-.5 1.079.032.159.151.288.4.432.064.037.136.075.254.136l.3.148a2.955 2.955 0 001.271.319 1.756 1.756 0 00.391-.041c.62-.143.935-.626.935-1.436a1.571 1.571 0 00-.318-1.011 1.3 1.3 0 00-.85-.45 1.749 1.749 0 00-.233-.014zm47.285.338a49.116 49.116 0 00-.285-.7c.1.229.194.463.286.7zm-30.583-3.593c-.363 0-.694-.279-1.042-.879-.073-.126-.3-.607-.55-1.118-.388-.807-.871-1.811-1.129-2.262a8.18 8.18 0 00-3.127-3.272 12.313 12.313 0 00-2.935-1.162 20.223 20.223 0 00-2.457-.463 6.618 6.618 0 01-2.254-.608 2.864 2.864 0 01-1.007-.885l.011-.007.083-.054.009-.006.009-.006.019-.013a2.706 2.706 0 00.949.831 6.518 6.518 0 002.2.592 21.034 21.034 0 012.473.466 12.5 12.5 0 012.97 1.177 8.311 8.311 0 013.187 3.335c.263.457.755 1.478 1.149 2.3l.011.023c.253.526.452.941.519 1.056.32.552.6.8.905.8a1.28 1.28 0 00.832-.479 8.23 8.23 0 011.337-1.077c.493-.326 1.1-.675 2.034-1.167l.057-.03c.1-.051.272-.145.28-.147a16.517 16.517 0 002.532-1.523 5.109 5.109 0 001.718-2.093 12.774 12.774 0 012.4-3.87 4.026 4.026 0 012.78-1.447h.877c.453 0 .841.005 1.186.005h.736l.284.157c-.315 0-.648.006-1.019.006-.344 0-.733 0-1.189-.005h-.876a2.868 2.868 0 00-1.352.369 5.411 5.411 0 00-1.333 1.049 12.661 12.661 0 00-2.348 3.8 5.267 5.267 0 01-1.768 2.158 16.823 16.823 0 01-2.554 1.536l-.338.179c-.923.488-1.526.834-2.016 1.156a8.081 8.081 0 00-1.318 1.062 1.435 1.435 0 01-.934.516zm.364-3.821a1.782 1.782 0 01-.747-.16 2.649 2.649 0 01-.725-.509 11.08 11.08 0 01-1.647-2.233 3.592 3.592 0 00-1.056-1.05 10.851 10.851 0 00-1.812-.971c-.285-.126-.963-.4-1.508-.621l-.059-.024a34.515 34.515 0 01-.73-.3 3.484 3.484 0 01-.846-.47.426.426 0 01-.178-.464c.054-.188.266-.347.666-.5a11.522 11.522 0 011.8-.468 23.472 23.472 0 014.778-.535c.487 0 1.007.017 1.592.053s.934.055 1.214.055a3.023 3.023 0 00.818-.1 3.171 3.171 0 00.957-.415l.445-.273a21.615 21.615 0 012.76-1.58 3.791 3.791 0 011.5-.4 1.419 1.419 0 01.723.178 2.655 2.655 0 01.665.5 1.136 1.136 0 01.293.593 4.135 4.135 0 01-.41 1.977 5.449 5.449 0 01-1.139 1.82l-.415.474a10.26 10.26 0 00-.419.516 7.4 7.4 0 00-.747 1.2 5.622 5.622 0 01-2.05 2.217 13.224 13.224 0 01-2.5 1.212 3.311 3.311 0 01-1.222.278zm-2.059-7.988a23.154 23.154 0 00-4.723.531 11.943 11.943 0 00-1.721.439c-.294.11-.483.224-.506.3-.029.1.288.308.846.552.1.046.461.191.84.344.466.188 1.171.473 1.46.6a6.312 6.312 0 013.014 2.148 11.331 11.331 0 001.54 2.123 1.829 1.829 0 001.32.625 2.984 2.984 0 001.093-.258 13.114 13.114 0 002.446-1.184 5.332 5.332 0 001.938-2.091 7.6 7.6 0 01.775-1.248c.139-.182.285-.36.434-.532l.415-.474a5.093 5.093 0 001.08-1.722 4.141 4.141 0 00.4-1.769c-.061-.407-.355-.65-.809-.909a1.126 1.126 0 00-.566-.136 3.488 3.488 0 00-1.367.372 21.912 21.912 0 00-2.723 1.559l-.445.277a3.6 3.6 0 01-1.048.453 3.347 3.347 0 01-.885.1c-.286 0-.658-.019-1.243-.055s-1.084-.045-1.564-.045zm3.143 4.215a1.2 1.2 0 01-1.357-1.04 1.486 1.486 0 01.333-1.137.838.838 0 01.622-.309 1.533 1.533 0 00.822-.283c.362-.219.852-.583 1.631-1.179l.03-.022c.215-.164.385-.293.55-.411a5.978 5.978 0 011.726-.97 5.192 5.192 0 011.387-.27 1.027 1.027 0 01.424.075.429.429 0 01.248.27 1.638 1.638 0 01-.374 1.16 8.357 8.357 0 01-5.313 4.028 3.255 3.255 0 01-.728.087zm5.752-5.466a5.114 5.114 0 00-1.344.263 5.943 5.943 0 00-1.677.945 32.63 32.63 0 00-.582.437c-1.58 1.211-2 1.494-2.549 1.494a.683.683 0 00-.5.257 1.313 1.313 0 00-.294 1.01.947.947 0 00.352.659 1.334 1.334 0 00.838.242 3.119 3.119 0 00.706-.091 8.209 8.209 0 005.215-3.954c.3-.485.416-.82.354-1.024a.282.282 0 00-.161-.178.864.864 0 00-.357-.06zm-15.405.266a9.761 9.761 0 01-1.911-.262l.264-.116a8.38 8.38 0 001.647.218 18.337 18.337 0 002.569-.131c.871-.114 1.935-.33 3.477-.666.751-.163 1.462-.3 2.238-.442.452-.08 1.757-.3 1.835-.316.77-.134 1.288-.237 1.787-.356A16.929 16.929 0 0034.45.504l-.07-.008.07.008.342.041-.2.078a17.11 17.11 0 01-2.125.643c-.5.119-1.019.222-1.795.358l-.479.083h-.008l-.049.008c-.436.075-1.033.177-1.3.225-.8.143-1.51.283-2.234.44a22.4 22.4 0 01-6.08.802z" />
</svg>