<svg xmlns="http://www.w3.org/2000/svg" xmlns:xlink="http://www.w3.org/1999/xlink" width="37" height="239" viewBox="0 0 37 239"><defs><style>.a{fill:none;}.b{opacity:0.5;clip-path:url(#a);}.c{fill:#02c39a;}</style><clipPath id="a"><rect class="a" width="37" height="239"/></clipPath></defs><g class="b"><g transform="translate(1680 3127)"><circle class="c" cx="3" cy="3" r="3" transform="translate(-1680 -3127)"/></g><g transform="translate(1694 3127)"><circle class="c" cx="3" cy="3" r="3" transform="translate(-1680 -3127)"/></g><g transform="translate(1708 3127)"><circle class="c" cx="3" cy="3" r="3" transform="translate(-1680 -3127)"/></g><g transform="translate(1680 3143)"><circle class="c" cx="3" cy="3" r="3" transform="translate(-1680 -3127)"/></g><g transform="translate(1694 3143)"><circle class="c" cx="3" cy="3" r="3" transform="translate(-1680 -3127)"/></g><g transform="translate(1708 3143)"><circle class="c" cx="3" cy="3" r="3" transform="translate(-1680 -3127)"/></g><g transform="translate(1680 3159)"><circle class="c" cx="3" cy="3" r="3" transform="translate(-1680 -3127)"/></g><g transform="translate(1694 3159)"><circle class="c" cx="3" cy="3" r="3" transform="translate(-1680 -3127)"/></g><g transform="translate(1708 3159)"><circle class="c" cx="3" cy="3" r="3" transform="translate(-1680 -3127)"/></g><g transform="translate(1680 3175)"><circle class="c" cx="3" cy="3" r="3" transform="translate(-1680 -3127)"/></g><g transform="translate(1694 3175)"><circle class="c" cx="3" cy="3" r="3" transform="translate(-1680 -3127)"/></g><g transform="translate(1708 3175)"><circle class="c" cx="3" cy="3" r="3" transform="translate(-1680 -3127)"/></g><g transform="translate(1680 3191)"><circle class="c" cx="3" cy="3" r="3" transform="translate(-1680 -3127)"/></g><g transform="translate(1694 3191)"><circle class="c" cx="3" cy="3" r="3" transform="translate(-1680 -3127)"/></g><g transform="translate(1708 3191)"><circle class="c" cx="3" cy="3" r="3" transform="translate(-1680 -3127)"/></g><g transform="translate(1680 3207)"><circle class="c" cx="3" cy="3" r="3" transform="translate(-1680 -3127)"/></g><g transform="translate(1694 3207)"><circle class="c" cx="3" cy="3" r="3" transform="translate(-1680 -3127)"/></g><g transform="translate(1708 3207)"><circle class="c" cx="3" cy="3" r="3" transform="translate(-1680 -3127)"/></g><g transform="translate(1680 3223)"><circle class="c" cx="3" cy="3" r="3" transform="translate(-1680 -3127)"/></g><g transform="translate(1694 3223)"><circle class="c" cx="3" cy="3" r="3" transform="translate(-1680 -3127)"/></g><g transform="translate(1708 3223)"><circle class="c" cx="3" cy="3" r="3" transform="translate(-1680 -3127)"/></g><g transform="translate(1680 3239)"><circle class="c" cx="3" cy="3" r="3" transform="translate(-1680 -3127)"/></g><g transform="translate(1694 3239)"><circle class="c" cx="3" cy="3" r="3" transform="translate(-1680 -3127)"/></g><g transform="translate(1708 3239)"><circle class="c" cx="3" cy="3" r="3" transform="translate(-1680 -3127)"/></g><g transform="translate(1680 3255)"><circle class="c" cx="3" cy="3" r="3" transform="translate(-1680 -3127)"/></g><g transform="translate(1694 3255)"><circle class="c" cx="3" cy="3" r="3" transform="translate(-1680 -3127)"/></g><g transform="translate(1708 3255)"><circle class="c" cx="3" cy="3" r="3" transform="translate(-1680 -3127)"/></g><g transform="translate(1680 3271)"><circle class="c" cx="3" cy="3" r="3" transform="translate(-1680 -3127)"/></g><g transform="translate(1694 3271)"><circle class="c" cx="3" cy="3" r="3" transform="translate(-1680 -3127)"/></g><g transform="translate(1708 3271)"><circle class="c" cx="3" cy="3" r="3" transform="translate(-1680 -3127)"/></g><g transform="translate(1680 3287)"><circle class="c" cx="3" cy="3" r="3" transform="translate(-1680 -3127)"/></g><g transform="translate(1694 3287)"><circle class="c" cx="3" cy="3" r="3" transform="translate(-1680 -3127)"/></g><g transform="translate(1708 3287)"><circle class="c" cx="3" cy="3" r="3" transform="translate(-1680 -3127)"/></g><g transform="translate(1680 3303)"><circle class="c" cx="3" cy="3" r="3" transform="translate(-1680 -3127)"/></g><g transform="translate(1694 3303)"><circle class="c" cx="3" cy="3" r="3" transform="translate(-1680 -3127)"/></g><g transform="translate(1708 3303)"><circle class="c" cx="3" cy="3" r="3" transform="translate(-1680 -3127)"/></g><g transform="translate(1680 3319)"><circle class="c" cx="3" cy="3" r="3" transform="translate(-1680 -3127)"/></g><g transform="translate(1694 3319)"><circle class="c" cx="3" cy="3" r="3" transform="translate(-1680 -3127)"/></g><g transform="translate(1708 3319)"><circle class="c" cx="3" cy="3" r="3" transform="translate(-1680 -3127)"/></g><g transform="translate(1680 3335)"><circle class="c" cx="3" cy="3" r="3" transform="translate(-1680 -3127)"/></g><g transform="translate(1694 3335)"><circle class="c" cx="3" cy="3" r="3" transform="translate(-1680 -3127)"/></g><g transform="translate(1708 3335)"><circle class="c" cx="3" cy="3" r="3" transform="translate(-1680 -3127)"/></g><g transform="translate(1680 3351)"><circle class="c" cx="3" cy="3" r="3" transform="translate(-1680 -3127)"/></g><g transform="translate(1694 3351)"><circle class="c" cx="3" cy="3" r="3" transform="translate(-1680 -3127)"/></g><g transform="translate(1708 3351)"><circle class="c" cx="3" cy="3" r="3" transform="translate(-1680 -3127)"/></g></g></svg>