<svg xmlns="http://www.w3.org/2000/svg" width="132.95" height="132.779" viewBox="0 0 132.95 132.779"><defs><style>.a{fill:#ebcb8b;stroke:#fab631;opacity:0.4;}</style></defs><path class="a" d="M146.077,188.2h0l-.2,0-.074,0-.118,0c.477-.837.995-1.811,1.538-2.894.654-1.307,1.371-2.822,2.193-4.631.091-.2.395-.885.7-1.569v0c.963-2.175,3.218-7.269,3.786-8.434a18.208,18.208,0,0,0,1.381-5.623,43.121,43.121,0,0,1,.971-5.3,15.552,15.552,0,0,1,5.641-8.86,25.3,25.3,0,0,1,4.59-2.89c.54-.26,1.081-.493,1.755-.755.194-.074.617-.231,1.006-.375l.111-.041.36-.134a6.452,6.452,0,0,0,3.5-2.536,15.073,15.073,0,0,0,1.4-2.551,9.731,9.731,0,0,0,.94-5.849,9.479,9.479,0,0,1-.093-1.585,4.462,4.462,0,0,1,.949-2.519,15.283,15.283,0,0,1,3.091-2.914,9.558,9.558,0,0,0,3.092-3.476,3.608,3.608,0,0,0,.317-1.592,3.493,3.493,0,0,0-.431-1.508,6.323,6.323,0,0,0-1.68-1.938,20.921,20.921,0,0,0-3-1.928,5.449,5.449,0,0,0-2.218-.544c-.258-.023-.437-.033-.915-.06l-.067,0-.036,0c-1.973-.1-2.635-.284-2.667-1.156-.034-.975,1.241-2.757,4.135-5.776a66.852,66.852,0,0,1,5.64-5.347c.567-.466,1.12-.9,1.8-1.395l1.424-1.018c.222-.163.482-.356.725-.55a20.487,20.487,0,0,0,3.527-3.786c.326-.43.609-.806.863-1.149l.8-1.07c.609-.81,1.046-1.38,1.482-1.9,2.905-3.495,5.895-4.771,12.3-5.254l-.077-.133c.026.044.052.089.077.133l.129.227.058.1a23.724,23.724,0,0,0-7.572,1.508,11.975,11.975,0,0,0-4.655,3.637c-.506.615-1,1.249-1.469,1.883L190.3,97.7l-.867,1.149a20.539,20.539,0,0,1-3.589,3.849c-.234.188-.468.366-.736.561l-1.42,1.017c-.6.438-1.2.9-1.782,1.381a66.736,66.736,0,0,0-5.613,5.323c-2.786,2.9-4.07,4.656-4.042,5.52.013.3.167.472.514.591a7.536,7.536,0,0,0,1.831.232h.024l.047,0c.5.028.684.039.959.065a5.739,5.739,0,0,1,2.352.581,21.211,21.211,0,0,1,3.078,1.982,6.633,6.633,0,0,1,1.741,2.026,3.726,3.726,0,0,1,.147,3.346A9.769,9.769,0,0,1,179.722,129a15.087,15.087,0,0,0-3,2.811,4.18,4.18,0,0,0-.908,2.367,9,9,0,0,0,.089,1.533,11.339,11.339,0,0,1,0,2.975,11.46,11.46,0,0,1-.968,3.053,15.344,15.344,0,0,1-1.437,2.606,6.44,6.44,0,0,1-1.531,1.593A9.124,9.124,0,0,1,169.84,147l-.072.027-.153.057h-.007c-.322.119-.992.367-1.243.465-.6.228-1.152.463-1.731.741a24.652,24.652,0,0,0-4.525,2.852,14.475,14.475,0,0,0-3.5,3.818,17.216,17.216,0,0,0-2.023,4.854,43.426,43.426,0,0,0-.967,5.264c-.235,1.609-.421,2.648-.621,3.473a10.664,10.664,0,0,1-.789,2.255c-.548,1.121-2.679,5.933-3.7,8.246l0,0-.067.151,0,.005c-.345.78-.618,1.4-.706,1.588-.7,1.55-1.439,3.112-2.2,4.641-.513,1.024-1,1.949-1.455,2.75Zm4.177-.053h0a35.061,35.061,0,0,1,6.09-12.328,16.634,16.634,0,0,0,3.585-6.586,12.567,12.567,0,0,0,.256-4.475,12.382,12.382,0,0,1-.083-1.288,16.5,16.5,0,0,1,.559-4.88c.829-2.893,2.544-4.686,5.1-5.326a18.073,18.073,0,0,0,3.817-1.519,35.866,35.866,0,0,0,4.128-2.539,46.124,46.124,0,0,0,7.513-6.615c3.4-3.785,11.855-8.019,18.09-8.019a11.438,11.438,0,0,0,5.272-1.409c.644-.321,1.323-.7,2.269-1.25l.187-.111.138-.082,0,0c.544-.322,1.675-.993,2.087-1.23a39.187,39.187,0,0,1,3.723-1.911l-.027.275-.01.1,0,.016v0a38.856,38.856,0,0,0-3.511,1.816c-.525.3-2.4,1.412-2.412,1.421l0,0c-1,.586-1.662.953-2.291,1.266a11.809,11.809,0,0,1-5.427,1.443,19.323,19.323,0,0,0-4.788.683,31.393,31.393,0,0,0-5.028,1.8,25.088,25.088,0,0,0-8.018,5.42,46.359,46.359,0,0,1-7.584,6.682,25.922,25.922,0,0,1-8.046,4.1,6.192,6.192,0,0,0-3.1,1.79,8.011,8.011,0,0,0-1.751,3.294,16.233,16.233,0,0,0-.545,4.783,11.956,11.956,0,0,0,.083,1.257,12.764,12.764,0,0,1-.266,4.589,16.893,16.893,0,0,1-3.658,6.724,27.292,27.292,0,0,0-3.427,5.428,42.443,42.443,0,0,0-2.56,6.663l-.112.005-.1,0-.156.007Zm-7.615-.1h0l-.246-.017-.118-.009a39.145,39.145,0,0,0,2.368-7.514,37.976,37.976,0,0,0,.947-7.692,16.368,16.368,0,0,1,.353-2.862c.136-.811.2-1.271.255-1.755.228-1.989.049-3.312-.579-4.288a4.886,4.886,0,0,0-2.6-1.825,13.466,13.466,0,0,0-4.394-.633,27.479,27.479,0,0,0-6.292.8,34.789,34.789,0,0,0-6.543,2.181c-1.727.793-5.689,3.242-5.707,3.257a8.957,8.957,0,0,1-1.987.808,8.5,8.5,0,0,1-2.2.272,18.866,18.866,0,0,1-4.372-.634,56.777,56.777,0,0,1-6.151-1.712c-1.435-.543-2.174-1.086-2.4-1.759a2.778,2.778,0,0,1,.575-2.258,32.173,32.173,0,0,1,2.7-3.55,88.383,88.383,0,0,1,10.8-10.707c4.031-3.352,7.195-5.275,8.678-5.275a25.774,25.774,0,0,0,4.416-.68c1.94-.415,4.251-.986,6.683-1.651a79.453,79.453,0,0,0,11.623-3.881,14.69,14.69,0,0,0,2.759-1.926,41.789,41.789,0,0,0,3.207-3.074,92.373,92.373,0,0,0,6.753-8.1c.07-.094.492-.762,1.076-1.687l.041-.065,0-.005c1.538-2.438,4.113-6.519,5.512-8.486,3.389-4.768,6.434-7.884,9.309-9.527a16.127,16.127,0,0,0,3.461-2.686,25.1,25.1,0,0,0,3.034-3.8c.238-.358.77-1.241,1.385-2.262l.042-.07,0,0c1.106-1.836,2.483-4.122,2.968-4.729a4.362,4.362,0,0,1,1.561-1.346,30.161,30.161,0,0,1,12.885-3.123l-.033-.049-.011-.017.009.013.034.052.157.24.067.1a27.893,27.893,0,0,0-6.559.786,38.061,38.061,0,0,0-6.412,2.313,4.083,4.083,0,0,0-1.43,1.246c-.472.586-1.83,2.841-2.922,4.654l0,.007c-.646,1.073-1.2,2-1.454,2.375a19.876,19.876,0,0,1-6.608,6.589c-2.832,1.622-5.841,4.706-9.2,9.427-1.366,1.921-3.9,5.943-5.421,8.346l0,0-.031.05c-.642,1.017-1.106,1.751-1.184,1.854a92.644,92.644,0,0,1-6.8,8.156,25.017,25.017,0,0,1-6.041,5.047,79.726,79.726,0,0,1-11.694,3.907c-2.45.669-4.775,1.242-6.723,1.658a25.982,25.982,0,0,1-4.457.683c-1.418,0-4.522,1.912-8.517,5.246a88.574,88.574,0,0,0-10.7,10.612,36.189,36.189,0,0,0-2.618,3.385,2.571,2.571,0,0,0-.585,2.1c.422,1.28,2.991,1.953,8.295,3.237a18.473,18.473,0,0,0,4.28.625h.006a7.975,7.975,0,0,0,4.029-1.036h0c0-.013,1-.63,2.2-1.337.893-.527,2.539-1.479,3.528-1.934a35.1,35.1,0,0,1,6.6-2.2,27.794,27.794,0,0,1,6.37-.813,13.732,13.732,0,0,1,4.559.671,5.173,5.173,0,0,1,2.73,1.949c.672,1.041.868,2.433.636,4.513-.07.585-.157,1.182-.259,1.775a16.358,16.358,0,0,0-.349,2.8A43.191,43.191,0,0,1,142.64,188.045ZM154,187.874h0c.386-1.048.816-2.064,1.281-3.022a26.389,26.389,0,0,1,3.6-5.745,20.527,20.527,0,0,1,1.5-1.578c.106-.1,1.026-.959,1.267-1.194a7.041,7.041,0,0,0,2.038-3.484,26.871,26.871,0,0,0,.556-6.614c0-6.48.971-8.215,5.466-9.774.381-.129.67-.234.956-.339a17.687,17.687,0,0,0,2.107-.934,18.494,18.494,0,0,0,4.988-3.952c8.9-9.666,12.909-12.168,19.473-12.168a13.564,13.564,0,0,0,3.905-.525,16.4,16.4,0,0,0,3.694-1.655c.221-.128.876-.543,1.778-1.116l.049-.031c1.478-.937,3.5-2.22,4.446-2.754.465-.262.943-.519,1.422-.763l-.018.118,0,.013-.02.125-.019.123,0,.021,0,.021c-.4.206-.8.422-1.187.643-.956.542-3.075,1.886-4.478,2.776h0l-.183.116c-.78.494-1.4.885-1.607,1.007a14.343,14.343,0,0,1-7.772,2.225,16.787,16.787,0,0,0-4.522.549,15.591,15.591,0,0,0-4.249,1.919c-2.732,1.724-5.758,4.5-10.445,9.59a18.934,18.934,0,0,1-5.078,4.021,18.021,18.021,0,0,1-2.152.952c-.3.112-.579.212-1.855.647-1.816.631-2.6,1.166-3.206,2.2-.786,1.335-1.136,3.475-1.136,6.94,0,6.041-.579,8.265-2.694,10.344-.15.146-.546.516-.874.822-.2.182-.35.327-.4.375a20.246,20.246,0,0,0-1.478,1.554A26.031,26.031,0,0,0,155.594,185c-.445.921-.852,1.874-1.21,2.834l-.382.04Zm-14.913-.175h0l-.282-.036-.081-.011a15.269,15.269,0,0,0,1.337-5.843c0-1.278.262-2.3,1.161-5.139.178-.565.288-.925.4-1.291a11.882,11.882,0,0,0,.68-5.107,4.532,4.532,0,0,0-2.162-3.2,8.019,8.019,0,0,0-3.447-1.309,9.145,9.145,0,0,0-1.162-.074,11.273,11.273,0,0,0-3.314.538,24.467,24.467,0,0,0-3.783,1.571c-.293.147-.955.492-1.54.8l-.25.13,0,0-.018.009c-.35.182-.69.36-.815.423-.487.247-.968.515-1.43.8l-1.52.92c-3.067,1.83-5.33,2.576-7.812,2.576a14.4,14.4,0,0,1-3.522-.472c-1.116-.283-2.062-.467-4.525-.914-1.638-.3-2.78-.519-3.7-.724l.158.14-.158-.14-.043-.039-.031-.028-.332-.3-.12-.11c1.045.25,2.354.512,4.378.876,1.482.244,2.984.547,4.463.9a14.071,14.071,0,0,0,3.44.462,11.389,11.389,0,0,0,3.739-.641,20.65,20.65,0,0,0,3.9-1.884l1.52-.917c.588-.355,1.035-.606,1.45-.814.137-.069.545-.281.9-.468l.01-.005c.618-.321,1.387-.721,1.71-.883a16.3,16.3,0,0,1,7.248-2.148,9.417,9.417,0,0,1,1.211.078,8.361,8.361,0,0,1,3.592,1.36c2.558,1.708,3,4.065,1.624,8.7-.107.358-.212.7-.4,1.295-.872,2.759-1.144,3.813-1.144,5.035a15.517,15.517,0,0,1-1.327,5.889Zm19.972-.534h0a24.483,24.483,0,0,1,1.8-2.119,39.847,39.847,0,0,1,4.086-3.734,11.464,11.464,0,0,0,2.6-2.6,2.051,2.051,0,0,0,.329-1.059,26.848,26.848,0,0,0-.255-3.147l0-.048c-.112-1.152-.194-2.12-.235-3.1a14.049,14.049,0,0,1,.5-5.055,3.644,3.644,0,0,1,2.306-2.476,23.832,23.832,0,0,0,6.857-3.363,16.833,16.833,0,0,0,4.7-5.476,30.463,30.463,0,0,1,2.823-4.165,28.535,28.535,0,0,1,3.284-3.475c2.372-2.105,4.6-3.264,6.283-3.264a19.15,19.15,0,0,0,5.462-.635,14.992,14.992,0,0,0,4.7-2.41c2.382-1.737,3.308-2.292,4.308-2.582a8.857,8.857,0,0,1,2.735-.256c-.064.256-.122.483-.177.694a8.012,8.012,0,0,0-2.364.226c-.922.27-1.8.8-4.093,2.475a15.641,15.641,0,0,1-4.9,2.515,19.794,19.794,0,0,1-5.664.665,5.952,5.952,0,0,0-2.741.856,17.054,17.054,0,0,0-3.161,2.306,28.332,28.332,0,0,0-3.158,3.363,29.837,29.837,0,0,0-2.731,4.027c-2.57,4.579-5.916,7.146-11.934,9.157-1.757.587-2.5,2.763-2.332,6.846.034.865.1,1.723.236,3.059l.016.166a26.288,26.288,0,0,1,.243,3.1,2.7,2.7,0,0,1-.428,1.415,11.849,11.849,0,0,1-2.743,2.769,40,40,0,0,0-4.031,3.679c-.44.462-.869.951-1.276,1.453l.076-.016-.076.016-.4.077c-.205.039-.416.078-.628.116Zm8.533-2.136h0c3.223-3.538,4.6-6.571,4.6-10.141a13.288,13.288,0,0,0-.339-2.827,8.527,8.527,0,0,1-.335-2.62,3.322,3.322,0,0,1,1.23-2.325,15.046,15.046,0,0,1,4.739-2.426,12.386,12.386,0,0,0,4.319-2.579,29.321,29.321,0,0,0,4.075-4.886l.615-.865a27.234,27.234,0,0,1,3.6-4.423,12.061,12.061,0,0,1,2.35-1.76,10.633,10.633,0,0,1,2.673-1.067,58.343,58.343,0,0,0,8.754-2.644,17.026,17.026,0,0,0,1.824-.935c.381-.225.606-.36,1.465-.9a5,5,0,0,1,2.459-.711l-.007.02-.1.295-.01.028-.006.018a4.543,4.543,0,0,0-2.152.644c-.489.313-.983.617-1.468.9a17.574,17.574,0,0,1-1.862.952,58.426,58.426,0,0,1-8.809,2.665,9.945,9.945,0,0,0-4.292,2.2,26.977,26.977,0,0,0-4.137,4.917l-.611.865a29.583,29.583,0,0,1-4.143,4.957,12.708,12.708,0,0,1-4.417,2.633,14.815,14.815,0,0,0-4.629,2.36,2.947,2.947,0,0,0-1.112,2.09,8.313,8.313,0,0,0,.329,2.526,13.548,13.548,0,0,1,.345,2.9c0,3.528-1.283,6.5-4.291,9.927l-.427.141-.224.073Zm-42.862-.8h0c-.215-.078-.431-.159-.643-.238l-.372-.142a3.236,3.236,0,0,0-.942-1.063A14.68,14.68,0,0,0,117.329,181l.109.055-.109-.055c-.255-.131-.51-.263-.758-.395-.363-.192-.73-.39-1.09-.59,3.734.491,6.174,1.19,7.677,2.2a4.918,4.918,0,0,1,1.574,2.018Zm50.307-2.123h0c1.293-2.14,1.74-3.625,2.431-7a10.333,10.333,0,0,1,.96-3.07A5.066,5.066,0,0,1,179.7,170.6c.237-.2,1.02-.768,1.778-1.317l0,0,.025-.018c.868-.63,1.852-1.343,2.273-1.687a17.683,17.683,0,0,0,1.589-1.461,30.352,30.352,0,0,0,3.536-5.022c.67-1.083,1.385-2.155,2.125-3.184A8.39,8.39,0,0,1,194.061,155a38.223,38.223,0,0,1,3.869-1.4c.546-.167,1.08-.325,1.786-.526.552-.152,1.112-.31,1.665-.471a16.668,16.668,0,0,0,4.4-1.741,6.662,6.662,0,0,1,1.248-.6l-.021.045-.2.411a6,6,0,0,0-.851.431,16.706,16.706,0,0,1-4.484,1.783l-.823.232c-.874.238-1.757.494-2.625.761a38.264,38.264,0,0,0-3.834,1.392,8.212,8.212,0,0,0-2.891,2.792c-.734,1.023-1.443,2.088-2.107,3.167a30.824,30.824,0,0,1-3.578,5.077A18.806,18.806,0,0,1,184,167.846c-.431.35-1.427,1.073-2.306,1.71l-.052.038-.093.067c-.727.527-1.414,1.026-1.625,1.2a4.846,4.846,0,0,0-1.186,1.336,10.141,10.141,0,0,0-.926,2.976,35.457,35.457,0,0,1-.924,3.782,14.612,14.612,0,0,1-1.29,2.892l.478-.23c-.158.078-.319.155-.478.23l-.027.013-.19.09-.336.157Zm6.89-3.714h0a34.983,34.983,0,0,1,5.431-5.269c3.82-3.275,5.341-4.768,6.263-6.621.221-.443.427-.912.667-1.522.182-.482.356-.954.515-1.4a8.07,8.07,0,0,1,2.5-3.868,14.258,14.258,0,0,1,5.413-2.3l.35-.09.118-.03-.063.1-.007.011-.038.06-.117.183-.045.07-.1.027a13.416,13.416,0,0,0-5.682,2.6,5.6,5.6,0,0,0-1.112,1.365,12.154,12.154,0,0,0-.881,1.993l-.518,1.409c-.2.522-.427,1.042-.677,1.547-.952,1.911-2.491,3.425-6.349,6.732a46.558,46.558,0,0,0-4.756,4.437l0,0-.056.036c-.23.147-.463.294-.693.437ZM97.605,165.565h0l-.261-.3a8.411,8.411,0,0,1,.6-1.194,32.239,32.239,0,0,1,4.988-6.34c.921-.913,1.888-1.8,2.874-2.651,0,0,.056-.05.319-.277l.277-.239c.844-.729,1.754-1.516,2.106-1.827a29.738,29.738,0,0,0,2.246-2.19c1.457-1.6,2.51-2.692,3.52-3.636a32.99,32.99,0,0,1,3.416-2.792,33.614,33.614,0,0,1,12.152-5.392c6.953-1.625,10.992-2.652,13.943-3.545a23.951,23.951,0,0,0,6.378-2.66c1.471-.982,3.309-3.111,5.464-6.329a133.584,133.584,0,0,0,7.262-12.639,28.186,28.186,0,0,1,7.3-8.9,51.536,51.536,0,0,1,6.062-4.233c2.536-1.582,3.311-2.112,3.93-2.824a7.288,7.288,0,0,0,1.019-1.686c.208-.444.958-2.162,1.037-2.343a25.958,25.958,0,0,1,1.364-2.675c2.373-3.994,5.819-6.281,10.847-7.2a49.824,49.824,0,0,1,6.006-.782l.243.333a48.041,48.041,0,0,0-6.191.8,16.385,16.385,0,0,0-6.427,2.476,13.993,13.993,0,0,0-4.181,4.553,25.294,25.294,0,0,0-1.347,2.641c-.052.122-.826,1.9-1.04,2.35a7.624,7.624,0,0,1-1.071,1.765c-.651.747-1.439,1.287-4.007,2.89a51.722,51.722,0,0,0-6.024,4.2,27.9,27.9,0,0,0-7.216,8.791,133.314,133.314,0,0,1-7.3,12.708c-2.17,3.237-4.032,5.387-5.536,6.392-2.669,1.783-7.063,3.127-20.439,6.253A33.213,33.213,0,0,0,117.89,144.4a32.431,32.431,0,0,0-3.385,2.767c-1.009.942-2.054,2.022-3.5,3.612a29.654,29.654,0,0,1-2.269,2.215c-.228.2-.867.76-2.62,2.267l-.008.007-.081.07c-1.181,1.028-2.035,1.816-2.854,2.637a31.908,31.908,0,0,0-4.929,6.275,7.8,7.8,0,0,0-.644,1.315Zm20.06-2.3a8.913,8.913,0,0,1-5.5-2.08c-.86-.618-.957-1.5-.287-2.637a14.981,14.981,0,0,1,2.791-3.1l.615-.568.122-.112c1.247-1.147,1.438-1.323,1.916-1.8a9.861,9.861,0,0,0,1.893-2.641,6.256,6.256,0,0,1,2.166-2.443,14.749,14.749,0,0,1,3.261-1.533c1.231-.435,2.894-.906,5.561-1.575.424-.106,1.8-.444,3.055-.752l.02,0,.453-.111c1.426-.349,2.9-.711,3.575-.88,3.558-.9,6.187-1.651,8.275-2.372a22.072,22.072,0,0,0,4.931-2.248,52.029,52.029,0,0,0,8.6-7.756,43.7,43.7,0,0,0,6.537-8.786c.747-1.5,1.535-2.165,2.553-2.165l.1,0a4.222,4.222,0,0,1,1.492.415c.413.179.825.377,1.223.588l.435.217a9.357,9.357,0,0,0,4.37,1.191,3.292,3.292,0,0,1,2.764.945,1.9,1.9,0,0,1,.12,1.792,9.139,9.139,0,0,1-3.835,4.16,7.6,7.6,0,0,0-3.1,4.344,23.634,23.634,0,0,0-.954,7.274,3.494,3.494,0,0,1-1.375,2.894,9.924,9.924,0,0,1-2.926,1.439l-.352.128a7.517,7.517,0,0,0-3,1.544,9.85,9.85,0,0,1-7.029,2.474c-.46,0-.833.291-1.378,1.073-.1.144-.46.681-.507.754a5.622,5.622,0,0,1-1.354,1.5,2.656,2.656,0,0,1-1.6.481c-2.712,0-3.7.314-7.517,2.4a9.557,9.557,0,0,1-5.064,1.274c-.091,0-.163,0-.318.007a11.143,11.143,0,0,0-3.631.464,25.344,25.344,0,0,0-3.071,1.232c-.309.143-1.155.542-3.426,1.633l-.055.026,0,0-.052.025a40.955,40.955,0,0,1-6.526,2.619A14.514,14.514,0,0,1,117.665,163.266Zm15.342-18.829h0c-1.146.28-2.331.57-2.726.67-2.588.647-4.293,1.129-5.527,1.564a14.3,14.3,0,0,0-3.185,1.5,5.96,5.96,0,0,0-2.058,2.329,10.152,10.152,0,0,1-1.949,2.71c-.482.487-.679.667-1.958,1.841l-.015.014-.079.072-.611.564a14.847,14.847,0,0,0-2.729,3.028,2.2,2.2,0,0,0-.39,1.257,1.239,1.239,0,0,0,.58.923,8.606,8.606,0,0,0,5.307,2.014,14.2,14.2,0,0,0,3.871-.658,41.1,41.1,0,0,0,6.473-2.6c.1-.053,2.887-1.39,3.537-1.689a25.714,25.714,0,0,1,3.112-1.245,11.386,11.386,0,0,1,3.731-.485h.315a11.261,11.261,0,0,0,2.543-.275,9.517,9.517,0,0,0,2.362-.96c3.848-2.1,4.925-2.444,7.682-2.444,1.048,0,1.745-.478,2.663-1.827l.512-.762c.62-.888,1.07-1.218,1.661-1.218a11.954,11.954,0,0,0,3.744-.556,7.637,7.637,0,0,0,3.045-1.814,7.639,7.639,0,0,1,3.123-1.627l.352-.128a9.134,9.134,0,0,0,3.15-1.643,3,3,0,0,0,.922-2.365c0-6.218,1.423-10.227,4.228-11.915a10.786,10.786,0,0,0,2.319-1.882,6.228,6.228,0,0,0,1.363-2.092,1.594,1.594,0,0,0-.082-1.492c-.372-.523-1.2-.789-2.474-.789a9.669,9.669,0,0,1-4.522-1.225l-.267-.131c-2.117-1.035-2.117-1.035-2.6-1.051l-.148-.005-.076,0c-.876,0-1.57.609-2.251,1.974-2.453,4.911-10.01,13.172-15.258,16.678-2.234,1.492-6.092,2.844-13.317,4.665-.768.195-2.577.638-4.173,1.028h0l-.2.049Zm-39.19,16.355h0c-.139-.192-.277-.386-.41-.575.66-.7,1.508-1.583,2.127-2.226h0l0,0,0,0c.578-.6,1.072-1.113,1.266-1.326a33.5,33.5,0,0,1,6.107-5.074c.414-.281,1.413-.933,2.47-1.622l.093-.06c1.384-.9,2.953-1.926,3.479-2.293a17.517,17.517,0,0,0,2.19-1.879c.518-.509,2.4-2.459,2.46-2.526a19.471,19.471,0,0,1,6.818-4.977c1.119-.447,2.7-.934,6.028-1.862,1.352-.378,2.721-.76,4.07-1.135,1.474-.414,2.946-.845,4.376-1.281a77.827,77.827,0,0,0,8.808-3.175,19.224,19.224,0,0,0,5.282-3.206c3.074-2.889,4.1-4.871,5.434-9.005a23.648,23.648,0,0,1,1.751-4.4A47.434,47.434,0,0,1,163,104.787c2.908-3.12,5.818-5.377,8.193-6.356a16.352,16.352,0,0,0,5.181-3.062,4.384,4.384,0,0,0,1.514-3.2c0-1,.948-2.914,2.359-4.752a16.317,16.317,0,0,1,5.786-4.908,44.585,44.585,0,0,1,11.633-3.128c.14.166.281.334.418.5l.107.129a51.467,51.467,0,0,0-6.321,1.226,34.079,34.079,0,0,0-5.546,1.9,15.624,15.624,0,0,0-5.528,4.7c-1.285,1.678-2.218,3.5-2.218,4.333a4.977,4.977,0,0,1-1.642,3.6,16.671,16.671,0,0,1-5.481,3.3,17.008,17.008,0,0,0-3.92,2.424,36.818,36.818,0,0,0-4.059,3.8,46.738,46.738,0,0,0-6.7,9.2,23.088,23.088,0,0,0-1.7,4.292c-1.382,4.264-2.439,6.31-5.62,9.3-2.341,2.2-6.77,4.216-14.359,6.538-1.472.448-2.948.88-4.388,1.284-1.337.378-2.708.761-4.076,1.135-3.375.944-4.878,1.408-5.955,1.841a14.2,14.2,0,0,0-3.255,1.834,28.629,28.629,0,0,0-3.325,2.983l-.007.007-.009.01-.175.181-.007.007,0,0c-.5.519-1.832,1.9-2.269,2.326a18.148,18.148,0,0,1-2.28,1.955c-.534.375-2.116,1.407-3.512,2.317l-.029.019,0,0c-1.025.668-2.085,1.359-2.5,1.642a32.846,32.846,0,0,0-5.986,4.966c-.212.235-.75.794-1.372,1.441l-.021.021c-.73.758-1.494,1.553-2.107,2.207Zm23.97-.267a2.255,2.255,0,0,1-1.89-.629,1.43,1.43,0,0,1-.1-1.316,11.844,11.844,0,0,1,2.694-3.852c.434-.472.916-.973,1.434-1.488.634-.629,1.912-1.837,3.8-3.591l0-.005.09-.084.062-.058a5.038,5.038,0,0,1,.484-.436c1.024-.823,1.8-1.024,3.945-1.024.261,0,.563,0,.953.01.551.011.892.015,1.3.015a15.736,15.736,0,0,0,2.5-.239,17,17,0,0,1,2.221-.249,3.062,3.062,0,0,1,.7.077c.881.2,1.309.84,1.309,1.969,0,1.355-.748,2.5-2.286,3.5a23.821,23.821,0,0,1-4.888,2.215l-.093.034-.788.3a13.212,13.212,0,0,0-3.222,1.879l-.277.2C123.078,159.668,121.294,160.526,117.787,160.526Zm10.535-12.136c-2.081,0-2.78.177-3.741.947a5.473,5.473,0,0,0-.456.408c-.018.019-.224.211-.492.462l-.03.028h0c-.85.793-2.618,2.444-3.432,3.254-.481.477-.96.973-1.424,1.474a11.844,11.844,0,0,0-2.619,3.721,1.105,1.105,0,0,0,.057,1.017c.236.322.76.478,1.6.478a11.57,11.57,0,0,0,4.065-.608,14.951,14.951,0,0,0,3.693-2.105l.276-.2a13.826,13.826,0,0,1,3.3-1.924l.794-.3.086-.034a23.606,23.606,0,0,0,4.826-2.181c1.452-.944,2.128-1.963,2.128-3.208a2.056,2.056,0,0,0-.255-1.131,1.171,1.171,0,0,0-.781-.5,2.773,2.773,0,0,0-.643-.07,16.623,16.623,0,0,0-2.155.243,16.161,16.161,0,0,1-2.556.242c-.387,0-.718,0-1.309-.014C128.923,148.393,128.617,148.39,128.322,148.39Zm-37.4,8.033h0l-.054-.088-.014-.024-.015-.024-.1-.161a70.745,70.745,0,0,1,8.207-6.471c.7-.475,2.173-1.424,3.6-2.342l.025-.016c1.279-.823,2.6-1.674,3.022-1.968a33.9,33.9,0,0,0,2.684-2.18c.012-.019,2.574-2.277,3.271-2.872a47.692,47.692,0,0,1,4.508-3.513,15.351,15.351,0,0,1,4.445-2.188c4.484-1.2,5.4-1.449,7.52-2.066a60.82,60.82,0,0,0,9.72-3.461,15.772,15.772,0,0,1,2.581-.966c2.951-.908,4.145-1.413,5.862-2.8a17.885,17.885,0,0,0,3.405-3.764,37.68,37.68,0,0,0,3.271-5.882c5.5-12,6.541-13.6,11.1-17.024a19.787,19.787,0,0,1,3.949-2.215l.8-.36a20.868,20.868,0,0,0,4.642-2.605,9.6,9.6,0,0,0,2.647-3.41,12.019,12.019,0,0,0,1.164-4.246,6.805,6.805,0,0,1,1.219-3.548c.9-1.2,2.48-2.189,4.961-3.118,1.174-.439,2.574-.873,4.163-1.29a60.132,60.132,0,0,1,7.351-1.541l.292.306a58.538,58.538,0,0,0-7.554,1.563c-1.388.356-2.777.786-4.128,1.281-2.424.914-3.953,1.869-4.811,3a6.441,6.441,0,0,0-1.151,3.392,12.356,12.356,0,0,1-1.2,4.347,10.615,10.615,0,0,1-3.337,3.962,20.623,20.623,0,0,1-4.121,2.215l-.8.36a19.4,19.4,0,0,0-3.886,2.176,18.668,18.668,0,0,0-5.109,5.206c-1.511,2.314-3.17,5.75-5.893,11.683-2.1,4.6-4.318,7.794-6.771,9.777-1.755,1.42-2.972,1.936-5.976,2.862a15.424,15.424,0,0,0-2.532.945,61.7,61.7,0,0,1-9.776,3.481c-2.5.721-5.031,1.416-7.53,2.066a15.1,15.1,0,0,0-4.339,2.142,47.822,47.822,0,0,0-4.473,3.485c-.638.548-2.466,2.16-3.223,2.827l-.052.046a34.076,34.076,0,0,1-2.708,2.2c-.421.295-1.722,1.131-3.1,2.016l0,0-.027.017,0,0,0,0c-1.254.806-2.815,1.808-3.518,2.286a70.372,70.372,0,0,0-8.22,6.488ZM87.772,150.6h0l-.019-.04-.005-.011-.006-.013v0l-.118-.249c.428-.289.868-.581,1.307-.868.309-.2,1.058-.683,1.719-1.109l.022-.014.389-.251,0,0c.872-.561,1.774-1.142,2.126-1.373,1.782-1.159,3.158-2.106,4.463-3.07a79.167,79.167,0,0,0,6.473-5.475l.587-.533c3.373-3.061,5.473-4.844,7.249-6.154a23.393,23.393,0,0,1,5.417-3.086,48.886,48.886,0,0,1,5.441-1.717l.184-.049.015,0,.357-.094.007,0,.044-.012h0c1.323-.349,4.836-1.276,6.028-1.614a50.947,50.947,0,0,0,8.485-3.052,16.665,16.665,0,0,0,5.28-3.793A22.8,22.8,0,0,0,146,114.074c.859-1.5,1.8-3.387,3.16-6.315l.722-1.557a71.378,71.378,0,0,1,4-7.722,20.851,20.851,0,0,1,3.863-4.7,22.626,22.626,0,0,1,5.313-3.6l1.4-.682a8.989,8.989,0,0,0,4.476-4.073,23.531,23.531,0,0,0,1.548-3.346,16.466,16.466,0,0,1,6.9-8.652,12.909,12.909,0,0,1,6.391-1.841c2.294,0,4.013-.04,5.932-.14l.191.161.194.165c-2.433.132-4.287.159-6.322.159a11.326,11.326,0,0,0-3.018.433,13.421,13.421,0,0,0-3.2,1.36A16.129,16.129,0,0,0,170.8,82.2a23.785,23.785,0,0,1-1.575,3.391,9.846,9.846,0,0,1-1.94,2.5,11.424,11.424,0,0,1-2.682,1.717l-1.392.678a22.234,22.234,0,0,0-5.237,3.547,20.578,20.578,0,0,0-3.813,4.65,71.3,71.3,0,0,0-3.973,7.671l-.718,1.554c-2.676,5.765-4.076,8.18-5.994,10.337-2.535,2.857-6.568,4.87-13.924,6.95-1.533.432-6.6,1.763-6.645,1.776a49.276,49.276,0,0,0-5.4,1.7,23.126,23.126,0,0,0-5.361,3.061c-1.764,1.3-3.851,3.075-7.205,6.118l-.588.533a80.433,80.433,0,0,1-6.5,5.5c-1.315.968-2.7,1.92-4.481,3.084-.287.187-.941.608-1.643,1.059l-.01.007c-1.145.736-2.206,1.418-2.605,1.682-.458.3-.91.6-1.344.891Zm-1.815-4.165h0c-.041-.1-.078-.2-.113-.287l0-.006-.016-.042c2.864-2.24,5.695-4.617,7.972-6.695a38.077,38.077,0,0,0,5.195-5.45,49.51,49.51,0,0,1,18.367-16.667,28.182,28.182,0,0,0,5.518-3.865,14.523,14.523,0,0,0,3.176-4.106,10.578,10.578,0,0,0,.995-2.905,19.378,19.378,0,0,0,.238-3.507,27.413,27.413,0,0,0-1.278-9.494,16.631,16.631,0,0,0-2.186-4.329,14.081,14.081,0,0,0-3.372-3.34,36.721,36.721,0,0,0-5.644-3.423,10.786,10.786,0,0,0-4.571-1.1,15.86,15.86,0,0,0-6.532,1.771c-.028.012-5.845,2.61-7.319,3.29l-.243.115c-.535.252-.981.463-1.436.682-1.606.772-3.224,1.6-4.808,2.457l.009-.016.009-.016.23-.4.08-.138c1.961-1.051,3.985-2.059,6.014-2.993.813-.376,3.155-1.432,6.962-3.137l.016-.007.151-.067.184-.083a16.208,16.208,0,0,1,6.682-1.8c2.862,0,5.588,1.2,10.417,4.587a15.34,15.34,0,0,1,5.683,7.842,27.611,27.611,0,0,1,1.3,9.6,12.949,12.949,0,0,1-1.271,6.565c-1.5,3.008-4.392,5.665-8.837,8.122a52.42,52.42,0,0,0-10.478,7.4,53.074,53.074,0,0,0-7.771,9.161,38.486,38.486,0,0,1-5.263,5.526C91.7,141.789,88.836,144.19,85.957,146.438Zm79.4-3.484a8.016,8.016,0,0,1-1.31-.1,4.125,4.125,0,0,1-2.647-1.386,5.067,5.067,0,0,1-.949-3.266,18.18,18.18,0,0,1,.628-5.5,9.515,9.515,0,0,1,2.18-3.614,7.565,7.565,0,0,0,.871-1.3c.151-.264.6-1.1.817-1.506l.019-.035.1-.194a13.079,13.079,0,0,1,1.852-2.761,2.482,2.482,0,0,1,1.812-.911,2.339,2.339,0,0,1,.567.073,4.511,4.511,0,0,1,1.236.55l.481.291a6.946,6.946,0,0,0,1.071.554,2.954,2.954,0,0,0,1,.1c.171,0,.373,0,.636-.008l.249,0c.153,0,.276,0,.388,0a3.452,3.452,0,0,1,1.626.232.579.579,0,0,1,.329.423c.045.318-.2.746-.722,1.273-.436.435-.884.873-1.333,1.3-1.864,1.78-2.937,2.827-3.63,3.614a5.4,5.4,0,0,0-1.212,1.94,6.679,6.679,0,0,0-.339,4.417,7.428,7.428,0,0,1-.988,5.237,1.2,1.2,0,0,1-.909.5c-.176,0-.352.008-.521.024l-.221.014C166.012,142.941,165.667,142.954,165.354,142.954Zm3.4-20.213c-1.072,0-2.021.977-3.384,3.485-.026.049-.748,1.394-.943,1.737a7.884,7.884,0,0,1-.916,1.357,9.26,9.26,0,0,0-2.112,3.507,17.894,17.894,0,0,0-.607,5.376,4.681,4.681,0,0,0,.864,3.038,3.737,3.737,0,0,0,2.442,1.271,7.592,7.592,0,0,0,1.25.1c.3,0,.639-.013,1.068-.04l.174-.01h.009l.176-.01h.007l.059,0c.127-.009.235-.014.342-.014a.879.879,0,0,0,.652-.373,7.285,7.285,0,0,0,.9-4.963,7.005,7.005,0,0,1,.356-4.582c.466-1.361,1.232-2.171,4.93-5.7.486-.462.9-.861,1.33-1.291.45-.453.646-.757.618-.957a.265.265,0,0,0-.152-.2,3.348,3.348,0,0,0-1.456-.187c-.117,0-.246,0-.382,0l-.248,0c-.286.006-.49.008-.662.008a2.937,2.937,0,0,1-1.113-.126,7.086,7.086,0,0,1-1.123-.578l-.477-.287a4.163,4.163,0,0,0-1.143-.509A1.922,1.922,0,0,0,168.754,122.74ZM84.593,142.654h0l-.06-.187-.016-.051-.034-.105.7-.5a68.56,68.56,0,0,0,6.368-5.056,23.964,23.964,0,0,0,3.984-4.531c1.266-1.951,3.625-6.2,4.758-8.239l0,0c.438-.789.71-1.278.773-1.378a8.9,8.9,0,0,1,3.517-3.589,54.287,54.287,0,0,0,8.646-5.648,35.165,35.165,0,0,0,5.013-4.782,15.5,15.5,0,0,0,2.835-4.7,7.179,7.179,0,0,0-.4-5.132,19.569,19.569,0,0,0-3.92-5.765,28.685,28.685,0,0,0-4.816-4.134,8.353,8.353,0,0,0-3.823-1.694,18.061,18.061,0,0,0-6.217,1.314,22.465,22.465,0,0,0-6.108,3.493,10.672,10.672,0,0,1-4.663,2.107c-.479.11-.783.168-1.765.353-.939.177-1.614.325-2.19.478l.029-.065.107-.235.048-.105c.513-.128,1.13-.259,1.944-.412.95-.18,1.274-.244,1.748-.352A10.29,10.29,0,0,0,95.572,91.7c3.506-2.875,8.664-4.883,12.543-4.883a8.59,8.59,0,0,1,3.974,1.726,29.027,29.027,0,0,1,4.918,4.213,19.841,19.841,0,0,1,4.007,5.913A7.484,7.484,0,0,1,121.4,104c-1.053,3.018-3.73,6.262-7.956,9.641a54.651,54.651,0,0,1-8.712,5.686,6.454,6.454,0,0,0-1.757,1.307,12.556,12.556,0,0,0-1.618,2.151c-.057.091-.305.538-.681,1.215l-.037.067-.007.012c-1.147,2.067-3.535,6.369-4.812,8.337-1.84,2.838-5.061,5.822-10.442,9.676-.264.189-.519.37-.745.529l-.044.031Zm80.672-1.819c-.9,0-1.536-1.082-1.536-2.632,0-1.384.2-1.968.715-2.083a.806.806,0,0,1,.177-.021c.319,0,.611.212,1.273.81.2.18.859.654.882.667.688.552.688,1.17,0,2.2A1.973,1.973,0,0,1,165.266,140.835ZM164.6,136.8h-.011c-.06.011-.173.435-.173,1.405,0,1.187.321,1.924.838,1.924.3,0,.636-.259.948-.729.527-.795.5-.987.138-1.28,0,0-.662-.474-.912-.692v0A2.868,2.868,0,0,0,164.6,136.8Zm-81.358,1.128h0c-.054-.218-.1-.431-.156-.65a34.2,34.2,0,0,0,4.822-2.193A32.169,32.169,0,0,0,98.4,123.558a8.27,8.27,0,0,0,1.08-3.4c0-1.913,1.049-3.212,3.509-4.343.229-.1.806-.351,1.227-.531l.006,0c.259-.111.57-.244.673-.29a6.216,6.216,0,0,0,.622-.322,10.092,10.092,0,0,1,1.122-.561,11.5,11.5,0,0,0,5.69-4.54c.081-.109.266-.345.5-.644l.136-.174c.761-.971,2.034-2.6,2.29-3.027.616-1.038.8-2.113.8-4.6,0-2.241-1.456-5.345-3.623-7.724-1.872-2.059-3.887-3.193-5.674-3.193a3.816,3.816,0,0,0-1.293.22c-4.724,1.689-5.444,2.031-8.567,4.066-.38.249-1.165.809-1.925,1.351h0c-.779.556-1.583,1.13-1.876,1.313a7.09,7.09,0,0,1-3.983,1.2,7.344,7.344,0,0,0-2.4.27A3.163,3.163,0,0,0,85.2,99.784l.048-.133.1-.264,0-.012.008-.021.012-.033c.124-.338.249-.671.372-.99a3.819,3.819,0,0,1,1.4-.53,10.827,10.827,0,0,1,1.974-.141,6.346,6.346,0,0,0,3.617-1.094c.263-.164.983-.676,1.744-1.219l.054-.038c.7-.5,1.581-1.128,2-1.4,3.186-2.075,3.918-2.423,8.7-4.136a4.541,4.541,0,0,1,1.533-.262c1.98,0,4.175,1.214,6.181,3.419,2.275,2.5,3.8,5.793,3.8,8.191,0,2.626-.21,3.783-.9,4.949-.284.476-1.612,2.172-2.406,3.185l-.007.009-.114.146,0,0c-.208.265-.372.475-.441.568a12.211,12.211,0,0,1-5.962,4.762,8.33,8.33,0,0,0-1.047.519,6.82,6.82,0,0,1-.691.353c-.1.048-.386.169-.714.31l-.1.042,0,0c-.419.179-.893.382-1.091.473-2.206,1.015-3.105,2.091-3.105,3.713a8.806,8.806,0,0,1-1.107,3.6,28.882,28.882,0,0,1-2.838,4.45,29.238,29.238,0,0,1-7.975,7.476,35.454,35.454,0,0,1-5,2.241Zm-.826-3.869h0l-.045-.248-.018-.1c.737-.3,1.657-.679,2.895-1.2a14.606,14.606,0,0,0,3.911-2.483,20.917,20.917,0,0,0,3.347-3.8,40.368,40.368,0,0,0,5.077-10.918,5.67,5.67,0,0,1,2.753-3.461,13.938,13.938,0,0,1,4.1-1.3c.559-.116.735-.157.94-.2l.024-.005.114-.026a13.508,13.508,0,0,0,3.808-1.339,6.937,6.937,0,0,0,2.445-2.354,9.4,9.4,0,0,0,1.622-7.443,8.82,8.82,0,0,0-4.669-5.462,7.1,7.1,0,0,0-2.976-1.146,1.822,1.822,0,0,0-.565.09,3.528,3.528,0,0,0-.77.374c-.165.1-.749.464-.941.585h0l-.014.009-.055.034a22.808,22.808,0,0,1-3.51,1.79,16.976,16.976,0,0,0-1.689.806,10.356,10.356,0,0,0-2.27,1.675c-.452.474-.9.963-1.319,1.453a3.625,3.625,0,0,1-3.078,1.271,5.418,5.418,0,0,0-2.327.4,4.8,4.8,0,0,0-1.67,1.385l-.067.082,0,0-.054.066c-.4.5-.668.82-.785.956a11.082,11.082,0,0,1-1.2,1.214,5.281,5.281,0,0,1-.677.495,4.216,4.216,0,0,1-1.39.552l.035-.136.007-.027.033-.126.007-.028.015-.06a3.823,3.823,0,0,0,1.114-.473,4.607,4.607,0,0,0,.628-.46,10.5,10.5,0,0,0,1.164-1.177c.119-.139.375-.451.6-.734l.028-.034c.125-.153.243-.3.276-.336a4.719,4.719,0,0,1,4.259-1.913,3.288,3.288,0,0,0,2.823-1.161c.008-.009.948-1.085,1.332-1.463a10.677,10.677,0,0,1,2.346-1.73,16.614,16.614,0,0,1,1.724-.824,22.51,22.51,0,0,0,3.457-1.765v0c.058-.039.829-.522,1.019-.637a4.039,4.039,0,0,1,.839-.4,2.165,2.165,0,0,1,.674-.109,7.247,7.247,0,0,1,3.14,1.189,9.151,9.151,0,0,1,4.838,5.681,9.73,9.73,0,0,1-1.667,7.716,7.28,7.28,0,0,1-2.546,2.458,13.746,13.746,0,0,1-3.921,1.386c-.248.058-.376.086-.783.172h0l-.3.063a13.477,13.477,0,0,0-4.007,1.264,5.338,5.338,0,0,0-2.591,3.267c-2.924,9.279-7.141,15.137-12.532,17.411-1.252.529-2.194.919-2.963,1.23Zm-.3-1.812h0c-.012-.077-.023-.15-.034-.226l-.008-.055-.011-.077a15.788,15.788,0,0,0,2.465-1.437,30.81,30.81,0,0,0,4.945-4.223,18.45,18.45,0,0,0,2.945-4.363,29.427,29.427,0,0,0,2.543-7.035c.463-2.317.309-4.007-.446-4.888a6.385,6.385,0,0,0-2.662-1.849,10.8,10.8,0,0,0-3.859-.61,25.024,25.024,0,0,0-4.371.437c-.274.049-.529.09-.78.126l.014-.067.042-.192,0-.008,0-.015.018-.08c.191-.028.4-.062.639-.1A25.378,25.378,0,0,1,88,107.135c3.077,0,5.294.843,6.777,2.576.817.955,1.007,2.714.548,5.087a29.523,29.523,0,0,1-2.6,7.215c-1.713,3.433-3.807,5.714-8,8.718a16.28,16.28,0,0,1-2.611,1.512Zm120.911-1.393a8.288,8.288,0,0,1-3.745-.967c-1.23-.614-5.929-3.8-5.942-3.811-.592-.374-1.2-.732-1.8-1.063a45.451,45.451,0,0,1-4.188-2.637,42.987,42.987,0,0,1-3.819-3.023c-2.485-2.227-3.876-4.132-3.917-5.363-.036-1.148.613-2.21,2.17-3.551.325-.284.705-.589,1.271-1.021l.2-.15.018-.014.194-.147.013-.01c.371-.281.813-.617.94-.717a17.66,17.66,0,0,0,3.22-2.924A71.768,71.768,0,0,1,194,98.542a24.892,24.892,0,0,1,5.505-4.259,13.052,13.052,0,0,1,5.336-1.462,6.174,6.174,0,0,1,1.762.246c.146.3.29.6.428.893a5.463,5.463,0,0,0-2.2-.446,12.379,12.379,0,0,0-5.031,1.4,24.274,24.274,0,0,0-5.358,4.168,72.553,72.553,0,0,0-6.262,6.81,18.2,18.2,0,0,1-3.34,3.042l-1.362,1.032c-.424.321-.841.657-1.24,1a7.855,7.855,0,0,0-1.476,1.587,2.431,2.431,0,0,0-.451,1.421,4.263,4.263,0,0,0,1.092,2.189,21.984,21.984,0,0,0,2.73,2.8,45.934,45.934,0,0,0,7.742,5.449c.607.336,1.206.69,1.831,1.083l.021.014c.789.534,4.781,3.227,5.861,3.765a7.519,7.519,0,0,0,3.441.894,10.454,10.454,0,0,0,5.541-1.995,21.413,21.413,0,0,1,2.788-1.491c.683-.307,1.2-.529,1.833-.758-.014.252-.03.5-.047.755-.5.189-.963.389-1.507.631a20.841,20.841,0,0,0-2.7,1.447A11.073,11.073,0,0,1,203.025,130.851ZM81.752,129.5h0c-.013-.121-.027-.243-.039-.364a6.313,6.313,0,0,0,.743-.422,32.926,32.926,0,0,0,5.431-5,18.487,18.487,0,0,0,3.827-5.637c.742-2.477,1.091-3.99.943-5.385a2.769,2.769,0,0,0-.983-2.011A4.031,4.031,0,0,0,89.116,110c-.68,0-1.189-.014-2.56-.053l-1.34-.034c-.453-.01-.876-.016-1.295-.016-.537,0-1.014.009-1.459.028l.019-.1,0-.014.005-.029,0-.01.037-.2c.429-.017.884-.025,1.391-.025.42,0,.846.005,1.3.016l1.343.034c1.274.036,1.854.052,2.55.052,2.369,0,3.677,1.013,3.886,3.011a7.808,7.808,0,0,1-.121,2.267,30.374,30.374,0,0,1-.836,3.249,18.794,18.794,0,0,1-3.884,5.752A33.174,33.174,0,0,1,82.65,129a6.71,6.71,0,0,1-.9.5Zm121.234-2.594c-1.844,0-4.06-.766-6.776-2.342-1.259-.729-2.638-1.641-4.47-2.956-.394-.285-1.264-.927-2.032-1.493l-.009-.007-.128-.094,0,0-.091-.067-.012-.009c-.665-.49-1.239-.914-1.42-1.044a28.108,28.108,0,0,0-2.981-1.972,2.043,2.043,0,0,1-1.166-1.359c-.144-.758.257-1.686,1.225-2.839,1.137-1.353,1.523-1.686,6.252-5.651,1.034-.856,2.067-1.757,3.071-2.678.566-.523,1.115-1.066,1.63-1.613a4.724,4.724,0,0,1,3.382-1.818,3.965,3.965,0,0,1,1.789.462,11.155,11.155,0,0,1,2.567,1.91c.292.272,1,.958,1.758,1.7l.011.011c.49.477.848.825.987.957a20.786,20.786,0,0,0,4.905,3.669l0,0c.185.094.421.211.72.358-.089-.479-.184-.964-.283-1.442.1.478.2.963.283,1.442.028.152.053.293.077.424-.4-.2-.716-.35-.956-.471a21.01,21.01,0,0,1-4.988-3.724c-.126-.12-.449-.435-.78-.757-.691-.673-1.637-1.594-1.974-1.9a11.169,11.169,0,0,0-2.487-1.858,3.631,3.631,0,0,0-1.632-.424,3.184,3.184,0,0,0-1.545.417,6.406,6.406,0,0,0-1.59,1.291c-.529.561-1.082,1.11-1.645,1.63-.821.763-1.714,1.542-3.081,2.689-4.828,4.049-5.118,4.311-6.21,5.61-.895,1.064-1.27,1.895-1.147,2.54a1.691,1.691,0,0,0,.987,1.132,27.957,27.957,0,0,1,3.019,2c.185.134.764.561,1.217.9l.042.031,0,0,.009.007c.875.646,1.965,1.449,2.424,1.781,1.425,1.048,2.918,2.037,4.438,2.938,2.661,1.543,4.822,2.293,6.607,2.293a5.35,5.35,0,0,0,1.787-.292c.154-.054.713-.244,1.487-.506l.02-.007.057-.019.021-.007.005,0c1.812-.613,4.551-1.54,5.7-1.952.45-.163.85-.31,1.222-.451,0,.068,0,.13,0,.188l0,.087,0,.1c-.321.12-.679.252-1.1.4-1.127.406-3.817,1.315-5.6,1.917l-.028.01-.013.005c-.9.3-1.491.5-1.65.56A5.7,5.7,0,0,1,202.986,126.91ZM81.365,123.784h0l0-.071V123.7c0-.052,0-.1,0-.15s0-.087,0-.132a14.882,14.882,0,0,0,5.189-2.91,7.049,7.049,0,0,0,1.509-1.931A4.752,4.752,0,0,0,88.6,116.4c0-1.5-.933-2.564-2.773-3.166a9.66,9.66,0,0,0-2.833-.467,1.752,1.752,0,0,0-.228.027,6.867,6.867,0,0,0-.794.173l.008-.056.043-.3V112.6a7.169,7.169,0,0,1,.95-.178,10.824,10.824,0,0,1,2.96.485c2,.658,3.012,1.834,3.012,3.5a5.914,5.914,0,0,1-2.154,4.366,15.3,15.3,0,0,1-5.425,3.017Zm120.264-.353a7.813,7.813,0,0,1-3.8-.953,9.309,9.309,0,0,1-2.206-1.707,17.112,17.112,0,0,1-1.991-2.549c-.981-1.5-.962-2.819.055-3.828a7.3,7.3,0,0,1,4.215-1.627v0a7.868,7.868,0,0,1,.938-.058,6.508,6.508,0,0,1,1.964.3,18.253,18.253,0,0,1,2.984,1.305,41.791,41.791,0,0,0,4.556,1.925c1.937.687,3.045,1.43,3.292,2.208a1.293,1.293,0,0,1-.241,1.169c-.7.988-2.714,2.027-6.163,3.177A11.451,11.451,0,0,1,201.629,123.431Zm-2.814-10.382a6.345,6.345,0,0,0-.871.06h0a6.964,6.964,0,0,0-4.014,1.529c-.9.891-.9,2.033-.007,3.392a16.634,16.634,0,0,0,1.938,2.489A8.97,8.97,0,0,0,198,122.173a7.5,7.5,0,0,0,3.636.912,11.089,11.089,0,0,0,3.487-.622c3.382-1.131,5.342-2.13,5.99-3.052a.972.972,0,0,0,.177-.88c-.213-.669-1.214-1.315-3.062-1.972a42.481,42.481,0,0,1-4.587-1.938,17.93,17.93,0,0,0-2.937-1.284A6.357,6.357,0,0,0,198.815,113.049Zm-70.135,8.736a1.8,1.8,0,0,1-1.452-.517,1.916,1.916,0,0,1-.242-1.611c.321-1.7,2.04-4.581,4.487-7.52a15.4,15.4,0,0,0,1.665-2.408,11.632,11.632,0,0,0,1.437-4.226,51.906,51.906,0,0,0,.311-7.1,15.666,15.666,0,0,0-.942-5.144,23.267,23.267,0,0,0-2.655-5.233,28.652,28.652,0,0,0-4.114-4.851,29.246,29.246,0,0,0-5.319-4,15.575,15.575,0,0,0-3.736-1.591,14.471,14.471,0,0,0-3.821-.509,21.976,21.976,0,0,0-9.524,2.518c-.832.4-1.661.833-2.467,1.284l-.673.371c-1.22.642-2.481,1.246-3.748,1.8l-1.213.538-.033.015-.658.292-.049.022-.011,0c-1.226.543-2.752,1.219-3.456,1.534l-.042.019-.042.019.055-.082c.1-.155.205-.305.31-.46l.571-.254,1.347-.6.47-.208.009,0c1.186-.525,2.305-1.021,2.6-1.156,1.764-.787,2.878-1.32,3.724-1.782l.674-.371.753-.408c.571-.306,1.119-.586,1.727-.882a22.336,22.336,0,0,1,9.683-2.557,14.883,14.883,0,0,1,7.7,2.142c7.662,4.474,13.223,12.689,13.223,19.533,0,6.484-.223,8.644-1.79,11.49a15.715,15.715,0,0,1-1.706,2.465c-2.413,2.9-4.1,5.723-4.408,7.361a1.554,1.554,0,0,0,.193,1.308,1.5,1.5,0,0,0,1.212.426,15.737,15.737,0,0,0,5.563-1.751,20.3,20.3,0,0,0,9.845-9.108,27.959,27.959,0,0,0,2.107-5.236c.228-.756.718-2.6.954-3.485l.006-.022c.13-.487.2-.737.218-.811a10.1,10.1,0,0,1,.6-1.672c2.853-5.712,7.768-10.771,12.522-12.888a10.346,10.346,0,0,0,3.508-2.591,25.813,25.813,0,0,0,3.194-4.6c.121-.213.414-.739.685-1.225l.012-.021.042-.075c.405-.727.865-1.552,1.037-1.852a12.558,12.558,0,0,1,3.237-4.146c2.766-2.02,7.373-3.3,13.325-3.709l.148.106.294.213a40.606,40.606,0,0,0-7.893,1.184,17.119,17.119,0,0,0-5.67,2.483,12.584,12.584,0,0,0-3.144,4.042c-.132.23-.448.8-.94,1.679l-.007.013c-.337.605-.686,1.232-.829,1.481-2.373,4.14-4.3,6.2-6.86,7.337a23.042,23.042,0,0,0-7.15,5.31,31.46,31.46,0,0,0-5.2,7.416,9.762,9.762,0,0,0-.584,1.616c-.02.071-.086.319-.17.634l-.055.208-.007.026c-.271,1.022-.725,2.731-.943,3.458a28.307,28.307,0,0,1-2.138,5.3,20.634,20.634,0,0,1-10,9.261A15.868,15.868,0,0,1,128.68,121.785Zm6.409-6.33a1.1,1.1,0,0,1-1.059-.534c-.341-.653-.01-1.818.888-3.116a20.987,20.987,0,0,0,3.754-9.241,24.543,24.543,0,0,0,.119-5.531,41,41,0,0,0-1.138-6.546,18.1,18.1,0,0,0-4.136-7.814,26.815,26.815,0,0,0-7.7-5.759c-1.3-.682-2.722-1.338-4.488-2.066-.662-.27-1.3-.524-2.072-.824l-1.876-.72a7.412,7.412,0,0,0-2.687-.454,16.756,16.756,0,0,0-4.424.7,45.359,45.359,0,0,0-5.642,2.045c-1.124.48-2.36,1.043-4.01,1.824l-3.327,1.6L97.3,79c.116-.135.231-.268.351-.4l.207-.236h0l.239-.114c.961-.462,1.955-.939,2.364-1.132,1.555-.742,2.833-1.323,4.024-1.831,4.444-1.9,7.687-2.779,10.206-2.779a7.612,7.612,0,0,1,2.806.478l1.876.727c.774.3,1.416.551,2.08.824,1.53.617,3.049,1.316,4.514,2.076,6.732,3.542,10.55,7.926,12.018,13.8,2.285,9.163,1.477,15.42-2.791,21.6-.829,1.2-1.147,2.2-.872,2.721a.813.813,0,0,0,.78.387c.032,0,.068,0,.113,0,1.514-.1,3.611-1.844,5.219-4.333a14.378,14.378,0,0,0,1.41-2.911c.4-1.1.828-2.5,1.371-4.54l.584-2.2c.217-.813.417-1.527.632-2.249,1.8-6.071,3.962-9.556,7.448-12.03,1.623-1.15,4.684-3.126,6.71-4.433l.016-.011c1.042-.672,1.865-1.2,2.075-1.353a13.506,13.506,0,0,0,4.953-6.229,12.919,12.919,0,0,1,5.655-6.475,14.934,14.934,0,0,1,4.275-1.481A27.932,27.932,0,0,1,181,66.392c.6,0,1.194-.014,1.775-.041l.05.032.062.04.384.249c-.768.045-1.511.066-2.271.066a27.72,27.72,0,0,0-5.338.454,14.644,14.644,0,0,0-4.187,1.44,11.209,11.209,0,0,0-3.183,2.54,14.616,14.616,0,0,0-2.329,3.754,13.847,13.847,0,0,1-5.077,6.4c-.2.143-.924.61-1.926,1.257l-.14.09,0,0h0c-2.03,1.309-5.1,3.288-6.729,4.446a15.568,15.568,0,0,0-4.366,4.75,30.229,30.229,0,0,0-2.954,7.1c-.189.641-.383,1.332-.629,2.24l-.584,2.2c-1.088,4.087-1.774,5.921-2.823,7.548a13.675,13.675,0,0,1-2.813,3.221,5.107,5.107,0,0,1-2.676,1.271C135.182,115.452,135.133,115.454,135.089,115.454Zm-28.367-8.059a11.258,11.258,0,0,1-5.254-1.574,6.266,6.266,0,0,1-3.445-5.047,3.175,3.175,0,0,1,1.718-2.868c.524-.289,1.045-.6,1.548-.935l.7-.45c.436-.284.892-.552,1.354-.8a5.671,5.671,0,0,1,2.643-.718,5.843,5.843,0,0,1,2.194.469,4.665,4.665,0,0,1,2.924,3.356,11.774,11.774,0,0,1-.4,5.85l0,0A3.729,3.729,0,0,1,106.722,107.395ZM103.5,96.033c-.454.241-.9.5-1.326.779l-.7.45-.113.072c-.222.14-.431.273-.633.4-.312.191-.574.344-.822.481a2.963,2.963,0,0,0-1.162,1.115,2.9,2.9,0,0,0-.371,1.459,4.663,4.663,0,0,0,.865,2.57,6.954,6.954,0,0,0,2.4,2.165,10.877,10.877,0,0,0,5.065,1.525c1.925,0,3.228-.873,3.667-2.459a11.466,11.466,0,0,0,.413-5.616,4.357,4.357,0,0,0-2.727-3.175,5.545,5.545,0,0,0-2.064-.441,5.3,5.3,0,0,0-2.486.683Zm2.946,7.751a6.732,6.732,0,0,1-2.9-.725l-.653-.325c-.209-.106-.388-.2-.563-.3a1.83,1.83,0,0,1-1.024-1.151c-.123-.611.218-1.4,1.141-2.631a4.779,4.779,0,0,1,3.768-1.972,3.485,3.485,0,0,1,2.411.9,3.543,3.543,0,0,1,1.041,2.664c0,1.911-.793,3.1-2.293,3.447A4.153,4.153,0,0,1,106.449,103.784Zm-.153-6.748a4.559,4.559,0,0,0-3.57,1.819c-.867,1.16-1.18,1.838-1.079,2.34.07.344.326.624.858.937.139.079.293.162.55.294l.646.322a6.392,6.392,0,0,0,2.752.692,3.8,3.8,0,0,0,.847-.089c1.343-.31,2.024-1.357,2.024-3.113a3.408,3.408,0,0,0-.688-2.192,2.815,2.815,0,0,0-1.84-.976A3.783,3.783,0,0,0,106.3,97.035Zm102.385.732c-.2-.5-.407-1.011-.618-1.509.212.5.42,1,.619,1.509Zm-66.22-7.791c-.785,0-1.5-.606-2.255-1.906-.158-.272-.66-1.317-1.191-2.423l0-.005,0,0c-.841-1.75-1.887-3.927-2.445-4.9a17.726,17.726,0,0,0-6.771-7.1,26.64,26.64,0,0,0-6.356-2.519,43.739,43.739,0,0,0-5.32-1,14.316,14.316,0,0,1-4.881-1.319,6.205,6.205,0,0,1-2.181-1.919l.024-.016.179-.118,0,0,.02-.013.02-.013.042-.027a5.861,5.861,0,0,0,2.054,1.8,14.1,14.1,0,0,0,4.774,1.284,45.494,45.494,0,0,1,5.355,1.01,27.04,27.04,0,0,1,6.432,2.551,18.008,18.008,0,0,1,6.9,7.23c.57.99,1.634,3.205,2.489,4.985l.024.049v0l0,.006c.547,1.14.979,2.039,1.124,2.29.694,1.2,1.3,1.73,1.96,1.73a2.771,2.771,0,0,0,1.8-1.038,17.826,17.826,0,0,1,2.894-2.335c1.069-.706,2.386-1.463,4.4-2.53l.123-.065h0c.206-.11.589-.314.606-.32a35.753,35.753,0,0,0,5.482-3.3A11.075,11.075,0,0,0,161.5,75.5a27.7,27.7,0,0,1,5.193-8.391c1.974-2.052,4.056-3.137,6.02-3.137l1.9.01c.982.008,1.821.011,2.567.011.576,0,1.1,0,1.593-.006-.338-.183-.683-.367-1.024-.545.342.177.686.361,1.025.545.206.112.413.226.616.339-.681.008-1.4.012-2.206.012-.745,0-1.587,0-2.574-.011l-1.9-.01a6.2,6.2,0,0,0-2.927.8A11.718,11.718,0,0,0,166.9,67.39a27.457,27.457,0,0,0-5.083,8.242,11.416,11.416,0,0,1-3.827,4.679,36.419,36.419,0,0,1-5.53,3.33l-.732.387c-2,1.057-3.305,1.807-4.366,2.507a17.5,17.5,0,0,0-2.853,2.3A3.107,3.107,0,0,1,142.461,89.976Zm.789-8.285h0a3.853,3.853,0,0,1-1.617-.347,5.735,5.735,0,0,1-1.571-1.1,24.021,24.021,0,0,1-3.566-4.841,7.783,7.783,0,0,0-2.286-2.277,23.484,23.484,0,0,0-3.924-2.105c-.617-.274-2.086-.868-3.266-1.346l-.005,0,0,0-.127-.052c-.738-.3-1.376-.557-1.581-.647a7.542,7.542,0,0,1-1.832-1.019.923.923,0,0,1-.386-1.006c.118-.407.576-.753,1.442-1.09a24.922,24.922,0,0,1,3.906-1.014,50.759,50.759,0,0,1,10.346-1.161c1.054,0,2.181.038,3.447.115,1.237.077,2.023.119,2.629.119a6.537,6.537,0,0,0,1.772-.209,6.862,6.862,0,0,0,2.073-.9l.963-.592a46.785,46.785,0,0,1,5.976-3.426,8.2,8.2,0,0,1,3.251-.871,3.069,3.069,0,0,1,1.564.387,5.749,5.749,0,0,1,1.441,1.08,2.465,2.465,0,0,1,.635,1.285c.157.918-.092,2.12-.888,4.287a11.816,11.816,0,0,1-2.466,3.945l-.9,1.028c-.313.363-.619.739-.908,1.118a16.042,16.042,0,0,0-1.617,2.6,12.182,12.182,0,0,1-4.439,4.807,28.617,28.617,0,0,1-5.413,2.627A7.162,7.162,0,0,1,143.249,81.691Zm-4.458-17.319a50.072,50.072,0,0,0-10.228,1.15,25.832,25.832,0,0,0-3.727.952c-.636.239-1.046.486-1.1.661-.062.221.623.668,1.831,1.2.223.1,1,.413,1.819.745l.008,0c1.01.409,2.535,1.026,3.161,1.3,3.488,1.538,5.5,2.973,6.519,4.651a24.564,24.564,0,0,0,3.335,4.6A3.958,3.958,0,0,0,143.273,81a6.454,6.454,0,0,0,2.366-.56,28.38,28.38,0,0,0,5.3-2.568,11.554,11.554,0,0,0,4.2-4.534,16.481,16.481,0,0,1,1.678-2.706c.3-.394.617-.781.94-1.152l.9-1.028a11.045,11.045,0,0,0,2.339-3.734,8.989,8.989,0,0,0,.867-3.836c-.132-.883-.768-1.409-1.752-1.972a2.435,2.435,0,0,0-1.226-.295,7.544,7.544,0,0,0-2.961.807,47.427,47.427,0,0,0-5.9,3.381l-.964.6a7.785,7.785,0,0,1-2.269.982,7.238,7.238,0,0,1-1.917.224c-.62,0-1.424-.042-2.691-.12C140.939,64.409,139.831,64.373,138.792,64.373Zm6.8,9.139c-1.687,0-2.758-.822-2.938-2.254a3.226,3.226,0,0,1,.727-2.467,1.814,1.814,0,0,1,1.346-.669,3.316,3.316,0,0,0,1.781-.614c.784-.474,1.846-1.264,3.531-2.556l.064-.048,0,0,.007-.006c.465-.355.833-.635,1.191-.892a12.939,12.939,0,0,1,3.738-2.1,11.23,11.23,0,0,1,3-.585,2.221,2.221,0,0,1,.917.162.929.929,0,0,1,.537.585,3.554,3.554,0,0,1-.81,2.516c-2.936,4.742-6.7,7.6-11.5,8.732A7.039,7.039,0,0,1,145.6,73.512Zm12.456-11.85a11.061,11.061,0,0,0-2.911.57,12.862,12.862,0,0,0-3.63,2.049c-.353.258-.718.533-1.261.948-3.421,2.625-4.341,3.239-5.519,3.239a1.478,1.478,0,0,0-1.091.558A2.85,2.85,0,0,0,143,71.216a2.055,2.055,0,0,0,.762,1.428,2.886,2.886,0,0,0,1.815.524,6.746,6.746,0,0,0,1.529-.2c4.7-1.106,8.4-3.91,11.293-8.572.649-1.052.9-1.778.766-2.219a.611.611,0,0,0-.349-.387A1.87,1.87,0,0,0,158.052,61.662Zm-33.357.577a21.107,21.107,0,0,1-4.138-.568c.177-.079.369-.163.572-.251a18.121,18.121,0,0,0,3.566.473,39.653,39.653,0,0,0,5.563-.283c1.886-.246,4.189-.716,7.529-1.443,1.626-.353,3.166-.658,4.846-.959.979-.173,3.8-.659,3.973-.686,1.667-.291,2.788-.515,3.869-.772a36.619,36.619,0,0,0,4.381-1.318l-.151-.016.152.016c.236.027.489.057.74.089-.173.068-.313.122-.44.17a37.012,37.012,0,0,1-4.6,1.394c-1.08.258-2.206.482-3.886.776l-1.037.179-.018,0-.107.018c-.944.162-2.236.384-2.811.489-1.734.311-3.27.614-4.836.955C130.862,62.028,129.263,62.238,124.7,62.238Z" transform="translate(-80.85 -55.918)"/></svg>