<svg xmlns="http://www.w3.org/2000/svg" width="62" height="549.866" viewBox="0 0 62 549.866"><defs><style>.a{fill:#02c39a;stroke:#48d18d;opacity:0.3;}</style></defs><path class="a" d="M64.154,586.3c-.058-1.178-.125-2.289-.2-3.341a56.854,56.854,0,0,0-1.966-12.425c-.911-2.861-2.029-4.312-3.324-4.312-1.459,0-3.06,1.841-4.759,5.471a64.915,64.915,0,0,0-3.861,10.726q-.306-.172-.608-.351a74.472,74.472,0,0,1,4.406-12.679c1.717-3.673,3.338-5.535,4.817-5.535,1.342,0,2.5,1.536,3.448,4.566a62.03,62.03,0,0,1,2.065,13.268c.1,1.435.191,2.968.265,4.618ZM72,554.544c.759-26.156,2.114-45.324,4.267-60.322,1.073-7.646,2.241-14.267,3.471-19.677.408-1.771.817-3.356,1.327-5.138.147-.5.467-1.572.761-2.551l.084-.282c.127-.422.237-.787.273-.913,1.347-4.616,1.966-8.652,2.65-17.269.357-4.542.7-10.224,1.06-17.369.813-16.232.877-25.774.711-39.823-.058-3.559-.081-7.19-.071-10.793.031-6.056.258-11.507.718-17.152.478-5.866,1.22-12.171,2.338-19.84,1.19-8.176,1.976-16.14,2.338-23.669.176-3.659.257-7.3.24-10.838-.016-3.46-.126-6.914-.326-10.266-.284-4.769-.688-8.962-1.271-13.2-.537-3.916-1.238-7.963-2.269-13.125-.39-1.966-.906-3.107-1.678-3.7a3.491,3.491,0,0,0-.692-.408l-.051-.025-.027-.014c-1.492-.7-1.994-1.933-2.017-7.872-.026-6.64.939-18.77,3.128-39.325,1.628-15.3,3.024-27.212,4.265-36.408.428-3.174.848-6.1,1.359-9.495l1.076-6.93c.167-1.109.365-2.421.548-3.746.428-3.081.832-6.443,1.253-10.484v3.424c-.363,3.35-.717,6.232-1.09,8.9-.177,1.278-.354,2.491-.557,3.82l-1.074,6.925c-.455,2.983-.909,6.145-1.347,9.4-1.237,9.164-2.625,21.019-4.246,36.244-2.106,19.761-3.078,31.7-3.056,37.586a14.148,14.148,0,0,0,.39,4.023,2.417,2.417,0,0,0,1.384,1.582l.018.008.035.018a3.007,3.007,0,0,1,.725.445c.8.584,1.346,1.805,1.779,3.957,1.059,5.3,1.777,9.464,2.328,13.5.6,4.384,1.017,8.767,1.317,13.793a215.777,215.777,0,0,1,.111,22.781c-.376,8.054-1.2,16.451-2.434,24.96-1.086,7.448-1.806,13.53-2.268,19.138-.44,5.336-.658,10.457-.687,16.115-.015,2.747,0,4.541.067,10.439.1,8.3.1,14.359,0,20.257-.106,6.355-.332,12.767-.733,20.789-.3,6.189-.661,12.159-1.086,17.745-.373,4.739-.731,8.084-1.158,10.845a54.717,54.717,0,0,1-1.611,7.274l-.055.183-.115.386,0,.009,0,.007c-.243.812-.75,2.5-.94,3.163-.454,1.553-.87,3.155-1.309,5.044-1.147,4.952-2.235,11.122-3.423,19.418-1.091,7.591-1.956,16.095-2.644,26-.659,9.474-1.159,20.285-1.53,33.052-.259,8.908-.382,14.886-.642,30.454l-.264.057C71.606,569.849,71.73,563.8,72,554.544Zm2.911,25.426c0-12.616.069-22.1.423-33.224.626-19.7,1.924-31.9,3.856-36.265a60.383,60.383,0,0,0,2.887-10.343c.994-4.638,2.045-10.454,3.121-17.288,2.089-13.262,4.107-29.256,5.683-45.039a307.466,307.466,0,0,1,4.586-30.44v2.577c-1.834,8.986-3.386,19.325-4.393,29.417-1.591,15.964-3.628,32.121-5.736,45.5-2.272,14.413-4.376,24.071-6.086,27.93-.941,2.121-1.729,6.223-2.345,12.191-.586,5.683-1.031,13.228-1.324,22.424-.345,10.885-.412,20.182-.412,32.565,0,1.418,0,2.019.025,4.586l-.261.092C74.909,582.067,74.908,581.441,74.908,579.97Zm7.268-47.694c.288-.881.506-1.595.723-2.308.544-1.8,1.08-3.937,1.594-6.362,1.331-6.308,2.565-15.111,3.773-26.911,2.954-28.867,5.194-48.349,7.2-61.127v2.88c-1.846,11.971-3.963,30.12-7,59.851-1.229,11.98-2.485,20.936-3.84,27.379-.5,2.386-1.021,4.446-1.628,6.481-.229.764-.437,1.443-1.4,4.407-1.374,4.293-1.963,7.939-2.425,15.006-.45,6.888-.712,16.927-.812,31.654l-.268.13C78.275,551.687,79.213,541.525,82.176,532.276Zm5.541,27.271c1.441-9.676,2.569-21.524,3.552-37.288.607-9.748,1.326-19.29,2.135-28.358.657-7.369,1.348-14.133,2.059-20.165v6.592c-.576,5.151-1.136,10.784-1.674,16.824-.786,8.815-1.48,18.04-2.065,27.419-1.58,25.338-3.547,41.63-6.672,54.193q-.879.77-1.815,1.471A140.067,140.067,0,0,0,87.718,559.547ZM40.412,573.913c-.549-2.236-1.122-5.344-1.763-9.472-.65-4.206-.724-10.246-.217-17.954.364-5.54.956-11.466,2.111-21.136l.465-3.868.093-.763c.942-7.807,1.087-9.006,1.449-12.267.618-5.576.824-8.386,1.431-17.979a155.689,155.689,0,0,1,1.639-16.636A76.119,76.119,0,0,1,48.085,463.4a100.82,100.82,0,0,1,4.206-10.723c.32-.725,1.361-3.021,2.31-5.117l.015-.031.343-.756c1.078-2.38,2.193-4.84,2.7-5.994a164.751,164.751,0,0,0,6.258-16.151,106.968,106.968,0,0,0,3.73-15.308c1.859-11.178,4.231-30.426,6.506-52.809s4.078-44.187,4.945-59.825c.565-10.2,1.16-14.743,1.93-14.743a.175.175,0,0,1,.076.015c.32.137.669,1.009,1.129,2.829.313,1.22.624,2.568.925,4.006l.329,1.481c1.32,5.836,2.247,8.11,3.3,8.11,1.034,0,1.758,2.225,2.091,6.434a109.042,109.042,0,0,1,.091,12.2,222.025,222.025,0,0,1-2.9,28.325c-1.045,5.657-1.835,15.609-2.347,29.576-.479,13.047-.722,29.711-.722,49.528a147.576,147.576,0,0,1-1.04,19.7,56.964,56.964,0,0,1-2.212,9.8l-.266.872a49.594,49.594,0,0,0-2.268,10.51c-1.541,13.924-3.742,16.847-5.317,16.847-.347,0-.63,1.981-1.042,7.308-.076.982-.347,4.634-.383,5.133-.377,4.974-.693,8.122-1.024,10.207-.355,2.233-.739,3.272-1.207,3.272-2.051,0-2.8,2.14-5.685,16.356-1.286,6.314-2.217,8.42-3.83,8.673a.565.565,0,0,0-.24.044c-1.312.145-1.9.823-2.746,3.161-.792,2.329-1.573,5.151-2.322,8.385-.234.971-.874,3.688-2.592,11.119l-.041.179,0,.011c-.025.107-.039.166-.04.173-2.161,9.26-3.545,14.259-4.936,17.832a16.083,16.083,0,0,1-1.915,3.839A30.674,30.674,0,0,1,40.412,573.913Zm14-123.511c-.867,1.908-1.763,3.882-2.062,4.561a101.43,101.43,0,0,0-4.18,10.651,73.582,73.582,0,0,0-2.409,10.18,149.056,149.056,0,0,0-1.557,15.859c-.61,9.639-.834,12.711-1.473,18.45-.364,3.316-.514,4.544-1.48,12.538l-.012.1-.059.492-.463,3.841c-1.143,9.6-1.722,15.383-2.064,20.62-.22,3.345-.316,6.145-.3,8.559a44.016,44.016,0,0,0,.439,6.284c1.532,9.869,2.658,13.715,4.014,13.715.811,0,1.742-1.422,2.927-4.477,1.37-3.527,2.742-8.489,4.9-17.7.076-.362,2.183-9.467,2.676-11.5.761-3.278,1.553-6.131,2.354-8.479.932-2.615,1.55-3.138,2.821-3.3h.238c.807-.127,1.382-.687,1.923-1.872a33.131,33.131,0,0,0,1.787-6.538c2.911-14.306,3.725-16.637,5.81-16.637.793,0,1.319-3.255,2.014-12.441l.387-5.185c.469-6.046.809-8.294,1.256-8.294,1.033,0,1.986-1.273,2.831-3.785a63.785,63.785,0,0,0,2.3-12.353A51.609,51.609,0,0,1,79.4,452.607l.266-.869a61.03,61.03,0,0,0,2.382-11.189,139.73,139.73,0,0,0,.7-16.1c0-42.339,1.076-69.635,3.2-81.13.642-3.471,1.248-7.9,1.754-12.811s.863-9.842,1.031-14.242a91.4,91.4,0,0,0-.062-10.158c-.282-3.563-.911-5.369-1.871-5.369-1.1,0-2.061-2.339-3.42-8.343l-.2-.891c-1.6-7.045-1.6-7.045-1.964-7.155a.509.509,0,0,1-.112-.037.228.228,0,0,0-.058-.01c-.661,0-1.187,4.145-1.7,13.441C77.481,331.18,71.765,387.428,67.8,411.3c-1.69,10.159-4.608,19.362-10.072,31.765-.581,1.325-1.949,4.341-3.155,7l0,0-.151.334v0ZM91.323,570.731c.915-7.475,1.837-17.426,3.082-33.27l.465-5.891c.214-2.726.411-5.2.594-7.462v4.02q-.186,2.31-.382,4.812l-.463,5.887c-1.147,14.583-2.025,24.247-2.877,31.6q-.237.434-.487.858Q91.289,571.01,91.323,570.731ZM41.476,555.659a81.546,81.546,0,0,1-.073-8.96c.219-6.391.885-14.971,2.038-26.228.328-3.216.692-6.625,1.084-10.133C45,506.056,45.97,497.83,47.4,485.887l0-.036.068-.57c.027-.223.043-.357.047-.393.118-1.087.241-2.084.366-2.966.774-5.605,1.36-6.973,2.984-6.973a4.809,4.809,0,0,1,.721.066,5.169,5.169,0,0,0,.985.1c.522,0,1-.41,1.895-1.628.881-1.174,1.334-1.7,1.679-1.7.19,0,.348.156.531.521.666,1.332.99,5.717.99,13.406a141.807,141.807,0,0,1-1.73,23.822,116.587,116.587,0,0,1-3.7,15.083l-.07.231-.6,2.03c-.751,2.587-1.321,5.577-2.437,12.794l-.21,1.343c-2.02,13.085-3.369,18.923-6.021,18.923C42.188,559.941,41.707,558.5,41.476,555.659Zm6.567-71.9c-.12.863-.236,1.8-.345,2.778-.013.126-.169,1.439-.372,3.143l-.022.194v.008c-.643,5.4-1.98,16.638-2.6,22.154-.364,3.247-.726,6.624-1.077,10.038-1.107,10.841-1.774,19.364-1.98,25.332a63.273,63.273,0,0,0,.043,6.925c.178,2.191.574,3.255,1.211,3.255,1.247,0,2.2-1.277,3.074-4.14.833-2.711,1.642-6.864,2.794-14.334l.208-1.345a109.854,109.854,0,0,1,2.5-13.1l.6-2.028.066-.233a114.832,114.832,0,0,0,3.65-14.849A128.055,128.055,0,0,0,57.4,485.715c0-3.389-.063-5.908-.193-7.7a10.445,10.445,0,0,0-.591-3.374c-.165-.335-.31-.477-.486-.477-.335,0-.792.534-1.63,1.656-.893,1.218-1.4,1.651-1.933,1.651a5.811,5.811,0,0,1-.99-.1,4.272,4.272,0,0,0-.708-.062C49.3,477.312,48.77,478.517,48.043,483.759Zm-13.579,61.8c2.181-23.148,5.1-49.037,7.884-69.879,3.048-22.825,5.44-35.915,6.563-35.915.611,0,1.766-1.6,3.34-4.631,1.467-2.825,3.215-6.714,5.054-11.245,3.981-9.8,7.349-19.92,8.79-26.422.6-2.683,1.3-7.1,2.087-13.115.737-5.618,1.552-12.659,2.425-20.928,1.611-15.271,3.378-34.341,5.107-55.148.052-.641.372-5.191.814-11.488l.031-.443,0-.036c1.164-16.6,3.11-44.385,4.169-57.783,2.564-32.464,4.866-53.683,7.041-64.869.941-4.857,1.8-10.84,2.617-18.287.783-7.105,1.534-15.562,2.295-25.853.18-2.438.582-8.447,1.048-15.4l.032-.473v-.015c.563-8.416,1.219-18.218,1.7-24.987v4.386c-.443,6.361-.985,14.468-1.461,21.576l0,.047c-.489,7.3-.911,13.613-1.1,16.172-1.561,21.094-3.149,35.35-5,44.864-2.141,11.047-4.417,32.043-6.957,64.186-1.033,13.083-2.953,40.469-4.1,56.83l0,.029-.023.338c-.486,6.921-.836,11.922-.9,12.623-1.743,20.97-3.523,40.172-5.144,55.53-1.845,17.452-3.382,29.014-4.569,34.367-1.457,6.574-4.846,16.765-8.844,26.6-1.852,4.556-3.611,8.459-5.084,11.287-1.584,3.041-2.75,4.648-3.371,4.648-1.072,0-3.42,13.019-6.441,35.72C39.613,499.3,36.63,525.9,34.464,549.19Zm0-27.536c.587-4.563,1.182-9.191,1.424-11.126.59-4.653,1.161-9.671,1.7-14.913,1.1-10.923,1.9-18.327,2.662-24.754.818-6.885,1.639-12.925,2.583-19.008,2.693-17.344,5.7-29.353,9.192-36.713,5.258-11.065,8.313-18.059,10.544-24.136a95.114,95.114,0,0,0,4.824-18.113c1.112-6.683,2.5-21.183,4.133-43.1,1.615-21.707,3.462-50.661,5.493-86.058,1.31-22.883,3.117-42.7,5.52-60.583,1.4-10.445,2.643-17.9,4.586-28.819,1.918-10.774,2.5-14.381,2.972-19.228.313-3.491.573-7.352.771-11.478.158-3.02.725-14.721.784-15.953.384-7.641.693-13.089,1.032-18.213.62-9.4,1.338-17.418,2.169-24.138q.128.627.23,1.263c-.828,6.6-1.545,14.553-2.174,24.077-.376,5.782-.719,11.831-1.019,17.979-.04.833-.625,12.9-.786,16-.209,4.322-.481,8.366-.811,12.019-.491,5.088-1.088,8.765-3.03,19.676-1.928,10.846-3.162,18.252-4.556,28.629-2.377,17.691-4.162,37.27-5.458,59.854-2.043,35.643-3.9,64.754-5.521,86.527-1.641,22.036-3.05,36.68-4.187,43.524-2.019,12.137-5.342,21.29-15.458,42.576-3.452,7.258-6.428,19.144-9.1,36.337-.95,6.13-1.741,11.939-2.561,18.837-.762,6.411-1.553,13.766-2.644,24.59-.535,5.248-1.113,10.322-1.715,15.08-.155,1.236-.56,4.419-1.6,12.475Zm0-35.524c.766-4.505,1.471-8.681,1.76-10.5.59-3.844,1.147-8.148,1.657-12.794.391-3.463,1.812-16.741,1.86-17.2,1.975-18.118,3.421-27.619,5.156-33.888a124.1,124.1,0,0,1,4.559-12.678c1.022-2.573,2.058-5.172,3.078-7.726,1.114-2.822,2.228-5.755,3.309-8.72a215.444,215.444,0,0,0,6.662-21.622A174.752,174.752,0,0,0,66.5,335.542c2.325-19.669,3.1-33.164,4.11-61.315.52-14.45.8-21.151,1.324-29.973,1.248-20.891,3.132-44.155,5.169-63.825,2.2-21.243,4.4-36.612,6.2-43.275a140.274,140.274,0,0,0,3.919-20.847,191.317,191.317,0,0,0,1.145-21.755c0-6.838.717-19.84,1.785-32.352.3-3.565.621-6.947.95-10.119.21.348.414.7.61,1.058-.4,3.661-.782,7.649-1.145,11.913-.972,11.427-1.677,23.834-1.677,29.5a221.581,221.581,0,0,1-1.242,24.5A148.137,148.137,0,0,1,83.5,141.5,153.859,153.859,0,0,0,80.533,158c-1,7.1-2.03,15.8-3.07,25.858-2,19.379-3.849,42.2-5.069,62.613-.476,8.034-.753,14.315-1.288,29.222-1.045,29.034-1.845,42.961-4.25,63.292A191.716,191.716,0,0,1,56,383.495c-1.113,3.052-2.23,5.993-3.318,8.742-1.012,2.577-2.048,5.179-3.083,7.73a122.879,122.879,0,0,0-4.5,12.536,106.907,106.907,0,0,0-2.461,12.484c-.752,5.026-1.552,11.48-2.516,20.313l-.005.05-.006.067c-.022.2-.067.629-.133,1.234l-.005.051v.01c-.379,3.532-1.385,12.915-1.716,15.841-.532,4.851-1.112,9.33-1.724,13.314-.329,2.081-1.183,7.121-2.058,12.265Zm0-31.37c.35-2.534.755-5.62,1.248-9.5.009-.127,1.947-15.5,2.474-19.555,1.364-10.538,2.415-17.915,3.41-23.918,1.265-7.622,2.365-12.495,3.361-14.9,3.392-8.158,4.082-9.867,5.688-14.065A166.215,166.215,0,0,0,58,345.628a46.79,46.79,0,0,1,1.951-6.576c2.232-6.18,3.135-9.619,4.434-19.086.909-6.606,1.751-14.988,2.575-25.626.851-10.971,1.661-24.07,2.475-40.045,4.162-81.734,4.946-92.568,8.4-115.912A152.292,152.292,0,0,1,80.817,123.3l.608-2.452a161.894,161.894,0,0,0,3.511-17.738c.838-6.085,1.436-13.028,2-23.216.5-8.957.648-14.788.881-28.912.019-1.154.038-2.251.057-3.3.087.1.173.2.259.3-.019,1.049-.038,2.156-.058,3.332-.231,14.11-.4,20.365-.906,29.595-.579,10.706-1.452,20.035-2.524,26.978a145.931,145.931,0,0,1-3.117,15.083l-.6,2.453a148.557,148.557,0,0,0-2.939,14.818c-1.721,11.648-2.738,19.922-3.865,35.448-1.143,15.755-2.4,39.148-4.456,79.546C68.076,286.528,66.4,308.3,64.546,321.8c-1.328,9.668-2.247,13.179-4.52,19.488a45.428,45.428,0,0,0-1.914,6.434,168.528,168.528,0,0,1-7.394,23.7c-1.889,4.907-3.805,9.64-5.7,14.069-.965,2.335-2.038,7.107-3.281,14.587-1.174,7.262-2.312,15.245-3.383,23.727-.482,3.733-1.866,14.7-2.437,19.247l-.04.313c-.456,3.709-.931,7.3-1.418,10.725Zm43.425-11.506c-.878-1.283-1.552-4.459-2-9.438-.476-5.277-.718-12.758-.718-22.234,0-16.619.147-28.165.475-37.436.312-8.815.805-16.174,1.649-24.607.252-2.72.473-5.693.658-8.835.114-1.8.454-7.508.618-10.252l.014-.237c.066-1.094.076-1.285.079-1.319.542-8.952.986-14.927,1.4-18.8.452-4.233.887-6.2,1.37-6.2.139,0,.283.168.429.5a19.092,19.092,0,0,1,.935,3.745l.364,1.979c.256,1.459.528,2.728.81,3.77.141.492.34.666.76.666a2.661,2.661,0,0,0,.481-.053l.189-.025a2.094,2.094,0,0,1,.293-.023c.664,0,1,.428,1.229,1.58a16.6,16.6,0,0,1,.248,2.88,72.658,72.658,0,0,1-.546,8.667c-.329,2.965-.669,5.945-1.009,8.859-1.409,12.117-2.221,19.25-2.745,24.609-.562,5.744-.767,9.312-.917,13.208-.491,12.821-.518,15.912-.256,30.073.236,12.764-.1,28.76-.748,35.661-.212,2.261-.443,3.407-.688,3.407a.611.611,0,0,0-.394.164l-.167.1a1.681,1.681,0,0,1-.823.271A1.234,1.234,0,0,1,77.889,439.625Zm1-113.225c-.02.336-.566,9.491-.714,11.825-.2,3.3-.428,6.407-.692,9.242-.82,8.23-1.3,15.372-1.6,23.88-.318,9-.459,20.291-.459,36.607,0,9.017.214,15.783.653,20.686.415,4.62,1.019,7.45,1.848,8.654a1.177,1.177,0,0,0,.945.647,1.68,1.68,0,0,0,.807-.272l.132-.068.006,0,.133-.068.005,0L80,437.5a.474.474,0,0,1,.258-.094c.17,0,.336-.855.494-2.542.583-6.225.9-22.018.682-33.8-.266-14.533-.237-18.032.269-31.2.353-9.267.931-14.78,3.729-38.789.367-3.148.678-5.86,1.005-8.793a57.5,57.5,0,0,0,.467-6.512,7.578,7.578,0,0,0-.114-1.334c-.183-.9-.5-1.271-1.1-1.271a1.892,1.892,0,0,0-.289.025l-.188.022a2.945,2.945,0,0,1-.5.055c-.457,0-.67-.215-.842-.854-.289-1.012-.539-2.256-.849-3.937l-.361-1.955a18.189,18.189,0,0,0-.864-3.463c-.12-.267-.238-.4-.348-.4C80.641,302.668,79.924,309.322,78.892,326.4Zm-1.241,81.553c0-9.42.151-13.4.541-14.183.048-.1.091-.142.133-.142.242,0,.463,1.445.963,5.516.153,1.224.65,4.456.667,4.542.52,3.761.521,7.965,0,14.992-.341,4.639-.748,7.193-1.145,7.193C78.129,425.871,77.651,418.5,77.651,407.953Zm.653-9.567c-.045.077-.131,2.961-.131,9.567,0,8.079.243,13.1.634,13.1.227,0,.481-1.764.717-4.966.4-5.412.381-6.721.1-8.716,0-.019-.5-3.23-.689-4.715v-.025a35.219,35.219,0,0,0-.627-4.25S78.306,398.382,78.3,398.386Zm-43.84-6.3C36.205,378.143,37.43,369,38.5,361.9a179.389,179.389,0,0,1,4.1-21.013A99.028,99.028,0,0,1,46.711,329.2c.006-.016.057-.136.14-.332l.011-.027c.069-.164.161-.38.271-.642l.005-.015.033-.079,0-.005c1-2.376,3.658-8.688,4.559-10.987a140.526,140.526,0,0,0,6.417-20.779,208.589,208.589,0,0,0,3.994-25.829c.76-7.715,1.407-15.995,2.1-26.849.65-10.2,1.364-23.059,2.39-43l.546-10.6c1.258-24.407,2.164-40.13,3.027-52.575.923-13.309,1.824-23.185,2.921-32.019,1.2-9.852,2.556-18.1,4.019-24.508L78.2,76.314c1.714-7.607,2.5-14.087,3.385-27.733q.188-3.01.362-6.1l.278.189q-.2,3.587-.418,7.067c-.477,7.416-.93,12.662-1.467,17.011a115.453,115.453,0,0,1-2.029,11.692L77.26,83.054c-1.442,6.314-2.775,14.44-3.961,24.152-1.081,8.711-1.97,18.475-2.884,31.659-.855,12.342-1.754,27.962-3.005,52.23l-.544,10.582c-2.023,39.254-3.083,55.7-4.533,70.38-1.917,19.453-4.968,33.161-10.53,47.318-1.16,2.943-4.99,12.006-5.027,12.092a99.712,99.712,0,0,0-4.083,11.587,177.874,177.874,0,0,0-4.055,20.839c-1.1,7.278-2.356,16.716-4.175,31.326Zm0-74.68c2.319-19.528,4.916-35.923,8.117-51.849,1.677-8.342,3.081-17.2,4.173-26.314,1.054-8.8,1.862-18.2,2.4-27.956.382-6.925.615-13.026.752-19.783.126-6.208.18-13.351.18-23.88,0-24.717-.158-43.218-.967-64.641-.417-11.01-.973-20.926-1.652-29.471-.7-8.858-1.563-16.51-2.551-22.743q-.436-2.754-.836-5.188c.133-.125.269-.251.405-.374q.284,1.751.582,3.63c1.986,12.547,3.432,30.511,4.3,53.394.821,21.668.982,40.386.982,65.393,0,18.572-.144,30-.961,44.7a388.565,388.565,0,0,1-6.683,55.3c-3.17,15.778-5.688,31.778-7.924,50.355q-.16,1.326-.318,2.674Zm58.167-37.814c-1.88-15.163-2.932-28.131-2.963-36.515A175.814,175.814,0,0,1,91.31,218.9c.245-1.933.533-4.011.961-6.949.034-.239.086-.593.149-1.02l.013-.094.147-1,.01-.068c.28-1.913.615-4.2.711-4.883,1.024-7.027,1.669-12.086,2.164-17.044v6.826c-.461,4.083-1.041,8.456-1.848,13.986l-1.03,7.024c-.32,2.19-.636,4.473-.938,6.787-.517,4.011-.882,7.545-1.117,10.8-.241,3.343-.353,6.507-.341,9.675.013,3.754.292,8.77.826,14.907.5,5.706,1.192,12.109,2.065,19.034.723,5.737,1.535,11.549,2.381,17.083v5.863C94.439,293.277,93.46,286.29,92.631,279.594ZM50.045,292.639a107.145,107.145,0,0,1-.183-10.966c.242-11.569,1.543-31.189,3.393-51.2.474-5.062.9-10.579,1.26-16.4.6-9.847.907-17.915,1.087-28.772.2-11.824.235-27.259.235-48.33,0-11.062-.239-22.846-.713-35.024-.463-11.963-1.139-23.95-2.008-35.628-.665-8.949-1.428-17.507-2.277-25.54l.321-.166c3.024,29.245,4.938,64.923,4.938,96.358,0,44.146-.168,58.855-1.354,78.231-.367,5.915-.8,11.561-1.29,16.781-1.825,19.761-3.1,38.965-3.334,50.117a87.138,87.138,0,0,0,.145,8.9c.177,1.926.486,2.9.917,2.9.873,0,2.289-4.011,4.207-11.923,3.348-13.793,5.784-34.079,7.446-62.017.662-11.344,1.2-23.339,1.594-35.654.172-5.146.543-17.7.721-23.732l0-.152c.1-3.316.149-5.02.166-5.525.115-3.911.268-7.741.457-11.381,2.157-38.891,5.874-73.335,9.47-87.751A121.548,121.548,0,0,0,77.7,40.092l.34.159a132.736,132.736,0,0,1-2.684,17.661c-1.833,7.358-3.7,19.86-5.407,36.154-1.578,15.085-2.938,32.544-3.932,50.492-.182,3.521-.33,7.223-.442,11-.015.481-.065,2.174-.128,4.316l-.042,1.415-.005.177c-.205,6.96-.548,18.6-.713,23.547-.4,12.458-.946,24.588-1.617,36.053C61.376,249.47,58.9,270.1,55.5,284.124c-1.937,7.987-3.4,12.038-4.356,12.038C50.629,296.162,50.26,294.977,50.045,292.639Zm43.741-29.578a52.894,52.894,0,0,1-.882-9.255,173.6,173.6,0,0,1,.927-19.331c.491-5.257.8-8.252,1.634-14.873v3.145c-.72,5.77-.988,8.484-1.432,13.235a156.943,156.943,0,0,0-.868,17.3,42.881,42.881,0,0,0,.747,7.7c.418,2.027.893,4.745,1.553,8.9v2.811C94.92,269.238,94.357,266.01,93.785,263.061Zm-59.322,6.662c1.645-8.656,3.474-19.914,5-30.864,1.529-10.993,2.805-21.948,3.792-32.558,1.026-11.04,1.748-21.81,2.144-32.008.392-10.1.289-21.858-.306-34.945-.572-12.607-1.57-25.814-2.965-39.253-1.1-10.634-2.4-20.63-3.642-28.148C37.25,64.507,36.223,60.41,35.59,60.41a.945.945,0,0,0-.228.029q.259-1.044.589-2.057C36.619,59.5,37.538,63.462,38.6,69.8c1.267,7.609,2.588,17.8,3.719,28.683,1.429,13.77,2.448,27.316,3.03,40.262.607,13.508.707,25.729.3,36.324-.8,20.552-2.821,42.639-6.017,65.646-1.573,11.316-3.472,22.947-5.159,31.735Zm20.725-20.3a183.907,183.907,0,0,1,.671-21.216c1.586-20.669,2.488-40.662,2.839-62.921.186-11.8.216-24.119.091-37.662-.126-13.656-.408-28.235-.86-44.572-.28-10.109-.688-19.733-1.213-28.607-.319-5.4-.689-10.643-1.105-15.67l.328-.1C57,51.817,57.736,66.325,58.185,82.49c1.729,62.388,1.117,104.988-2.111,147.038a164.966,164.966,0,0,0-.66,18.528c.1,1.721.3,2.632.59,2.636a.183.183,0,0,0,.085-.025c1.145-.7,2.731-12.557,3.947-29.5.41-5.732.74-11.844,1.067-19.818.306-7.47.626-17,1.037-30.914l.442-14.967c.164-5.533.315-10.4.478-15.314,1.364-41.334,3-65.066,5.632-81.912.817-5.211,2.115-12.909,3.344-20.1.154.037.308.074.461.113-1.316,7.679-2.766,16.246-3.653,21.92-1.33,8.491-2.41,19.07-3.3,32.343-.851,12.665-1.561,28.017-2.234,48.315-.143,4.368-.289,9.07-.475,15.249l-.441,14.962c-.824,27.83-1.342,40.318-2.135,51.392-.634,8.857-1.371,16.44-2.128,21.931-.733,5.307-1.432,8.3-2.024,8.657a.239.239,0,0,1-.115.038C55.6,253.059,55.327,251.8,55.189,249.424Zm-20.725-5.506.01-.04c2-7.885,2.8-12.9,4.3-30.914.062-.745.2-2.352.378-4.385l.1-1.186c.575-6.611,1.538-17.67,1.732-20.612.466-7.069.608-14.387.608-31.317,0-15.256-1.1-36.391-2.74-52.592-1.416-14.018-2.939-21.738-4.291-21.738a.356.356,0,0,0-.1.015V76.43a.413.413,0,0,1,.106-.014c1.5,0,3.157,8.266,4.675,23.278,1.721,17.033,2.876,39.446,2.876,55.771,0,17.883-.158,25.757-.679,33.7-.215,3.241-1.22,14.787-1.82,21.686l0,.059-.086.991,0,.026c-.157,1.805-.282,3.232-.334,3.865-1.56,18.735-2.45,24.271-4.509,32.424-.081.314-.154.607-.222.885Zm0-27.768a38.707,38.707,0,0,0,2.041-7.239,140,140,0,0,0,1.849-16.029c1.25-17.431,1.674-34.955,1.227-50.674-.433-15.212-1.653-28.073-3.531-37.192a68.217,68.217,0,0,0-1.586-6.674V95.852a62.738,62.738,0,0,1,1.711,7.088c1.942,9.43,3.208,22.805,3.659,38.678.466,16.377.03,34.546-1.261,52.54A147.586,147.586,0,0,1,36.648,210.9a39.558,39.558,0,0,1-2.184,7.705Zm0-17.97v-2.387l.056,0c1.456,0,2.441-5.945,2.773-16.741.476-15.423.581-28.287.312-38.236-.281-10.411-.975-17.685-2.062-21.618a8.648,8.648,0,0,0-1.079-2.694V114.13a8.676,8.676,0,0,1,1.175,2.9c1.161,4.189,1.905,11.876,2.211,22.852.291,10.418.188,23.82-.3,39.834l0-.026c-.367,11.927-1.436,18.5-3.007,18.5A.565.565,0,0,1,34.464,198.181Zm0-26.954a1.064,1.064,0,0,0,.509-.586c1.015-2.109,1.53-9.24,1.531-21.2,0-6.027-.18-11.19-.52-14.928-.331-3.629-.813-5.926-1.392-6.642a.86.86,0,0,0-.128-.127v-2.411c.587.54,1.116,2.618,1.514,5.985a166.245,166.245,0,0,1,.787,18.137c0,13.012-.6,21.128-1.734,23.468a1.156,1.156,0,0,1-.567.648ZM59.86,66.607c-.12-1.856-.5-8.968-.9-16.5l0-.036v-.025c-.2-3.824-.424-7.947-.643-12l.287-.062c.209,3.883.419,7.808.614,11.463l.018.336V49.8l0,.041c.414,7.762.741,13.885.85,15.591.525,8.147.982,11.78,1.482,11.78.4,0,.828-2.246,1.363-7.07.653-5.884,1.328-10.787,2.189-15.9.79-4.7,1.759-9.726,3.228-16.737.182.02.364.042.545.065l-.318,1.518c-1.512,7.2-2.5,12.3-3.3,17.072-.85,5.055-1.516,9.891-2.158,15.678-.579,5.216-1.085,7.752-1.547,7.752C60.971,79.586,60.43,75.461,59.86,66.607Z" transform="translate(-33.964 -36.953)"/></svg>