<svg xmlns="http://www.w3.org/2000/svg" width="111" height="111.001" viewBox="0 0 111 111.001"><defs><style>.a{fill:#e36414;stroke:#e36414;opacity:0.7;}</style></defs><path class="a" d="M143.739,147.316c.222-.317.461-.669.725-1.067v.85l-.148.217Zm-11.62,0A16.637,16.637,0,0,0,137,144.193a39.929,39.929,0,0,0,5.558-6.665l.839-1.181c.386-.546.74-1.042,1.071-1.5v.806q-.335.463-.689.964l-.833,1.18a40.408,40.408,0,0,1-5.65,6.762,17.081,17.081,0,0,1-4.032,2.753Zm-12.412,0a4.564,4.564,0,0,1,1.435-.776,32.481,32.481,0,0,0,9.352-4.588,22.957,22.957,0,0,0,6.406-7.471,41.528,41.528,0,0,1,3.85-5.682,39.723,39.723,0,0,1,3.712-4.04v1.321a40.109,40.109,0,0,0-3.019,3.37,40.673,40.673,0,0,0-3.725,5.494c-3.453,6.156-7.935,9.646-15.919,12.371Zm-6.614,0c.274-6.814,1.9-8.919,7.409-10.828.519-.176.914-.32,1.3-.463a24.056,24.056,0,0,0,2.874-1.274,25.213,25.213,0,0,0,6.8-5.392c5.327-5.784,9.367-9.688,12.981-12.248v.578c-3.328,2.4-7.146,6.035-12.632,11.991a25.828,25.828,0,0,1-6.925,5.486,24.452,24.452,0,0,1-2.935,1.3c-.413.153-.789.289-2.53.883-2.477.86-3.539,1.591-4.372,3.007-.868,1.474-1.347,3.67-1.5,6.961Zm-5.625,0a11.816,11.816,0,0,1-.073-1.272,22.512,22.512,0,0,1,.763-6.656c1.13-3.947,3.469-6.393,6.953-7.267a24.629,24.629,0,0,0,5.207-2.073,49.007,49.007,0,0,0,5.63-3.463,62.98,62.98,0,0,0,10.246-9.024,31.641,31.641,0,0,1,8.269-6.1v.516a30.437,30.437,0,0,0-7.921,5.894,63.218,63.218,0,0,1-10.344,9.115,35.342,35.342,0,0,1-10.974,5.6A8.438,8.438,0,0,0,111,135.026a10.926,10.926,0,0,0-2.388,4.493,22.166,22.166,0,0,0-.743,6.525,11.746,11.746,0,0,0,.075,1.272Zm-6.517,0a52.419,52.419,0,0,1,1.2-6.366,21.216,21.216,0,0,1,7.693-12.087,34.5,34.5,0,0,1,6.26-3.942c.736-.355,1.474-.673,2.394-1.03.264-.1.841-.315,1.372-.511l.152-.057c.229-.085.427-.158.491-.183a8.8,8.8,0,0,0,4.777-3.46,20.546,20.546,0,0,0,1.912-3.48,13.282,13.282,0,0,0,1.282-7.979,12.872,12.872,0,0,1-.127-2.163,6.088,6.088,0,0,1,1.294-3.437,20.874,20.874,0,0,1,4.216-3.975,13.048,13.048,0,0,0,4.217-4.742,4.939,4.939,0,0,0,.433-2.172,4.76,4.76,0,0,0-.589-2.057,8.617,8.617,0,0,0-2.29-2.644,28.517,28.517,0,0,0-4.092-2.63,7.426,7.426,0,0,0-3.026-.742c-.352-.032-.6-.045-1.248-.082l-.091,0-.049,0c-2.691-.14-3.595-.387-3.638-1.577-.046-1.331,1.693-3.761,5.64-7.879a91.008,91.008,0,0,1,7.692-7.295c.772-.636,1.528-1.223,2.45-1.9l1.941-1.389c.3-.222.656-.485.989-.751a21.044,21.044,0,0,0,2.258-2.1v.686a20.646,20.646,0,0,1-1.966,1.783c-.32.257-.638.5-1,.766L139.558,65.3c-.822.6-1.639,1.231-2.43,1.884a91.14,91.14,0,0,0-7.656,7.262c-3.8,3.96-5.55,6.353-5.512,7.531.017.4.228.644.7.806a10.288,10.288,0,0,0,2.5.317l.032,0,.064,0c.68.038.933.052,1.308.089a7.81,7.81,0,0,1,3.208.793,28.942,28.942,0,0,1,4.2,2.7,9.036,9.036,0,0,1,2.374,2.764,5.084,5.084,0,0,1,.2,4.565,13.32,13.32,0,0,1-4.389,5,20.543,20.543,0,0,0-4.089,3.835,5.7,5.7,0,0,0-1.239,3.229,12.278,12.278,0,0,0,.122,2.092,13.776,13.776,0,0,1-1.319,8.224,20.887,20.887,0,0,1-1.959,3.555,8.784,8.784,0,0,1-2.089,2.174,12.414,12.414,0,0,1-2.905,1.457l-.1.037-.208.077-.005,0h0c-.439.163-1.353.5-1.7.634-.82.311-1.57.633-2.361,1.011a33.635,33.635,0,0,0-6.171,3.891,19.742,19.742,0,0,0-4.768,5.209,23.471,23.471,0,0,0-2.759,6.622,51.953,51.953,0,0,0-1.18,6.248Zm-12.946,0a4.973,4.973,0,0,0-.362-.672,6.657,6.657,0,0,0-3.544-2.489,18.361,18.361,0,0,0-5.993-.864,37.481,37.481,0,0,0-8.581,1.1,47.474,47.474,0,0,0-8.82,2.929H59.622c.283-.145.548-.275.785-.384a47.919,47.919,0,0,1,9-3.007,37.929,37.929,0,0,1,8.688-1.109,18.709,18.709,0,0,1,6.217.915,7.053,7.053,0,0,1,3.722,2.658,5.438,5.438,0,0,1,.478.927Zm-45.993-4.383c-1.173-.842-1.305-2.053-.392-3.6a20.45,20.45,0,0,1,3.807-4.234l.839-.776.167-.152c1.7-1.564,1.961-1.805,2.614-2.458a13.461,13.461,0,0,0,2.581-3.6,8.541,8.541,0,0,1,2.954-3.334,20.139,20.139,0,0,1,4.447-2.091c1.679-.594,3.947-1.237,7.584-2.149.578-.145,2.454-.6,4.167-1.025l.027-.006.618-.151c1.944-.477,3.955-.97,4.875-1.2,4.852-1.224,8.438-2.252,11.285-3.236a30.122,30.122,0,0,0,6.725-3.066,71.013,71.013,0,0,0,11.732-10.581c4.1-4.485,7.353-8.854,8.916-11.987,1.019-2.043,2.092-2.954,3.481-2.954l.137,0a5.765,5.765,0,0,1,2.035.567c.563.245,1.125.515,1.669.8l.593.3a12.749,12.749,0,0,0,5.96,1.625c1.866,0,3.169.446,3.769,1.289a2.6,2.6,0,0,1,.165,2.445c-.657,1.908-2.758,4.189-5.23,5.675a10.37,10.37,0,0,0-4.234,5.926,32.249,32.249,0,0,0-1.3,9.924,4.768,4.768,0,0,1-1.876,3.947,13.521,13.521,0,0,1-3.991,1.964l-.48.175c-2.406.869-3.324,1.342-4.09,2.106-2.777,2.79-6.746,3.375-9.587,3.375-.627,0-1.137.4-1.879,1.464-.139.2-.628.929-.692,1.029a7.682,7.682,0,0,1-1.848,2.045,3.622,3.622,0,0,1-2.176.656c-3.7,0-5.04.428-10.251,3.277a13.027,13.027,0,0,1-6.906,1.738c-.124,0-.222,0-.434.009a15.2,15.2,0,0,0-4.952.633,34.6,34.6,0,0,0-4.188,1.68c-.422.194-1.575.739-4.673,2.228l-.075.035,0,0-.071.034a55.775,55.775,0,0,1-8.9,3.573,19.8,19.8,0,0,1-5.41.916C46.97,145.77,44.865,144.975,42.011,142.933Zm28.431-22.849c-1.562.382-3.178.778-3.717.913-3.53.883-5.855,1.541-7.538,2.134a19.508,19.508,0,0,0-4.344,2.04,8.128,8.128,0,0,0-2.806,3.177,13.865,13.865,0,0,1-2.658,3.7c-.658.664-.926.91-2.67,2.512l-.021.019-.107.1-.834.77a20.251,20.251,0,0,0-3.722,4.132,3,3,0,0,0-.531,1.714,1.687,1.687,0,0,0,.79,1.259c2.764,1.977,4.793,2.748,7.239,2.748a19.35,19.35,0,0,0,5.278-.9,55.986,55.986,0,0,0,8.829-3.546c.139-.072,3.937-1.9,4.824-2.3a35.184,35.184,0,0,1,4.244-1.7,15.513,15.513,0,0,1,5.088-.661h.429a15.375,15.375,0,0,0,3.468-.375,12.966,12.966,0,0,0,3.222-1.31c5.249-2.867,6.718-3.334,10.477-3.334,1.43,0,2.381-.652,3.632-2.492l.7-1.04c.846-1.211,1.46-1.661,2.265-1.661a16.3,16.3,0,0,0,5.106-.759,10.421,10.421,0,0,0,4.153-2.475c.817-.825,1.773-1.323,4.258-2.219l.481-.175a12.433,12.433,0,0,0,4.3-2.242,4.088,4.088,0,0,0,1.257-3.226c0-8.483,1.94-13.953,5.767-16.256a14.705,14.705,0,0,0,3.163-2.567,8.49,8.49,0,0,0,1.859-2.854,2.174,2.174,0,0,0-.112-2.035c-.508-.714-1.643-1.076-3.374-1.076a13.179,13.179,0,0,1-6.168-1.671l-.365-.178c-2.886-1.412-2.886-1.412-3.541-1.434l-.2-.007-.1,0c-1.194,0-2.141.831-3.071,2.694-3.344,6.7-13.652,17.969-20.809,22.752-3.046,2.036-8.308,3.88-18.161,6.365-1.048.266-3.515.87-5.691,1.4h0l-.273.067h0Zm-23.334,21.09a1.954,1.954,0,0,1-.132-1.8c.4-1.281,1.6-3,3.676-5.255.591-.644,1.248-1.327,1.955-2.03.864-.858,2.607-2.507,5.18-4.9l.006-.007.123-.114.084-.079a6.918,6.918,0,0,1,.66-.594c1.4-1.123,2.453-1.4,5.381-1.4.355,0,.769,0,1.3.014.751.014,1.216.02,1.776.02a21.442,21.442,0,0,0,3.416-.326,23.078,23.078,0,0,1,3.029-.34,4.19,4.19,0,0,1,.957.1c1.2.267,1.786,1.146,1.786,2.686,0,1.849-1.021,3.41-3.118,4.774a32.52,32.52,0,0,1-6.667,3.022L66.39,135l-1.075.407a18.032,18.032,0,0,0-4.395,2.563l-.378.269c-3.642,2.623-6.075,3.792-10.859,3.792A3.073,3.073,0,0,1,47.108,141.173Zm11.843-14.406a7.415,7.415,0,0,0-.621.557c-.024.025-.306.288-.671.629l-.041.039,0,0c-1.159,1.082-3.57,3.334-4.681,4.439-.656.651-1.31,1.327-1.941,2.012-2,2.172-3.2,3.88-3.571,5.075a1.512,1.512,0,0,0,.077,1.388c.322.439,1.037.652,2.184.652a15.78,15.78,0,0,0,5.545-.83,20.394,20.394,0,0,0,5.036-2.872l.376-.27a18.893,18.893,0,0,1,4.5-2.624l1.084-.406.118-.047a32.183,32.183,0,0,0,6.581-2.975c1.981-1.288,2.9-2.678,2.9-4.377a2.8,2.8,0,0,0-.348-1.543,1.593,1.593,0,0,0-1.066-.676,3.75,3.75,0,0,0-.877-.1,22.585,22.585,0,0,0-2.938.331,22.08,22.08,0,0,1-3.487.331c-.528,0-.979-.005-1.786-.02-.457-.008-.875-.012-1.277-.012C61.216,125.475,60.262,125.716,58.951,126.767ZM34.464,139.149a121.755,121.755,0,0,1,14.216-14c5.5-4.574,9.812-7.2,11.836-7.2a35.19,35.19,0,0,0,6.022-.928c2.645-.566,5.8-1.345,9.115-2.253,7.178-1.963,13.253-3.992,15.852-5.295a20.045,20.045,0,0,0,3.763-2.628,56.984,56.984,0,0,0,4.373-4.193,125.93,125.93,0,0,0,9.211-11.049c.094-.129.671-1.04,1.467-2.3l.056-.088,0-.007c2.1-3.326,5.61-8.894,7.518-11.578,4.622-6.505,8.776-10.757,12.7-13a21.978,21.978,0,0,0,4.72-3.664,34.178,34.178,0,0,0,4.137-5.18c.325-.488,1.05-1.692,1.89-3.086l.057-.1,0,0c1.015-1.686,2.2-3.65,3.064-5.006v.879c-.8,1.274-1.777,2.9-2.634,4.323l-.005.01c-.881,1.463-1.643,2.727-1.984,3.24-2.815,4.226-5.678,7.083-9.012,8.989-3.863,2.213-7.967,6.42-12.546,12.861-1.863,2.621-5.325,8.108-7.394,11.386l0,.006-.042.067c-.876,1.387-1.507,2.389-1.615,2.529a126.388,126.388,0,0,1-9.276,11.127c-3.326,3.5-6.1,5.813-8.24,6.886-2.627,1.317-8.738,3.359-15.948,5.329-3.342.913-6.512,1.7-9.169,2.262a35.428,35.428,0,0,1-6.079.932c-1.934,0-6.168,2.609-11.616,7.157a121.19,121.19,0,0,0-14.436,14.3Zm0-5.516c1.059-.914,2.13-1.842,2.568-2.229a40.44,40.44,0,0,0,3.062-2.989c1.988-2.188,3.424-3.672,4.8-4.959a44.855,44.855,0,0,1,4.659-3.809,45.834,45.834,0,0,1,16.574-7.356c9.482-2.218,14.991-3.619,19.016-4.837a32.681,32.681,0,0,0,8.7-3.629c2.006-1.339,4.514-4.244,7.452-8.636a182.263,182.263,0,0,0,9.9-17.243,38.451,38.451,0,0,1,9.954-12.138,70.381,70.381,0,0,1,8.268-5.774c3.46-2.159,4.516-2.881,5.36-3.852a9.962,9.962,0,0,0,1.39-2.3c.284-.6,1.307-2.949,1.415-3.2a35.163,35.163,0,0,1,1.86-3.65,19.931,19.931,0,0,1,5.018-5.756v.589a19.562,19.562,0,0,0-4.613,5.407,34.675,34.675,0,0,0-1.838,3.6c-.071.167-1.127,2.586-1.417,3.206a10.438,10.438,0,0,1-1.461,2.408c-.887,1.019-1.962,1.756-5.465,3.942a70.572,70.572,0,0,0-8.216,5.737,38.057,38.057,0,0,0-9.841,11.993A181.6,181.6,0,0,1,101.655,95.5c-2.959,4.415-5.5,7.349-7.55,8.721-3.64,2.432-9.632,4.265-27.875,8.53a45.3,45.3,0,0,0-16.4,7.281,44.3,44.3,0,0,0-4.616,3.775c-1.375,1.284-2.8,2.758-4.768,4.927a40.562,40.562,0,0,1-3.094,3.021c-.279.248-1.01.886-2.884,2.5Zm0-7.119c1.381-.9,2.653-1.739,3.175-2.1a23.948,23.948,0,0,0,2.986-2.563c.707-.694,3.268-3.354,3.355-3.446,3.561-3.631,6.169-5.534,9.3-6.791,1.526-.61,3.677-1.274,8.222-2.54,1.843-.516,3.711-1.037,5.55-1.548,2.01-.565,4.018-1.153,5.968-1.748a106.141,106.141,0,0,0,12.012-4.332,26.219,26.219,0,0,0,7.2-4.374c4.192-3.941,5.585-6.646,7.411-12.286a32.292,32.292,0,0,1,2.389-6.006,64.741,64.741,0,0,1,9.319-12.788c3.966-4.256,7.934-7.336,11.174-8.671a22.3,22.3,0,0,0,7.066-4.177,5.982,5.982,0,0,0,2.065-4.359c0-1.371,1.293-3.975,3.217-6.483a25.034,25.034,0,0,1,5.025-4.986h1.685a23,23,0,0,0-5.961,5.558c-1.752,2.29-3.024,4.775-3.024,5.911a6.792,6.792,0,0,1-2.239,4.91,22.731,22.731,0,0,1-7.475,4.5,23.236,23.236,0,0,0-5.346,3.307A50.312,50.312,0,0,0,112,66.676a63.742,63.742,0,0,0-9.14,12.545,31.545,31.545,0,0,0-2.324,5.855c-1.885,5.818-3.326,8.608-7.663,12.682-3.193,3-9.233,5.752-19.584,8.918-2.008.612-4.021,1.2-5.984,1.751-1.823.517-3.694,1.038-5.558,1.549-4.6,1.288-6.653,1.922-8.122,2.512a19.354,19.354,0,0,0-4.44,2.5,38.975,38.975,0,0,0-4.535,4.07l-.01.01-.013.014-.239.247-.01.01,0,0c-.683.708-2.5,2.588-3.1,3.174a24.779,24.779,0,0,1-3.11,2.668c-.593.417-2.133,1.426-3.712,2.457Zm0-6.285c.631-.508,1.361-1.126,2.252-1.9.016-.025,3.51-3.106,4.461-3.919a64.96,64.96,0,0,1,6.148-4.792,20.949,20.949,0,0,1,6.063-2.985c6.116-1.634,7.361-1.976,10.256-2.818A82.8,82.8,0,0,0,76.9,99.09a21.573,21.573,0,0,1,3.52-1.318c4.025-1.238,5.653-1.928,8-3.824a24.4,24.4,0,0,0,4.644-5.134,51.4,51.4,0,0,0,4.462-8.024c7.505-16.377,8.921-18.547,15.145-23.225a26.986,26.986,0,0,1,5.386-3.021l1.1-.491A28.421,28.421,0,0,0,125.48,50.5a13.078,13.078,0,0,0,3.61-4.651,16.375,16.375,0,0,0,1.588-5.793,17.9,17.9,0,0,1,.567-2.739h.5a16.532,16.532,0,0,0-.6,2.805,16.845,16.845,0,0,1-1.634,5.929,14.472,14.472,0,0,1-4.551,5.406,28.143,28.143,0,0,1-5.62,3.021l-1.088.492a26.471,26.471,0,0,0-5.3,2.968,25.473,25.473,0,0,0-6.968,7.1c-2.062,3.157-4.324,7.844-8.037,15.938-2.868,6.27-5.889,10.633-9.233,13.338-2.395,1.938-4.054,2.641-8.15,3.905a21.076,21.076,0,0,0-3.452,1.289,84.177,84.177,0,0,1-13.333,4.749c-3.407.983-6.862,1.931-10.27,2.819A20.586,20.586,0,0,0,47.588,110a65.126,65.126,0,0,0-6.1,4.755c-.87.748-3.363,2.946-4.4,3.856l-.071.063c-.821.743-1.678,1.463-2.557,2.149Zm78.308-2.306a5.623,5.623,0,0,1-3.611-1.891,6.917,6.917,0,0,1-1.294-4.455,24.815,24.815,0,0,1,.856-7.5,12.984,12.984,0,0,1,2.974-4.93,10.327,10.327,0,0,0,1.187-1.77c.206-.36.819-1.5,1.113-2.054l.026-.048c.117-.22.138-.257.142-.265a17.818,17.818,0,0,1,2.526-3.766A3.386,3.386,0,0,1,119.163,90a3.223,3.223,0,0,1,.774.1,6.147,6.147,0,0,1,1.686.751l.656.4a9.417,9.417,0,0,0,1.46.756,4.041,4.041,0,0,0,1.37.133c.233,0,.508,0,.868-.011l.34,0c.208,0,.376-.005.528-.005a4.711,4.711,0,0,1,2.218.317.792.792,0,0,1,.448.577c.061.435-.27,1.019-.986,1.737-.594.594-1.206,1.192-1.819,1.775-2.542,2.428-4.006,3.857-4.95,4.931A7.37,7.37,0,0,0,120.1,104.1a9.116,9.116,0,0,0-.462,6.025c.427,2.558-.178,5.763-1.347,7.145a1.639,1.639,0,0,1-1.239.683c-.241,0-.48.011-.711.032l-.3.02c-.584.037-1.055.054-1.482.054A10.835,10.835,0,0,1,112.772,117.923Zm1.808-22.686c-.036.068-1.021,1.9-1.286,2.37a10.759,10.759,0,0,1-1.249,1.852,12.639,12.639,0,0,0-2.88,4.784,24.419,24.419,0,0,0-.827,7.334,6.391,6.391,0,0,0,1.178,4.145,5.1,5.1,0,0,0,3.331,1.733,10.282,10.282,0,0,0,1.705.13c.409,0,.871-.017,1.455-.054l.238-.014h.012l.241-.013h.008l.081,0c.173-.013.32-.019.466-.019a1.2,1.2,0,0,0,.889-.509c1.053-1.247,1.628-4.411,1.23-6.771a9.556,9.556,0,0,1,.486-6.25c.635-1.857,1.679-2.962,6.723-7.772.663-.631,1.222-1.174,1.813-1.761.614-.618.882-1.033.843-1.305a.363.363,0,0,0-.207-.267,4.565,4.565,0,0,0-1.986-.255c-.159,0-.335,0-.521.005l-.338,0c-.39.008-.669.012-.9.012a3.988,3.988,0,0,1-1.518-.172,9.624,9.624,0,0,1-1.531-.788l-.65-.392a5.663,5.663,0,0,0-1.56-.694,2.6,2.6,0,0,0-.628-.081C117.734,90.482,116.439,91.815,114.58,95.237Zm-2.237,16.34c0-1.887.273-2.684.975-2.841a1.06,1.06,0,0,1,.241-.029c.437,0,.834.29,1.736,1.105.275.246,1.173.893,1.2.911.937.753.939,1.6,0,3a2.692,2.692,0,0,1-2.065,1.442C113.2,115.169,112.343,113.692,112.343,111.577Zm1.177-1.916c-.082.015-.235.593-.235,1.916,0,1.619.437,2.624,1.142,2.624.409,0,.868-.353,1.293-.994.718-1.085.686-1.347.188-1.747-.005,0-.9-.647-1.244-.944v-.005a3.906,3.906,0,0,0-1.13-.851ZM34.464,108.4c3.141-2.794,5.349-4.626,7.277-6.048a31.9,31.9,0,0,1,7.388-4.21A66.99,66.99,0,0,1,56.549,95.8l.251-.066.021-.005.488-.129.01,0,.06-.015,0,0c1.8-.476,6.6-1.741,8.221-2.2a69.416,69.416,0,0,0,11.571-4.163,22.719,22.719,0,0,0,7.2-5.175,31.1,31.1,0,0,0,3.784-5.379c1.171-2.044,2.461-4.621,4.31-8.615l.985-2.125a97.411,97.411,0,0,1,5.459-10.535,28.444,28.444,0,0,1,5.268-6.415,30.88,30.88,0,0,1,7.246-4.91l1.9-.931a12.259,12.259,0,0,0,6.106-5.557q.619-1.1,1.152-2.257h.513c-.387.849-.809,1.681-1.264,2.489a13.441,13.441,0,0,1-2.646,3.408,15.582,15.582,0,0,1-3.658,2.343l-1.9.925a30.323,30.323,0,0,0-7.142,4.839,28.076,28.076,0,0,0-5.2,6.343,97.406,97.406,0,0,0-5.419,10.465l-.98,2.12c-3.649,7.865-5.559,11.159-8.175,14.1-3.456,3.9-8.958,6.645-18.989,9.481-2.092.59-9,2.406-9.063,2.423A67.164,67.164,0,0,0,49.3,98.575a31.5,31.5,0,0,0-7.311,4.175c-1.975,1.458-4.247,3.349-7.529,6.276Zm0-14.963A71.336,71.336,0,0,1,49.1,83.048a38.4,38.4,0,0,0,7.525-5.273,19.805,19.805,0,0,0,4.333-5.6,14.46,14.46,0,0,0,1.356-3.965,26.4,26.4,0,0,0,.325-4.784c0-4.952-.285-8.659-1.743-12.952a22.667,22.667,0,0,0-2.981-5.9,19.194,19.194,0,0,0-4.6-4.557c-1.529-1.073-2.863-1.96-4.063-2.7h.889c1.061.669,2.2,1.436,3.448,2.309a20.923,20.923,0,0,1,7.75,10.7c1.481,4.342,1.771,8.092,1.771,13.1,0,3.722-.259,6.01-1.733,8.956-2.048,4.1-5.99,7.729-12.052,11.081a71.484,71.484,0,0,0-14.289,10.09q-.288.266-.573.536Zm104.891-7.577c-3.389-3.038-5.287-5.637-5.341-7.316-.05-1.566.836-3.015,2.958-4.845.444-.388.962-.8,1.734-1.393l.268-.2.024-.019.265-.2.017-.014c.506-.383,1.108-.841,1.282-.978a27.794,27.794,0,0,0,3.9-3.415v1.367a34.719,34.719,0,0,1-3.332,2.8l-1.857,1.408c-.578.438-1.148.9-1.691,1.359a10.729,10.729,0,0,0-2.014,2.164,3.325,3.325,0,0,0-.615,1.939,5.822,5.822,0,0,0,1.49,2.987,29.915,29.915,0,0,0,3.723,3.813c1.3,1.15,2.768,2.314,4.295,3.423v1.175A58.375,58.375,0,0,1,139.354,85.859ZM62.56,88.473a2.615,2.615,0,0,1-.329-2.2c.437-2.317,2.782-6.249,6.119-10.259a21.047,21.047,0,0,0,2.272-3.286,15.884,15.884,0,0,0,1.96-5.765,70.882,70.882,0,0,0,.424-9.684,21.37,21.37,0,0,0-1.284-7.017A31.764,31.764,0,0,0,68.1,43.126a38.818,38.818,0,0,0-4.783-5.811h.625c5.815,5.977,9.533,13.43,9.533,19.967,0,8.845-.3,11.793-2.441,15.674a21.425,21.425,0,0,1-2.326,3.362c-3.29,3.96-5.594,7.808-6.011,10.042a2.118,2.118,0,0,0,.263,1.784,2.049,2.049,0,0,0,1.652.581c1.575,0,4.127-.8,7.586-2.389A27.679,27.679,0,0,0,85.626,73.912,38.1,38.1,0,0,0,88.5,66.767c.311-1.031.98-3.546,1.3-4.755l.008-.031c.177-.665.268-1.006.3-1.107a13.759,13.759,0,0,1,.825-2.281C94.821,50.8,101.525,43.9,108.008,41.012a14.108,14.108,0,0,0,4.784-3.534l.147-.163h.62a14.861,14.861,0,0,1-5.363,4.127,31.413,31.413,0,0,0-9.752,7.244A42.919,42.919,0,0,0,91.354,58.8a13.391,13.391,0,0,0-.8,2.2c-.028.1-.118.435-.231.865l-.076.283-.009.035c-.371,1.394-.989,3.726-1.286,4.718a38.625,38.625,0,0,1-2.916,7.224A28.142,28.142,0,0,1,72.4,86.767c-3.493,1.6-6.136,2.412-7.855,2.412A2.452,2.452,0,0,1,62.56,88.473Zm78.878-5.926a2.789,2.789,0,0,1-1.591-1.854c-.2-1.034.35-2.3,1.671-3.874a23.064,23.064,0,0,1,2.946-2.98v.63a21.132,21.132,0,0,0-2.583,2.652c-1.22,1.452-1.732,2.585-1.563,3.466a2.307,2.307,0,0,0,1.346,1.544,28.651,28.651,0,0,1,2.8,1.783v.564C143.482,83.785,142.469,83.138,141.438,82.546ZM34.464,83.881A78.855,78.855,0,0,0,43.471,77.7a47.956,47.956,0,0,0,6.837-6.523,21.14,21.14,0,0,0,3.866-6.413,9.8,9.8,0,0,0-.552-7,26.7,26.7,0,0,0-5.347-7.865,39.122,39.122,0,0,0-6.568-5.639c-2.219-1.49-4.072-2.311-5.214-2.311a17.194,17.194,0,0,0-2.03.128v-.479a17.773,17.773,0,0,1,2.03-.122c1.217,0,3.142.837,5.42,2.355a39.582,39.582,0,0,1,6.707,5.747,27.064,27.064,0,0,1,5.465,8.067,10.22,10.22,0,0,1,.532,7.278c-1.436,4.118-5.087,8.543-10.85,13.153a79.226,79.226,0,0,1-9.3,6.359Zm37.373-4.067c-.465-.891-.013-2.48,1.21-4.252a28.623,28.623,0,0,0,5.12-12.607,33.492,33.492,0,0,0,.163-7.546,55.867,55.867,0,0,0-1.552-8.931,25.13,25.13,0,0,0-2.187-5.732,24.787,24.787,0,0,0-2.215-3.433h.614a25.1,25.1,0,0,1,4.25,9.051c3.118,12.5,2.014,21.036-3.806,29.462-1.131,1.642-1.564,2.994-1.19,3.712a1.109,1.109,0,0,0,1.064.528c.044,0,.093,0,.155-.005,2.064-.14,4.924-2.516,7.117-5.911A19.646,19.646,0,0,0,82.5,70.181c.553-1.5,1.129-3.407,1.869-6.195l.8-3c.3-1.109.569-2.084.862-3.069,2.46-8.282,5.4-13.037,10.157-16.412,1.528-1.084,3.994-2.705,6.283-4.192h.867c-2.447,1.585-5.213,3.4-6.878,4.58a21.233,21.233,0,0,0-5.954,6.481,41.212,41.212,0,0,0-4.028,9.68c-.258.875-.523,1.817-.858,3.055l-.8,3c-1.484,5.576-2.42,8.078-3.85,10.3A18.661,18.661,0,0,1,77.139,78.8a6.956,6.956,0,0,1-3.649,1.734c-.08.005-.148.008-.208.008A1.5,1.5,0,0,1,71.836,79.815Zm-37.373-1.1.018-.008c3.6-1.579,5.055-2.585,7.76-6.194.111-.149.363-.472.681-.879l.186-.238c1.038-1.325,2.774-3.54,3.122-4.129.841-1.417,1.1-2.883,1.1-6.275,0-3.057-1.985-7.292-4.941-10.538-2.553-2.809-5.3-4.355-7.738-4.355q-.093,0-.185,0v-.946l.192,0c2.7,0,5.693,1.656,8.429,4.664,3.1,3.413,5.187,7.9,5.187,11.175,0,3.583-.286,5.161-1.225,6.752-.388.649-2.2,2.963-3.281,4.344l-.009.013-.155.2,0,.005c-.284.362-.507.648-.6.774-2.812,3.754-4.417,4.864-8.131,6.5-.145.063-.278.122-.4.177Zm0-5.564a15.543,15.543,0,0,0,3.68-1.45,9.465,9.465,0,0,0,3.334-3.211c2.254-3.493,3.019-7,2.212-10.154-.78-3.047-2.983-5.625-6.368-7.452a19.056,19.056,0,0,0-2.859-1.337v-.5a18.372,18.372,0,0,1,3.085,1.42c3.5,1.89,5.784,4.569,6.6,7.75.841,3.281.054,6.922-2.273,10.527A9.932,9.932,0,0,1,38.4,72.095a16.135,16.135,0,0,1-3.938,1.544Zm0-3.6v-.478h.1c2.626,0,4.4-1.192,5-3.354a15.649,15.649,0,0,0,.563-7.662,5.945,5.945,0,0,0-3.719-4.332,8.46,8.46,0,0,0-1.946-.54v-.477a8.773,8.773,0,0,1,2.12.581,6.363,6.363,0,0,1,3.988,4.578,16.066,16.066,0,0,1-.549,7.981l0,0c-.661,2.39-2.588,3.705-5.423,3.705Zm0-5.4a4.979,4.979,0,0,0,.919-.118c1.831-.422,2.759-1.851,2.759-4.247a4.649,4.649,0,0,0-.938-2.991,3.841,3.841,0,0,0-2.51-1.331q-.114-.015-.23-.025v-.483a4.636,4.636,0,0,1,2.73,1.2,4.833,4.833,0,0,1,1.42,3.633c0,2.607-1.082,4.234-3.128,4.7a5.479,5.479,0,0,1-1.022.13Zm45.8-20.963c-.215-.372-.9-1.8-1.624-3.3l0-.007,0-.005c-.39-.812-.813-1.692-1.231-2.552h.524c.4.821.8,1.656,1.171,2.43l.032.068,0,0,0,.008c.746,1.555,1.335,2.782,1.533,3.124.946,1.633,1.77,2.361,2.674,2.361A3.78,3.78,0,0,0,85.8,43.891a24.319,24.319,0,0,1,3.947-3.185c1.437-.949,3.2-1.966,5.891-3.391h1.008l-.67.355c-2.727,1.443-4.508,2.465-5.954,3.421a23.834,23.834,0,0,0-3.892,3.141,4.239,4.239,0,0,1-2.79,1.553C82.265,45.785,81.287,44.959,80.259,43.184Z" transform="translate(-33.964 -36.815)"/></svg>