<svg xmlns="http://www.w3.org/2000/svg" xmlns:xlink="http://www.w3.org/1999/xlink" width="285" height="26" viewBox="0 0 285 26"><defs><style>.a{fill:none;}.b{clip-path:url(#a);}.c{fill:#d08770;}</style><clipPath id="a"><rect class="a" width="285" height="26"/></clipPath></defs><g class="b"><g transform="translate(-140 -692)"><circle class="c" cx="2.5" cy="2.5" r="2.5" transform="translate(140 692)"/><circle class="c" cx="2.5" cy="2.5" r="2.5" transform="translate(160 692)"/><circle class="c" cx="2.5" cy="2.5" r="2.5" transform="translate(180 692)"/><circle class="c" cx="2.5" cy="2.5" r="2.5" transform="translate(200 692)"/><circle class="c" cx="2.5" cy="2.5" r="2.5" transform="translate(220 692)"/><circle class="c" cx="2.5" cy="2.5" r="2.5" transform="translate(240 692)"/><circle class="c" cx="2.5" cy="2.5" r="2.5" transform="translate(260 692)"/><circle class="c" cx="2.5" cy="2.5" r="2.5" transform="translate(280 692)"/><circle class="c" cx="2.5" cy="2.5" r="2.5" transform="translate(300 692)"/><circle class="c" cx="2.5" cy="2.5" r="2.5" transform="translate(320 692)"/><circle class="c" cx="2.5" cy="2.5" r="2.5" transform="translate(340 692)"/><circle class="c" cx="2.5" cy="2.5" r="2.5" transform="translate(360 692)"/><circle class="c" cx="2.5" cy="2.5" r="2.5" transform="translate(380 692)"/><circle class="c" cx="2.5" cy="2.5" r="2.5" transform="translate(400 692)"/><circle class="c" cx="2.5" cy="2.5" r="2.5" transform="translate(420 692)"/><circle class="c" cx="2.5" cy="2.5" r="2.5" transform="translate(140 709)"/><circle class="c" cx="2.5" cy="2.5" r="2.5" transform="translate(160 709)"/><circle class="c" cx="2.5" cy="2.5" r="2.5" transform="translate(180 709)"/><circle class="c" cx="2.5" cy="2.5" r="2.5" transform="translate(200 709)"/><circle class="c" cx="2.5" cy="2.5" r="2.5" transform="translate(220 709)"/><circle class="c" cx="2.5" cy="2.5" r="2.5" transform="translate(240 709)"/><circle class="c" cx="2.5" cy="2.5" r="2.5" transform="translate(260 709)"/><circle class="c" cx="2.5" cy="2.5" r="2.5" transform="translate(280 709)"/><circle class="c" cx="2.5" cy="2.5" r="2.5" transform="translate(300 709)"/><circle class="c" cx="2.5" cy="2.5" r="2.5" transform="translate(320 709)"/><circle class="c" cx="2.5" cy="2.5" r="2.5" transform="translate(340 709)"/><circle class="c" cx="2.5" cy="2.5" r="2.5" transform="translate(360 709)"/><circle class="c" cx="2.5" cy="2.5" r="2.5" transform="translate(380 709)"/><circle class="c" cx="2.5" cy="2.5" r="2.5" transform="translate(400 709)"/><circle class="c" cx="2.5" cy="2.5" r="2.5" transform="translate(420 709)"/><circle class="c" cx="2.5" cy="2.5" r="2.5" transform="translate(140 726)"/><circle class="c" cx="2.5" cy="2.5" r="2.5" transform="translate(160 726)"/><circle class="c" cx="2.5" cy="2.5" r="2.5" transform="translate(180 726)"/><circle class="c" cx="2.5" cy="2.5" r="2.5" transform="translate(200 726)"/><circle class="c" cx="2.5" cy="2.5" r="2.5" transform="translate(220 726)"/><circle class="c" cx="2.5" cy="2.5" r="2.5" transform="translate(240 726)"/><circle class="c" cx="2.5" cy="2.5" r="2.5" transform="translate(260 726)"/><circle class="c" cx="2.5" cy="2.5" r="2.5" transform="translate(280 726)"/><circle class="c" cx="2.5" cy="2.5" r="2.5" transform="translate(300 726)"/><circle class="c" cx="2.5" cy="2.5" r="2.5" transform="translate(320 726)"/><circle class="c" cx="2.5" cy="2.5" r="2.5" transform="translate(340 726)"/><circle class="c" cx="2.5" cy="2.5" r="2.5" transform="translate(360 726)"/><circle class="c" cx="2.5" cy="2.5" r="2.5" transform="translate(380 726)"/><circle class="c" cx="2.5" cy="2.5" r="2.5" transform="translate(400 726)"/><circle class="c" cx="2.5" cy="2.5" r="2.5" transform="translate(420 726)"/></g></g></svg>