<svg xmlns="http://www.w3.org/2000/svg" width="1921" height="771.657"><defs><linearGradient id="a" x1=".5" x2=".5" y2="1" gradientUnits="objectBoundingBox"><stop offset="0" stop-color="#4a5568"/><stop offset="1" stop-color="#3eac75"/></linearGradient></defs><path d="M6659 4023.919c-64-33.354-192-97.907-320-122.961-128-24.13-256-8.76-384-41.037s-256-115.277-384-114.814c-128-.462-256 82.536-384 98.368-128 16.446-256-32.739-320-57.33l-64-24.594V3614h1v-33.9l64-24.592c64-24.592 192-73.776 320-57.331 128 15.832 256 98.83 384 98.369 128 .461 256-82.537 384-114.814s256-16.907 384-41.038c128-25.052 256-89.608 320-122.96l64-32.734v442.657h-1v329z" transform="translate(-4803 -3284.999)" opacity=".4" fill="url(#a)"/></svg>