<svg xmlns="http://www.w3.org/2000/svg" width="454" height="367.656" viewBox="0 0 454 367.656"><defs><style>.a{fill:#F7FAFC;opacity:.5;}
</style></defs><path class="a" d="M5241.638,3637.059c-15.125-15.891-45.375-46.648-75.627-58.584-30.25-11.5-60.5-4.174-90.752-19.552s-60.5-54.924-90.754-54.7c-30.25-.22-60.5,39.325-90.752,46.868-30.25,7.835-60.5-15.6-75.627-27.316L4803,3512.054v-70.3h.236V3425.6l15.125-11.717c15.125-11.717,45.377-35.151,75.627-27.315,30.251,7.543,60.5,47.087,90.753,46.868,30.25.22,60.5-39.325,90.752-54.7s60.5-8.056,90.753-19.553c30.25-11.936,60.5-42.694,75.627-58.584L5257,3285v210.9h-.236v156.753Z" transform="translate(-4803 -3285.001)"/></svg>